<svg id="Capa_1" enable-background="new 0 0 507.983 507.983" height="512" viewBox="0 0 507.983 507.983" width="512" xmlns="http://www.w3.org/2000/svg"><g><path d="m479.991 357.983c0 11.046-8.954 20-20 20h-186c-11.046 0-20 8.954-20 20s8.954 20 20 20h141c11.046 0 20 8.954 20 20s-8.954 20-20 20h-19c-11.046 0-20 8.954-20 20s-8.954 20-20 20h-140c-11.046 0-20-8.954-20-20s-8.954-20-20-20h-71c-11.046 0-20-8.954-20-20s8.954-20 20-20h22c11.046 0 20-8.954 20-20s-8.954-20-20-20h-79c-11.046 0-20-8.954-20-20s8.954-20 20-20h412c11.046 0 20 8.954 20 20z" fill="#e2e9ee"/><path d="m398.998 106.671c-19.136 0-36.96 5.619-51.912 15.297-14.563-64.112-71.904-111.968-140.423-111.968-79.529 0-144 64.471-144 144 0 12.161 1.508 23.969 4.346 35.249-29.714.369-53.689 24.571-53.689 54.373 0 30.032 24.346 54.378 54.378 54.378h331.301c52.834 0 95.664-42.83 95.664-95.664s-42.831-95.665-95.665-95.665z" fill="#e2e9ee"/><path d="m398.998 308h-331.3c-35.499 0-64.378-28.88-64.378-64.378 0-30.977 22.262-57.127 51.622-63.099-1.514-8.727-2.279-17.608-2.279-26.523 0-84.916 69.084-154 154-154 91.167 0 137.232 72.08 146.689 107.016 14.173-6.797 29.727-10.344 45.646-10.344 58.264 0 105.665 47.401 105.665 105.664s-47.401 105.664-105.665 105.664zm-192.335-288c-73.888 0-134 60.112-134 134 0 11.106 1.36 22.145 4.043 32.809 1.156 4.303-1.36 12.439-9.574 12.439-24.16 0-43.813 20.207-43.813 44.374 0 24.47 19.908 44.378 44.377 44.378h331.301c47.235 0 85.665-38.429 85.665-85.665 0-47.235-38.429-85.664-85.665-85.664-16.568 0-32.64 4.734-46.478 13.691-5.142 3.523-13.465 1.201-15.186-6.179-13.932-61.341-67.666-104.183-130.67-104.183zm-85.102 317.983c0-5.51 4.49-10 10-10s10 4.49 10 10-4.49 10-10 10-10-4.49-10-10zm338.43-10h-283.43c-5.51 0-10 4.49-10 10s4.49 10 10 10h283.43c5.5.01 9.99 4.5 10 10 0 5.514-4.486 10-10 10h-186c-16.542 0-30 13.458-30 30s13.458 30 30 30h141c5.514 0 10 4.486 10 10s-4.486 10-10 10h-19c-16.542 0-30 13.458-30 30 0 5.514-4.486 10-10 10h-140c-5.514 0-10-4.486-10-10 0-16.542-13.458-30-30-30h-71c-5.514 0-10-4.486-10-10s4.486-10 10-10h22c16.542 0 30-13.458 30-30s-13.458-30-30-30h-79c-5.514 0-10-4.44-10-10.01s4.5-9.98 10-9.99h38.57c5.51 0 10-4.49 10-10s-4.49-10-10-10h-38.57c-14.161 0-30 10.806-30 30 0 16.542 13.458 30 30 30h79c5.514 0 10 4.486 10 10s-4.486 10-10 10h-22c-16.542 0-30 13.458-30 30s13.458 30 30 30h71c5.514 0 10 4.486 10 10 0 16.542 13.458 30 30 30h140c16.542 0 30-13.458 30-30 0-5.514 4.486-10 10-10h19c16.542 0 30-13.458 30-30s-13.458-30-30-30h-141c-5.514 0-10-4.486-10-10s4.486-10 10-10h186c16.542 0 30-13.458 30-30 0-20-17.064-30-30-30z"/></g></svg>