<svg width="375" height="812" viewBox="0 0 375 812" fill="none" xmlns="http://www.w3.org/2000/svg">
<g clip-path="url(#clip0)">
<rect width="375" height="812" fill="white"/>
<path d="M207.178 225.203C207.178 225.203 152.137 156.376 88.5368 201.427C24.9364 246.479 29.0944 369.485 29.0944 369.485C29.0944 369.485 39.9051 356.244 56.7255 365.146C56.7255 365.146 59.8412 328.147 85.0441 337.38C85.0441 337.38 102.197 293.734 128.697 312.806C128.697 312.806 137.734 272.336 170.72 285.248C170.665 285.23 182.474 239.45 207.178 225.203V225.203Z" fill="#FFC100"/>
<g opacity="0.4">
<path opacity="0.4" d="M207.178 225.203C207.178 225.203 152.137 156.376 88.5368 201.427C24.9364 246.479 29.0944 369.485 29.0944 369.485C29.0944 369.485 39.9051 356.244 56.7255 365.146C56.7255 365.146 59.8412 328.147 85.0441 337.38C85.0441 337.38 102.197 293.734 128.697 312.806C128.697 312.806 137.734 272.336 170.72 285.248C170.665 285.23 182.474 239.45 207.178 225.203V225.203Z" fill="black"/>
</g>
<path d="M236.683 501.845L237.027 502.383C237.604 502.505 238.225 502.609 238.912 502.695C239.941 502.815 240.976 502.663 241.972 502.244C243.222 501.796 244.427 501.084 245.554 500.127C245.746 499.886 245.982 499.745 246.229 499.723C246.475 499.702 246.72 499.801 246.928 500.007C247.137 500.213 247.299 500.516 247.393 500.874C247.486 501.231 247.506 501.625 247.45 502.001C247.095 503.58 244.467 506.565 240.719 507.572C236.972 508.578 242.194 513.16 244.046 514.878C245.897 516.596 251.586 522.34 251.708 523.659C251.874 525.603 250.599 526.262 248.736 524.475C246.873 522.687 241.085 517.95 240.553 519.546C240.021 521.143 249.678 529.664 249.678 529.664C249.678 529.664 251.896 530.965 251.353 532.84C250.311 536.224 240.487 525.898 239.566 524.943C238.923 524.249 238.313 525.95 239.023 526.679C239.733 527.408 248.769 534.853 247.727 538.306C246.929 540.961 239.6 529.993 237.182 530.063C234.765 530.132 243.281 537.508 242.46 539.989C242.15 540.927 241.839 541.551 237.338 536.206C233.679 531.433 230.188 526.352 226.882 520.987L236.683 501.845V501.845Z" fill="#FFBE9D"/>
<path d="M183.195 351.402L203.797 462.989L238.103 500.266L226.959 525.603L180.157 476.942L164.945 364.748L183.195 351.402Z" fill="#FFC100"/>
<path d="M191.988 437.618C186.599 476.335 194.206 516.301 202.322 553.89C210.438 591.479 219.076 630.474 215.761 669.746L186.932 680.766L163.57 506.565L183.417 431.943L191.988 437.618V437.618Z" fill="#FFC100"/>
<path d="M193.629 430.901C193.613 431.195 193.579 431.485 193.529 431.769C193.418 432.429 193.296 433.227 193.141 434.181C192.986 435.136 192.753 436.524 192.554 438.017C192.354 439.509 192.077 441.227 191.888 443.136C191.363 447.59 190.992 452.086 190.78 456.603C190.548 462.132 190.518 467.677 190.691 473.211C191.039 483.277 191.866 493.289 193.163 503.164C193.651 506.947 194.073 510.019 194.383 512.136L194.716 514.566C194.759 514.851 194.785 515.141 194.793 515.433C194.702 515.18 194.638 514.904 194.605 514.618L194.161 512.223C193.784 510.123 193.308 507.017 192.764 503.286C191.365 493.404 190.501 483.355 190.181 473.246C190.006 467.676 190.05 462.095 190.314 456.534C190.538 451.993 190.942 447.478 191.522 443.015C191.744 441.106 192.021 439.405 192.265 437.913C192.509 436.42 192.731 435.119 192.953 434.095L193.452 431.717C193.489 431.435 193.549 431.161 193.629 430.901V430.901Z" fill="#263238"/>
<path d="M197.111 470.486C197.626 468.379 198.538 466.566 199.726 465.286C200.914 464.006 202.322 463.321 203.763 463.319C202.478 464.033 201.241 464.945 200.071 466.044C198.995 467.371 198.003 468.859 197.111 470.486V470.486Z" fill="#263238"/>
<path d="M90.9992 749.072C90.9992 747.336 140.119 638.005 140.119 638.005L167.251 654.284L105.358 765.767L90.9992 749.072V749.072Z" fill="#455A64"/>
<path d="M90.9992 749.072L90.5557 749.957L82.1288 767.172L71.6951 778.366L85.6659 820.484H101.067C101.067 820.484 99.9582 814.705 92.5515 811.703L92.0636 788.622L105.369 765.784" fill="#FFC100"/>
<path opacity="0.6" d="M71.6951 778.366L85.6659 820.484L101.067 820.502L99.3373 816.892L86.819 815.781L73.9127 775.988L71.6951 778.366Z" fill="white"/>
<path d="M92.4518 801.134C92.3409 801.377 91.4538 800.596 90.2342 800.648C89.0145 800.7 88.1718 801.464 88.0166 801.221C87.8614 800.978 88.7373 799.607 90.2342 799.59C91.731 799.572 92.607 800.943 92.4518 801.134Z" fill="#263238"/>
<path d="M92.2078 795.407C92.0526 795.564 91.3651 794.141 90.1455 793.776C88.9258 793.412 87.9279 794.279 87.8281 794.019C87.7283 793.759 87.9611 793.516 88.3936 793.151C88.9708 792.669 89.6385 792.521 90.2785 792.735C90.915 792.936 91.4893 793.468 91.9084 794.245C92.2189 794.852 92.2854 795.338 92.2078 795.407V795.407Z" fill="#263238"/>
<path d="M92.3076 788.032C92.1413 788.171 91.6202 786.782 90.5446 786.192C89.4691 785.602 88.5155 786.192 88.4379 785.897C88.3603 785.602 88.5821 785.429 89.0145 785.186C89.5845 784.885 90.2027 784.892 90.7698 785.207C91.3368 785.521 91.8199 786.125 92.1413 786.921C92.3741 787.529 92.3852 787.98 92.3076 788.032V788.032Z" fill="#263238"/>
<path d="M96.4323 782.322C96.2549 782.427 95.8225 781.056 94.8578 780.101C93.8932 779.147 92.9507 778.973 92.9397 778.678C92.9286 778.383 94.0484 777.984 95.2348 779.216C96.4212 780.448 96.6208 782.305 96.4323 782.322V782.322Z" fill="#263238"/>
<path d="M98.4392 777.394C98.3616 777.394 97.8626 776.509 97.0976 774.877C96.6762 773.923 96.2438 772.951 95.8003 771.979C95.5049 771.389 95.2659 770.734 95.0906 770.036C95.0425 769.793 95.0255 769.537 95.0408 769.284C95.056 769.031 95.1031 768.785 95.1794 768.561C95.2701 768.306 95.407 768.099 95.5728 767.967C95.7386 767.834 95.9258 767.781 96.1107 767.814C96.6532 767.974 97.1542 768.378 97.5522 768.977C97.9126 769.485 98.2261 770.069 98.4836 770.713C98.9095 771.765 99.1855 772.949 99.293 774.183C99.4489 775.313 99.3219 776.493 98.9382 777.481C98.9354 776.419 98.8947 775.359 98.8162 774.305C98.664 773.213 98.3737 772.181 97.9624 771.268C97.7235 770.737 97.4401 770.258 97.1198 769.845C96.8077 769.392 96.4255 769.075 96.011 768.925C95.954 768.913 95.8961 768.929 95.8448 768.969C95.7934 769.009 95.7509 769.072 95.7227 769.151C95.6708 769.369 95.6708 769.609 95.7227 769.828C95.8794 770.44 96.0803 771.022 96.3214 771.563L97.4967 774.582C97.903 775.437 98.221 776.385 98.4392 777.394V777.394Z" fill="#263238"/>
<path d="M98.9936 778.105C98.916 778.105 98.9936 776.838 99.8141 775.381C100.383 774.42 101.137 773.775 101.961 773.543C102.785 773.312 103.635 773.506 104.382 774.097C104.457 774.208 104.516 774.343 104.556 774.492C104.596 774.642 104.616 774.802 104.615 774.964C104.603 775.243 104.537 775.509 104.427 775.728C104.269 776.02 104.086 776.277 103.883 776.491C103.534 776.863 103.162 777.182 102.775 777.446C102.136 777.906 101.455 778.205 100.757 778.331C100.118 778.559 99.45 778.462 98.8495 778.053C98.8495 777.88 99.5813 777.966 100.679 777.602C101.314 777.382 101.928 777.038 102.508 776.578C102.848 776.304 103.174 775.991 103.484 775.641C103.63 775.487 103.764 775.307 103.883 775.103C103.95 774.895 103.883 774.947 103.883 774.877C103.748 774.745 103.597 774.656 103.44 774.617C103.253 774.554 103.064 774.508 102.874 774.478C102.503 774.446 102.13 774.487 101.766 774.6C101.151 774.82 100.58 775.273 100.102 775.919C99.3263 777.064 99.0934 778.209 98.9936 778.105V778.105Z" fill="#263238"/>
<path opacity="0.6" d="M83.9694 777.654C83.9694 778.221 83.8621 778.774 83.6611 779.245C83.4601 779.716 83.1743 780.083 82.8401 780.3C82.5058 780.516 82.1379 780.573 81.783 780.463C81.4281 780.352 81.1021 780.079 80.8463 779.679C80.5904 779.279 80.4162 778.768 80.3456 778.213C80.275 777.657 80.3112 777.082 80.4497 776.558C80.5882 776.035 80.8227 775.588 81.1235 775.273C81.4244 774.959 81.7781 774.791 82.1399 774.791C82.6251 774.791 83.0905 775.092 83.4336 775.629C83.7767 776.166 83.9694 776.895 83.9694 777.654V777.654Z" fill="white"/>
<path d="M99.5148 748.829C99.1106 747.279 98.889 745.626 98.8606 743.953C98.6479 742.307 98.6216 740.615 98.783 738.955C99.4083 742.149 99.6563 745.495 99.5148 748.829V748.829Z" fill="#FAFAFA"/>
<path d="M114.273 736.403C113.17 737.58 111.964 738.498 110.691 739.128C109.491 740.052 108.209 740.69 106.888 741.02C107.997 739.85 109.207 738.932 110.481 738.295C111.678 737.374 112.956 736.737 114.273 736.403V736.403Z" fill="#FAFAFA"/>
<path d="M107.687 756.656C106.917 754.29 106.514 751.674 106.511 749.02C106.966 750.147 107.261 751.413 107.376 752.734C107.663 753.989 107.769 755.329 107.687 756.656V756.656Z" fill="#FAFAFA"/>
<path d="M108.784 728.16C108.269 727.016 107.987 725.655 107.975 724.256C107.78 722.885 107.861 721.455 108.208 720.16C108.425 721.464 108.54 722.804 108.551 724.151C108.74 725.466 108.818 726.814 108.784 728.16V728.16Z" fill="#FAFAFA"/>
<path d="M120.327 713.635C119.282 715.048 118.17 716.336 117 717.487C115.957 718.883 114.844 720.148 113.674 721.271C114.476 719.472 115.498 717.939 116.679 716.759C117.746 715.338 118.987 714.275 120.327 713.635V713.635Z" fill="#FAFAFA"/>
<path d="M119.972 732.065C119.497 730.647 119.253 729.067 119.262 727.466C119.096 725.892 119.176 724.278 119.495 722.763C119.795 725.842 119.954 728.95 119.972 732.065V732.065Z" fill="#FAFAFA"/>
<path d="M119.606 700.567C118.773 701.636 117.828 702.47 116.812 703.031C115.874 703.861 114.849 704.419 113.785 704.68C114.615 703.605 115.561 702.77 116.579 702.216C117.514 701.377 118.541 700.818 119.606 700.567Z" fill="#FAFAFA"/>
<path d="M127.822 710.841C126.917 707.266 126.385 703.487 126.248 699.647C126.802 701.377 127.176 703.234 127.357 705.149C127.696 706.998 127.853 708.917 127.822 710.841Z" fill="#FAFAFA"/>
<path d="M133.156 706.554C133 706.554 133.155 704.94 133.377 703.084C133.599 701.227 134.009 699.786 134.164 699.856C134.32 699.925 134.22 701.452 133.943 703.327C133.666 705.201 133.311 706.606 133.156 706.554Z" fill="#FAFAFA"/>
<path d="M179.248 645.832L217.59 776.578H237.426L210.716 641.702L179.248 645.832Z" fill="#455A64"/>
<path d="M217.18 774.929L228.767 821.595L265.967 799.347C264.392 793.915 242.416 794.262 242.416 794.262L235.763 763.892L217.18 774.929V774.929Z" fill="#FFC100"/>
<g opacity="0.6">
<path opacity="0.6" d="M230.297 798.635C229.981 799.018 229.766 799.57 229.695 800.185C229.623 800.8 229.699 801.435 229.909 801.967C230.143 802.477 230.494 802.826 230.888 802.942C231.282 803.058 231.69 802.933 232.027 802.592C232.349 802.186 232.567 801.611 232.64 800.973C232.714 800.336 232.637 799.678 232.426 799.121C232.147 798.644 231.763 798.35 231.352 798.298C230.94 798.247 230.531 798.442 230.208 798.844" fill="white"/>
</g>
<path opacity="0.6" d="M228.767 821.595L227.713 816.822L263.782 797.299C263.782 797.299 265.712 797.438 266 799.381L228.767 821.595Z" fill="white"/>
<path d="M242.948 793.62C243.015 793.898 242.139 794.574 241.462 796.015C240.786 797.455 240.609 798.948 240.42 798.93C240.232 798.913 240.087 797.195 240.919 795.459C241.751 793.724 242.926 793.325 242.948 793.62Z" fill="#263238"/>
<path d="M247.472 793.828C247.583 794.071 246.907 795.026 246.585 796.587C246.263 798.149 246.396 799.538 246.208 799.642C246.02 799.746 245.521 798.201 245.942 796.258C246.363 794.314 247.394 793.533 247.472 793.828Z" fill="#263238"/>
<path d="M251.475 799.781C251.32 799.937 250.721 798.67 250.81 796.83C250.898 794.991 251.586 793.88 251.73 794.071C251.874 794.262 251.541 795.407 251.486 796.917C251.431 798.427 251.641 799.642 251.475 799.781V799.781Z" fill="#263238"/>
<path d="M240.941 786.887C240.941 787.182 239.999 787.286 239.001 788.015C238.003 788.743 237.327 789.75 237.171 789.542C237.016 789.333 237.537 787.806 238.724 787.043C239.91 786.279 240.975 786.678 240.941 786.887Z" fill="#263238"/>
<path d="M238.369 780.587C237.82 781.201 237.178 781.578 236.506 781.68C235.776 781.901 235.031 781.976 234.289 781.906C233.857 781.873 233.427 781.792 233.002 781.663C232.749 781.605 232.502 781.488 232.27 781.316C232.103 781.181 231.969 780.963 231.888 780.696C231.808 780.43 231.787 780.129 231.827 779.841C231.868 779.59 231.946 779.358 232.056 779.165C232.166 778.971 232.304 778.822 232.459 778.73C232.693 778.58 232.939 778.486 233.191 778.452C233.63 778.393 234.071 778.393 234.51 778.452C235.244 778.524 235.966 778.776 236.65 779.199C237.826 779.928 238.38 780.813 238.325 780.934C238.269 781.056 237.637 780.448 236.506 779.927C235.844 779.646 235.163 779.488 234.477 779.459C234.08 779.458 233.684 779.498 233.291 779.58C232.847 779.58 232.514 779.858 232.481 780.188C232.448 780.518 232.481 780.361 232.603 780.5C232.773 780.616 232.952 780.697 233.135 780.743C233.53 780.88 233.93 780.978 234.333 781.038C235.022 781.143 235.717 781.143 236.406 781.038C237.052 780.808 237.708 780.657 238.369 780.587V780.587Z" fill="#263238"/>
<path d="M238.236 781.125C238.236 781.212 237.57 780.413 237.049 778.609C236.762 777.543 236.586 776.412 236.528 775.259C236.479 774.579 236.479 773.892 236.528 773.211C236.535 772.766 236.615 772.33 236.76 771.947C236.906 771.564 237.113 771.246 237.36 771.025C237.527 770.933 237.707 770.918 237.88 770.979C238.052 771.04 238.21 771.177 238.336 771.372C238.509 771.659 238.658 771.979 238.779 772.326C239.008 772.935 239.173 773.597 239.267 774.287C239.431 775.435 239.408 776.628 239.2 777.758C238.846 779.702 238.169 780.5 238.092 780.413C238.322 779.493 238.522 778.555 238.69 777.602C238.813 776.576 238.787 775.52 238.613 774.513C238.528 773.9 238.378 773.313 238.169 772.778C237.959 772.188 237.692 771.771 237.559 771.927C237.426 772.083 237.171 772.691 237.138 773.281C237.074 773.894 237.048 774.516 237.06 775.138C237.079 776.195 237.198 777.242 237.415 778.244C237.859 780.084 238.324 781.021 238.236 781.125Z" fill="#263238"/>
<path d="M210.993 731.891C210.056 731.643 209.17 731.048 208.409 730.156C207.079 728.906 206.136 727.57 206.192 727.379C207.076 727.832 207.907 728.506 208.653 729.375C210.006 730.642 211.059 731.648 210.993 731.891V731.891Z" fill="#FAFAFA"/>
<path d="M215.395 727.605C215.231 726.265 215.332 724.879 215.683 723.631C216.115 721.513 216.792 720.021 216.936 720.16C216.814 721.459 216.579 722.726 216.237 723.926C216.07 725.209 215.787 726.448 215.395 727.605V727.605Z" fill="#FAFAFA"/>
<path d="M223.955 727.605C223.222 726.534 222.631 725.249 222.214 723.822C221.633 722.547 221.215 721.11 220.983 719.587C221.71 720.662 222.297 721.947 222.713 723.37C223.29 724.65 223.711 726.085 223.955 727.605Z" fill="#FAFAFA"/>
<path d="M220.484 740.256C220.235 738.951 220.175 737.576 220.307 736.23C220.25 734.877 220.382 733.52 220.695 732.256C220.951 733.558 221.015 734.935 220.883 736.282C220.933 737.636 220.797 738.991 220.484 740.256V740.256Z" fill="#FAFAFA"/>
<path d="M215.86 740.846C214.974 740.876 214.095 740.572 213.299 739.961C211.946 739.18 210.937 738.226 211.004 737.983C211.872 738.128 212.718 738.516 213.499 739.128C214.347 739.465 215.148 740.048 215.86 740.846V740.846Z" fill="#FAFAFA"/>
<path d="M219.863 745.948C219.974 746.122 219.131 747.684 217.978 749.419C216.825 751.154 215.816 752.456 215.705 752.265C215.594 752.074 216.426 750.53 217.579 748.794C218.216 747.625 218.992 746.658 219.863 745.948V745.948Z" fill="#FAFAFA"/>
<path d="M225.662 746.035C225.555 744.667 225.678 743.28 226.017 742.009C226.427 739.874 227.004 738.26 227.126 738.364C227.074 739.713 226.879 741.038 226.549 742.286C226.391 743.606 226.092 744.873 225.662 746.035Z" fill="#FAFAFA"/>
<path d="M223.589 760.578C223.478 760.751 222.557 759.554 221.537 757.905C220.517 756.257 219.785 754.781 219.907 754.608C220.029 754.434 220.939 755.632 221.959 757.28C222.979 758.929 223.711 760.404 223.589 760.578Z" fill="#FAFAFA"/>
<path d="M228.345 762.799C228.197 761.077 228.307 759.324 228.667 757.68C228.848 755.966 229.285 754.343 229.942 752.942C229.822 754.632 229.584 756.296 229.232 757.905C229.055 759.584 228.758 761.225 228.345 762.799Z" fill="#FAFAFA"/>
<path d="M220.007 768.231C219.896 768.404 219.031 767.224 218.1 765.61C217.169 763.996 216.492 762.556 216.603 762.382C216.714 762.209 217.579 763.389 218.521 765.003C219.464 766.617 220.118 768.057 220.007 768.231Z" fill="#FAFAFA"/>
<path d="M185.967 478.677C186.555 466.807 187.675 453.462 191.389 444.698C194.516 437.34 194.782 431.821 194.516 428.437C195.303 415.595 188.717 407.612 187.786 394.579C186.755 375.767 186.799 365.355 181.565 363.238L153.313 361.398C153.313 361.398 129.918 360.097 136.626 416.116L147.415 469.306L151.672 473.61C145.785 480.448 132.59 499.849 128.565 540.094C123.332 592.399 106.389 707.353 106.389 707.353C106.389 707.353 131.138 689.339 153.114 707.353C175.09 725.366 199.328 732.724 213.909 722.086C228.49 711.448 228.523 707.353 228.523 707.353L185.967 478.677V478.677Z" fill="#263238"/>
<path d="M144.521 488.153C144.521 488.153 144.465 488.326 144.332 488.621L143.7 489.888C143.124 490.981 142.358 492.682 141.405 494.903C138.833 501.307 136.893 508.281 135.65 515.59C133.852 526.458 132.972 537.648 133.034 548.875C132.934 561.543 133.643 575.479 133.632 590.16C133.654 597.316 133.362 604.465 132.756 611.558C132.158 618.161 131.28 624.695 130.129 631.116C128.131 641.945 125.629 652.53 122.644 662.787C120.138 671.568 117.921 678.527 116.391 683.335L114.594 688.853L114.106 690.276C114.056 690.444 113.992 690.601 113.918 690.745C113.944 690.561 113.989 690.385 114.051 690.224L114.472 688.749C114.872 687.395 115.437 685.539 116.147 683.161C117.61 678.302 119.761 671.291 122.212 662.492C125.118 652.226 127.563 641.654 129.53 630.856C131.875 617.606 133.028 603.909 132.956 590.16C132.956 575.531 132.28 561.595 132.413 548.857C132.38 537.561 133.313 526.309 135.185 515.399C136.478 508.042 138.502 501.05 141.183 494.678C142.17 492.353 143.287 490.169 144.521 488.153V488.153Z" fill="#263238"/>
<path d="M176.676 581.778C176.738 582.129 176.775 582.49 176.787 582.854C176.842 583.652 176.908 584.589 176.997 585.926C177.086 587.262 177.186 588.893 177.219 590.802C177.252 592.711 177.363 594.88 177.341 597.293C177.319 599.705 177.341 602.325 177.219 605.154C177.097 607.983 176.964 610.985 176.775 614.144C176.269 620.999 175.488 627.798 174.436 634.5C173.343 641.19 171.977 647.764 170.344 654.179C169.557 657.112 168.836 659.906 168.027 662.44C167.218 664.974 166.486 667.334 165.809 669.382C165.133 671.429 164.357 673.373 163.747 675.004C163.137 676.636 162.461 678.111 162.017 679.291L160.909 681.842C160.785 682.151 160.644 682.441 160.487 682.71C160.578 682.373 160.685 682.048 160.809 681.738L161.829 679.1C162.284 677.972 162.827 676.566 163.414 674.9C164.002 673.234 164.712 671.429 165.388 669.226C166.064 667.022 166.863 664.765 167.606 662.197C168.349 659.629 169.091 656.869 169.823 653.937C173.052 641.159 175.2 627.775 176.21 614.126C176.41 610.985 176.642 608 176.709 605.171C176.775 602.343 176.875 599.757 176.897 597.362C176.92 594.967 176.897 592.798 176.897 590.889C176.897 588.98 176.831 587.418 176.775 586.013C176.72 584.607 176.698 583.739 176.676 582.923C176.643 582.543 176.643 582.158 176.676 581.778V581.778Z" fill="#455A64"/>
<path d="M189.626 604.512C189.173 605.929 188.654 607.292 188.074 608.59C187.087 611.072 185.757 614.525 184.404 618.447C183.051 622.37 181.976 626.031 181.211 628.686C180.844 630.165 180.407 631.598 179.902 632.973C180.104 631.414 180.417 629.895 180.834 628.443C181.719 624.877 182.745 621.4 183.905 618.031C185.056 614.659 186.333 611.397 187.73 608.261C188.266 606.898 188.902 605.64 189.626 604.512V604.512Z" fill="#455A64"/>
<path d="M176.764 483.328C171.517 488.045 167.204 494.94 164.302 503.251C164.541 501.89 164.916 500.596 165.41 499.416C166.471 496.46 167.776 493.735 169.291 491.311C170.804 488.891 172.515 486.796 174.38 485.081C175.112 484.306 175.916 483.715 176.764 483.328V483.328Z" fill="#455A64"/>
<path d="M148.047 343.836C143.246 341.198 137.99 344.929 133.854 349.563C129.718 354.196 125.882 359.975 120.981 362.11C114.971 364.748 108.618 361.433 102.797 357.875C96.9757 354.318 90.8884 350.396 84.7124 351.836C77.9044 353.433 71.7174 361.433 64.9094 359.819V399.109C70.4533 396.61 75.9973 388.696 81.7408 387.707C87.471 386.41 93.3172 387.345 98.7608 390.432C102.409 392.67 105.702 396.176 109.361 398.345C112.786 400.327 116.447 401.111 120.086 400.644C123.725 400.176 127.255 398.467 130.428 395.638C133.078 393.243 136.438 385.781 139.187 383.698C141.937 381.616 147.326 379.62 149.987 381.963" fill="#455A64"/>
<path d="M66.4062 376.739C65.6814 376.46 64.9337 376.355 64.1886 376.427C63.3902 376.562 62.6026 376.823 61.838 377.208C60.8709 377.703 59.8697 378.018 58.8553 378.145C56.9764 378.29 55.1144 377.526 53.5221 375.958C52.8395 375.388 52.2628 374.551 51.8478 373.529C51.9143 373.407 52.5241 374.379 53.7327 375.403C55.2918 376.725 57.0506 377.36 58.8221 377.243C59.7986 377.119 60.7646 376.84 61.7049 376.41C62.5062 376.046 63.3328 375.836 64.1665 375.785C64.5616 375.703 64.9632 375.745 65.3479 375.908C65.7325 376.072 66.0923 376.355 66.4062 376.739V376.739Z" fill="#455A64"/>
<path d="M66.4062 392.809C65.6814 392.53 64.9337 392.424 64.1886 392.497C63.3902 392.631 62.6026 392.893 61.838 393.278C60.8709 393.773 59.8697 394.088 58.8553 394.215C56.9764 394.36 55.1144 393.596 53.5221 392.028C52.8395 391.458 52.2628 390.621 51.8478 389.599C51.9143 389.477 52.5241 390.449 53.7327 391.473C55.2918 392.794 57.0506 393.43 58.8221 393.312C59.7986 393.189 60.7646 392.91 61.7049 392.479C62.5062 392.116 63.3328 391.906 64.1665 391.855C64.5616 391.772 64.9632 391.814 65.3479 391.978C65.7325 392.142 66.0923 392.425 66.4062 392.809V392.809Z" fill="#455A64"/>
<path d="M64.8871 398.727C64.2246 398.802 63.5678 398.971 62.9246 399.23C62.3258 399.473 61.6162 399.803 60.8179 400.167C59.9276 400.592 58.9981 400.78 58.0681 400.723C56.382 400.627 54.7464 399.797 53.3446 398.328C52.2358 397.183 51.8145 396.159 51.8699 396.089C51.9254 396.02 52.4909 396.835 53.5553 397.825C54.9426 399.055 56.4971 399.751 58.0903 399.855C59.6961 399.728 61.2878 399.321 62.8359 398.64C63.3352 398.479 63.8464 398.427 64.3549 398.484C64.7319 398.501 64.8871 398.675 64.8871 398.727V398.727Z" fill="#455A64"/>
<path d="M66.4062 361.173C65.6803 360.904 64.9336 360.799 64.1886 360.86C63.3911 361.003 62.604 361.265 61.838 361.641C60.8723 362.145 59.8704 362.46 58.8553 362.578C56.9764 362.723 55.1144 361.96 53.522 360.392C52.3135 359.16 51.7923 358.032 51.8478 357.962C51.9032 357.893 52.5241 358.812 53.7327 359.836C55.29 361.165 57.0501 361.802 58.8221 361.676C59.7986 361.552 60.7646 361.273 61.7049 360.843C62.5062 360.479 63.3328 360.269 64.1665 360.218C64.9642 360.064 65.7687 360.406 66.4062 361.173Z" fill="#455A64"/>
<path d="M66.4062 368.652C65.6792 368.395 64.9334 368.29 64.1886 368.34C63.3899 368.481 62.6023 368.749 61.838 369.138C60.8695 369.625 59.8689 369.94 58.8553 370.075C56.9751 370.216 55.1129 369.446 53.5221 367.871C52.8394 367.309 52.2623 366.477 51.8478 365.459C51.9143 365.338 52.5241 366.292 53.7327 367.333C55.2918 368.655 57.0506 369.291 58.8221 369.173C59.799 369.044 60.765 368.759 61.7049 368.323C62.5077 367.972 63.3337 367.768 64.1665 367.715C64.5608 367.633 64.9616 367.674 65.3459 367.835C65.7303 367.996 66.0906 368.273 66.4062 368.652V368.652Z" fill="#455A64"/>
<path d="M66.4062 384.844C65.6792 384.586 64.9334 384.481 64.1886 384.531C63.3899 384.673 62.6023 384.94 61.838 385.33C60.8695 385.817 59.8689 386.131 58.8553 386.267C56.9751 386.407 55.1129 385.638 53.522 384.063C52.3135 382.848 51.7923 381.703 51.8478 381.633C51.9032 381.564 52.5241 382.484 53.7327 383.507C55.2887 384.843 57.049 385.486 58.8221 385.364C59.799 385.235 60.765 384.95 61.7049 384.514C62.5066 384.155 63.3332 383.951 64.1665 383.907C64.5608 383.825 64.9616 383.865 65.3459 384.026C65.7303 384.187 66.0906 384.465 66.4062 384.844V384.844Z" fill="#455A64"/>
<path d="M75.6868 391.369C75.587 391.369 75.7755 389.46 75.4983 386.458C75.0243 382.564 74.3114 378.752 73.3695 375.073C72.4109 371.304 71.9325 367.277 71.9613 363.22C72.0018 361.992 72.1472 360.778 72.3937 359.611C72.4642 359.169 72.5926 358.756 72.7707 358.396C72.5544 359.996 72.4209 361.621 72.3716 363.255C72.4655 367.205 72.9866 371.101 73.9128 374.778C74.8734 378.508 75.5399 382.406 75.8975 386.388C75.9835 387.605 75.9835 388.833 75.8975 390.05C75.8813 390.506 75.8098 390.954 75.6868 391.369V391.369Z" fill="#FAFAFA"/>
<path d="M90.6888 352.079C90.8358 352.497 90.9405 352.948 90.9993 353.415C91.1656 354.283 91.3652 355.567 91.5647 357.181C92.572 365.586 92.3903 374.235 91.0325 382.518C90.8329 383.769 90.5923 385.003 90.3118 386.215C90.2324 386.675 90.109 387.114 89.9459 387.516C90.1171 385.763 90.3466 384.026 90.6334 382.31C91.1867 378.191 91.5132 374.004 91.6091 369.798C91.6845 365.597 91.5324 361.394 91.1545 357.233C90.936 355.531 90.7805 353.81 90.6888 352.079V352.079Z" fill="#FAFAFA"/>
<path d="M113.674 400.532C113.445 400.144 113.255 399.706 113.109 399.23C112.643 398.009 112.232 396.739 111.878 395.43C109.438 386.747 108.668 377.141 109.66 367.785C109.805 366.383 110.009 364.997 110.27 363.637C110.341 363.123 110.456 362.626 110.614 362.162C110.714 362.162 110.359 364.348 110.059 367.889C109.702 372.5 109.702 377.161 110.059 381.772C110.44 386.381 111.185 390.899 112.277 395.221C113.109 398.501 113.785 400.445 113.674 400.532V400.532Z" fill="#FAFAFA"/>
<path d="M131.271 352.044C130.836 353.958 130.644 355.986 130.705 358.014C130.819 360.208 131.094 362.375 131.526 364.47C132.064 367.084 132.508 369.743 132.856 372.435C133.465 377.343 133.663 382.355 133.444 387.343C133.355 389.252 133.211 390.813 133.1 391.837C133.059 392.39 132.973 392.932 132.845 393.451C132.745 393.451 132.956 391.091 133.034 387.308C133.134 382.375 132.885 377.439 132.291 372.592C131.947 369.763 131.459 367.125 131.016 364.695C130.596 362.531 130.354 360.292 130.295 358.031C130.268 356.495 130.426 354.965 130.761 353.519C130.855 352.972 131.03 352.467 131.271 352.044V352.044Z" fill="#FAFAFA"/>
<path d="M145.042 357.303C144.898 362.37 142.159 366.466 139.176 368.444C136.194 370.422 132.889 370.891 129.74 372.158C123.133 374.89 117.353 381.182 113.419 389.928C112.572 392.178 111.539 394.243 110.348 396.072C109.738 396.965 108.983 397.579 108.166 397.845C107.348 398.112 106.5 398.02 105.713 397.581C107.775 404.754 111.117 410.841 115.337 415.109C116.575 412.712 118.301 411.052 120.227 410.406C119.739 413.374 119.285 416.758 120.338 419.344C121.013 420.713 121.882 421.819 122.877 422.571C124.488 424.029 126.107 425.446 127.734 426.823C128.515 427.634 129.424 428.091 130.361 428.142C132.424 427.969 133.488 424.359 134.797 421.843C136.686 418.683 139.139 416.488 141.837 415.543C144.518 414.6 147.139 413.276 149.665 411.586C152.116 409.66 154.311 406.259 154.677 401.989" fill="#263238"/>
<path d="M145.275 363.203C145.275 363.203 145.186 363.429 144.997 363.811C144.705 364.352 144.378 364.847 144.022 365.286C142.688 366.885 141.142 367.994 139.498 368.531C137.084 369.302 134.618 369.594 132.158 369.399C129.199 369.094 126.229 369.617 123.387 370.943C120.438 372.678 118.309 376.149 116.402 379.256C114.783 382.187 112.918 384.761 110.858 386.909C109.454 388.36 107.843 389.242 106.167 389.477C105.714 389.556 105.257 389.556 104.804 389.477C104.504 389.39 104.338 389.338 104.349 389.304C104.36 389.269 104.992 389.408 106.145 389.2C107.738 388.818 109.255 387.874 110.58 386.44C112.564 384.238 114.363 381.655 115.936 378.752C117.81 375.663 119.983 371.984 123.099 370.162C126.004 368.802 129.044 368.284 132.069 368.635C134.494 368.867 136.929 368.646 139.32 367.976C140.912 367.508 142.424 366.52 143.756 365.077C144.82 363.949 145.23 363.151 145.275 363.203V363.203Z" fill="#263238"/>
<path d="M182.297 477.983C179.897 477.434 177.628 475.926 175.709 473.603C173.79 471.281 172.286 468.223 171.342 464.725L115.714 261.317C115.578 260.822 115.572 260.263 115.699 259.762C115.826 259.26 116.075 258.859 116.391 258.644C116.707 258.43 117.064 258.422 117.384 258.62C117.705 258.819 117.961 259.208 118.098 259.703L173.737 463.18C174.325 465.415 175.193 467.444 176.289 469.146C177.385 470.849 178.688 472.191 180.121 473.093C181.553 473.995 183.087 474.44 184.631 474.4C186.175 474.361 187.698 473.838 189.112 472.863C190.525 471.888 191.799 470.481 192.859 468.723C193.919 466.966 194.744 464.894 195.285 462.63C195.826 460.366 196.072 457.956 196.008 455.541C195.945 453.126 195.573 450.755 194.915 448.568L193.197 442.65C193.124 442.407 193.082 442.145 193.074 441.877C193.066 441.609 193.092 441.341 193.151 441.089C193.209 440.837 193.298 440.605 193.413 440.407C193.529 440.209 193.668 440.048 193.823 439.934C193.978 439.82 194.146 439.755 194.317 439.743C194.488 439.731 194.659 439.771 194.821 439.862C194.982 439.953 195.13 440.093 195.256 440.274C195.383 440.454 195.486 440.672 195.558 440.915L197.277 446.833C198.072 449.566 198.503 452.524 198.545 455.526C198.586 458.528 198.238 461.512 197.52 464.297C196.803 467.082 195.731 469.61 194.37 471.727C193.009 473.844 191.388 475.506 189.604 476.612C187.287 478.059 184.768 478.531 182.297 477.983V477.983Z" fill="#E0E0E0"/>
<path d="M207.179 225.22C198.939 224.825 190.769 227.684 183.423 233.535C176.076 239.386 169.79 248.039 165.144 258.697C165.144 258.697 137.236 248.614 125.228 282.801C125.228 282.801 93.0727 269.543 81.6632 315.132C81.6632 315.132 55.6288 307.67 50.617 344.634C50.617 344.634 32.8763 341.684 29.0621 369.503C29.0621 369.503 24.8819 251.633 85.1226 203.962C148.79 153.565 207.179 225.22 207.179 225.22V225.22Z" fill="#FFC100"/>
<path d="M84.3132 204.604C84.0509 204.95 83.7688 205.258 83.4705 205.524C82.9161 206.114 82.0623 206.912 81.0533 208.127C78.1426 211.425 75.4296 215.131 72.9481 219.199C69.2625 225.211 65.9611 231.774 63.0909 238.791C61.4201 242.957 59.9022 247.267 58.5449 251.703C57.1238 256.483 55.9377 261.426 54.9967 266.489C51.2823 287.47 50.4729 307.288 50.0959 321.501C49.9295 328.634 49.8741 334.413 49.8408 338.404C49.8408 340.313 49.8408 341.875 49.7854 343.003C49.7916 343.537 49.7693 344.071 49.7189 344.599C49.6684 344.071 49.6462 343.537 49.6523 343.003C49.6523 341.84 49.6523 340.313 49.5747 338.404C49.5747 334.413 49.5082 328.634 49.5747 321.484C49.8298 307.236 50.5616 287.314 54.2982 266.194C55.2527 261.076 56.4574 256.08 57.9018 251.252C59.2782 246.786 60.8221 242.451 62.5254 238.271C65.4369 231.219 68.7991 224.648 72.56 218.661C75.092 214.62 77.8697 210.976 80.8538 207.78C81.6589 206.896 82.4955 206.085 83.3596 205.35C83.6603 205.051 83.9799 204.801 84.3132 204.604V204.604Z" fill="#263238"/>
<path d="M84.3132 204.604C84.3132 204.604 83.5703 205.732 82.4726 208.075C80.9612 211.384 79.8351 215.085 79.1462 219.008C78.1551 224.812 77.5531 230.762 77.35 236.761C76.9951 243.564 76.7401 251.078 76.6958 258.957C76.6246 272.448 77.296 285.925 78.7027 299.236C79.246 304.338 79.8115 308.433 80.1774 311.262C80.3548 312.581 80.4989 313.657 80.6209 314.525C80.6827 314.9 80.7199 315.283 80.7318 315.67C80.6182 315.325 80.5361 314.957 80.4878 314.577C80.3326 313.726 80.1441 312.651 79.9113 311.349C79.4567 308.555 78.8025 304.407 78.2259 299.375C76.6721 286.071 75.9296 272.567 76.0083 259.044C76.0083 251.113 76.3299 243.581 76.7179 236.761C76.953 230.677 77.6186 224.653 78.7027 218.799C79.4383 214.829 80.6417 211.11 82.2508 207.832C82.6903 206.948 83.1802 206.129 83.7144 205.385C84.0914 204.829 84.291 204.569 84.3132 204.604Z" fill="#263238"/>
<path d="M86.8634 202.591C87.0721 202.704 87.2698 202.862 87.4511 203.059C87.8281 203.389 88.3825 203.875 89.0588 204.569C91.0158 206.479 92.9003 208.565 94.7026 210.817C97.3806 214.154 99.8665 217.853 102.131 221.871C104.893 226.793 107.431 232.012 109.727 237.49C113.878 247.444 117.64 257.783 120.992 268.45C122.289 272.51 123.321 275.842 124.008 278.133L124.795 280.806C124.902 281.104 124.981 281.426 125.028 281.76C124.884 281.506 124.764 281.219 124.673 280.91L123.775 278.324L120.56 268.797C117.101 258.257 113.296 248.005 109.161 238.08C106.88 232.627 104.376 227.41 101.666 222.461C99.439 218.449 97.0063 214.729 94.3921 211.337C92.1745 208.456 90.2563 206.305 88.9147 204.864C88.2038 204.168 87.5189 203.409 86.8634 202.591V202.591Z" fill="#263238"/>
<path d="M86.8634 202.591C87.1481 202.365 87.4449 202.179 87.7505 202.035C88.3381 201.706 89.1919 201.185 90.3229 200.63C93.5203 199.034 96.7997 197.873 100.125 197.159C105.073 196.065 110.104 196.288 115.005 197.818C120.981 199.844 126.744 203.18 132.124 207.727C144.845 218.535 155.698 234.02 163.747 252.848C164.423 254.375 164.856 255.625 165.222 256.44C165.397 256.856 165.553 257.291 165.688 257.742C165.467 257.381 165.27 256.985 165.1 256.562C164.734 255.781 164.235 254.566 163.536 253.091C162.162 250.089 160.11 245.785 157.349 240.787C150.198 227.684 141.549 216.779 131.847 208.63C126.527 204.123 120.832 200.793 114.927 198.738C110.09 197.186 105.123 196.887 100.224 197.853C96.8996 198.514 93.6118 199.57 90.3894 201.011C89.2806 201.515 88.3825 201.966 87.7837 202.226C87.4858 202.397 87.1774 202.519 86.8634 202.591Z" fill="#263238"/>
<path d="M198.707 225.463C198.707 225.463 198.607 225.463 198.441 225.255L197.687 224.509L194.826 221.593L192.764 219.407L190.181 217.151C188.362 215.415 186.311 213.559 183.916 211.771L180.213 208.838C178.893 207.901 177.507 206.999 176.077 206.027C173.26 203.962 170.089 202.33 166.818 200.404C159.608 196.681 152.218 193.872 144.72 192.005C137.201 190.331 129.602 189.704 122.012 190.13C118.531 190.582 115.204 190.773 112.133 191.64C110.592 192.005 109.095 192.282 107.698 192.699L103.651 194.105C101.322 194.9 99.0197 195.879 96.7538 197.037C95.7559 197.523 94.8134 197.94 93.9597 198.391L91.6645 199.797L88.4712 201.723L87.6396 202.192C87.5445 202.26 87.4437 202.306 87.3402 202.33C87.4204 202.233 87.5103 202.157 87.6063 202.105L88.4157 201.532L91.5647 199.415L93.8488 197.922C94.7026 197.437 95.6339 197.003 96.6429 196.482C98.9038 195.25 101.206 194.213 103.54 193.376L107.609 191.901C109.028 191.467 110.525 191.154 112.044 190.773C115.127 189.87 118.464 189.627 121.968 189.159C129.599 188.649 137.245 189.23 144.809 190.894C152.339 192.779 159.756 195.634 166.985 199.432C170.311 201.393 173.438 203.059 176.265 205.159C177.696 206.166 179.082 207.085 180.401 208.057L184.104 211.06C186.499 212.795 188.54 214.895 190.347 216.595L192.864 218.973L194.893 221.194L197.687 224.283L198.397 225.116C198.511 225.207 198.615 225.324 198.707 225.463V225.463Z" fill="#263238"/>
<path d="M46.2372 270.202C46.0592 271.002 45.821 271.765 45.5276 272.476C45.0287 273.899 44.3412 275.947 43.5207 278.602C39.2443 292.206 36.5629 306.9 35.6039 321.987C35.4154 324.885 35.2934 327.193 35.2491 328.929C35.2487 329.775 35.1892 330.619 35.0717 331.445C34.9643 330.553 34.9233 329.645 34.9497 328.738C34.9497 327.106 34.9497 324.746 35.0939 321.796C35.7926 306.541 38.5073 291.679 43.0661 278.151C43.942 275.582 44.696 273.534 45.2837 272.163C45.5563 271.459 45.8759 270.801 46.2372 270.202V270.202Z" fill="#E0E0E0"/>
<path d="M52.0474 254.271C52.2026 254.445 51.5927 256.007 50.7057 257.742C49.8187 259.478 48.976 260.779 48.8318 260.588C48.6877 260.397 49.2865 258.853 50.1735 257.117C51.0605 255.382 51.9032 254.115 52.0474 254.271Z" fill="#E0E0E0"/>
<path d="M149.632 361.398C142.259 364.869 137.369 376.115 135.218 387.655C133.067 399.196 133 411.448 131.692 423.335C128.366 455.562 116.568 484.161 103.152 509.169C89.7352 534.176 74.3895 556.632 61.838 582.715C49.2864 608.799 39.3849 639.654 39.3073 672.349L136.249 683.525C136.249 683.525 140.806 541.222 149.366 514.809C157.926 488.396 167.218 449.262 167.462 436.021C167.705 422.78 163.182 367.316 163.182 367.316L149.632 361.398Z" fill="#FFC100"/>
<path d="M146.938 365.528C146.938 365.528 131.415 366.691 122.811 399.3C119.839 410.58 114.184 436.975 110.514 456.811C108.119 469.792 110.037 478.4 114.661 483.155C117.123 485.575 120.01 486.716 122.91 486.417L167.473 477.393L163.503 443.275L137.447 448.707L142.248 425.053L146.938 365.528V365.528Z" fill="#FFC100"/>
<path d="M138.433 448.863C136.599 449.905 134.893 451.431 133.388 453.375C132.006 455.541 130.879 458.073 130.062 460.855C130.064 459.914 130.217 458.989 130.505 458.165C131.072 456.089 131.919 454.23 132.989 452.716C134.049 451.163 135.308 449.98 136.681 449.245C137.239 448.908 137.838 448.777 138.433 448.863V448.863Z" fill="#263238"/>
<path d="M163.093 444.889C162.925 444.985 162.75 445.044 162.572 445.062L161.064 445.375L155.52 446.381L136.826 449.47H136.382L136.526 448.811C136.759 447.718 137.003 446.538 137.258 445.34C139.753 433.539 142.048 422.78 143.733 415.144C144.576 411.395 145.264 408.306 145.763 406.033L146.339 403.569C146.397 403.27 146.479 402.985 146.583 402.718C146.569 403.028 146.524 403.333 146.45 403.621C146.328 404.298 146.173 405.131 145.984 406.137L144.077 415.508C142.492 423.266 140.263 433.973 137.757 445.791L137.025 449.262L136.726 448.672L155.442 445.878L161.042 445.149L162.561 444.993C162.733 444.913 162.913 444.878 163.093 444.889V444.889Z" fill="#263238"/>
<path d="M163.093 444.889C163.148 445.083 163.189 445.287 163.215 445.496C163.281 445.982 163.37 446.572 163.481 447.232C163.714 448.967 164.035 451.188 164.423 454.034L167.606 478.122L167.661 478.538H167.384C162.472 479.51 156.873 480.482 150.963 481.419L136.149 483.762L129.685 484.873C127.667 485.237 125.782 485.619 124.041 485.775C121.286 486.225 118.502 485.679 115.903 484.179C115.21 483.713 114.552 483.131 113.94 482.443C113.722 482.213 113.521 481.946 113.341 481.645C114.177 482.498 115.065 483.219 115.991 483.797C118.572 485.134 121.308 485.572 124.008 485.081C125.727 484.89 127.6 484.474 129.63 484.074L136.083 482.877C140.64 482.079 145.652 481.298 150.907 480.465C156.817 479.528 162.405 478.608 167.317 477.671L167.096 478.157C165.887 468.317 164.878 459.987 164.124 454.017C163.78 451.136 163.514 448.811 163.315 447.075C163.237 446.347 163.182 445.757 163.126 445.253C163.071 444.75 163.071 444.889 163.093 444.889V444.889Z" fill="#263238"/>
<path d="M122.666 523.572C121.849 524.6 120.964 525.49 120.027 526.228C117.834 528.241 115.472 529.766 113.009 530.757C110.508 531.728 107.882 531.571 105.436 530.306C104.7 529.914 104.002 529.365 103.362 528.675C102.908 528.189 102.697 527.842 102.719 527.807C103.637 528.536 104.586 529.168 105.558 529.698C107.951 530.732 110.474 530.792 112.887 529.872C115.299 528.885 117.632 527.47 119.839 525.655C120.745 524.845 121.69 524.149 122.666 523.572V523.572Z" fill="#263238"/>
<path d="M141.771 521.056C141.18 520.925 140.577 521.077 140.041 521.49C139.774 521.727 139.543 522.051 139.363 522.44C139.183 522.83 139.059 523.275 138.999 523.746C138.988 524.309 139.077 524.865 139.256 525.354C139.435 525.842 139.698 526.242 140.014 526.511C140.33 526.779 140.688 526.904 141.047 526.873C141.406 526.841 141.753 526.654 142.048 526.332C142.266 525.998 142.436 525.593 142.545 525.147C142.654 524.701 142.7 524.223 142.68 523.746C142.617 522.812 142.369 521.932 141.97 521.23C141.97 521.23 142.181 521.23 142.447 521.629C142.803 522.178 143.03 522.9 143.09 523.677C143.147 524.267 143.115 524.87 142.996 525.436C142.876 526.003 142.673 526.518 142.403 526.939C142.03 527.401 141.579 527.682 141.105 527.746C140.631 527.81 140.156 527.655 139.738 527.3C139.32 526.945 138.978 526.406 138.754 525.75C138.53 525.093 138.434 524.348 138.478 523.607C138.555 523.025 138.719 522.48 138.956 522.016C139.193 521.552 139.496 521.181 139.842 520.935C140.292 520.588 140.804 520.49 141.294 520.657C141.638 520.813 141.782 521.021 141.771 521.056V521.056Z" fill="#263238"/>
<path d="M134.153 576.745C133.562 576.603 132.957 576.755 132.424 577.179C132.157 577.416 131.926 577.74 131.746 578.13C131.566 578.519 131.442 578.964 131.381 579.435C131.37 579.998 131.459 580.555 131.638 581.043C131.818 581.531 132.08 581.932 132.397 582.2C132.713 582.468 133.071 582.594 133.43 582.562C133.789 582.53 134.136 582.343 134.431 582.021C134.649 581.687 134.818 581.283 134.927 580.836C135.036 580.39 135.083 579.912 135.063 579.435C135.002 578.5 134.754 577.619 134.353 576.919C134.353 576.919 134.564 576.919 134.83 577.318C135.186 577.868 135.412 578.589 135.473 579.366C135.53 579.956 135.498 580.559 135.378 581.126C135.259 581.692 135.056 582.207 134.785 582.628C134.413 583.09 133.961 583.371 133.488 583.435C133.014 583.499 132.538 583.344 132.12 582.99C131.702 582.635 131.36 582.096 131.136 581.439C130.912 580.783 130.816 580.038 130.86 579.296C130.938 578.712 131.103 578.166 131.342 577.701C131.581 577.236 131.887 576.867 132.235 576.624C132.685 576.277 133.197 576.179 133.688 576.346C134.02 576.485 134.165 576.711 134.153 576.745V576.745Z" fill="#263238"/>
<path d="M130.007 635.524C129.415 635.372 128.808 635.524 128.277 635.958C128.01 636.189 127.78 636.51 127.602 636.897C127.423 637.284 127.302 637.728 127.246 638.196C127.232 638.759 127.319 639.316 127.496 639.806C127.674 640.295 127.936 640.697 128.252 640.965C128.568 641.234 128.925 641.36 129.284 641.327C129.643 641.295 129.99 641.106 130.284 640.782C130.507 640.453 130.681 640.05 130.792 639.603C130.903 639.156 130.949 638.675 130.927 638.196C130.863 637.268 130.614 636.394 130.217 635.697C130.217 635.697 130.417 635.697 130.683 636.097C131.046 636.638 131.274 637.364 131.326 638.144C131.384 638.733 131.353 639.335 131.235 639.901C131.118 640.468 130.917 640.983 130.65 641.407C130.276 641.866 129.824 642.145 129.35 642.208C128.877 642.271 128.401 642.116 127.983 641.762C127.565 641.408 127.222 640.87 126.996 640.215C126.771 639.56 126.672 638.816 126.713 638.075C126.797 637.492 126.964 636.947 127.202 636.481C127.44 636.015 127.743 635.64 128.088 635.385C128.538 635.034 129.052 634.942 129.541 635.125C129.885 635.264 130.018 635.489 130.007 635.524V635.524Z" fill="#263238"/>
<path d="M136.615 663.308C136.615 663.308 136.548 663.308 136.404 663.533L135.75 664.141C134.887 664.871 133.976 665.453 133.034 665.876C131.524 666.482 129.968 666.757 128.41 666.692C126.355 666.572 124.318 666.053 122.345 665.147C119.959 664.05 117.646 662.597 115.437 660.809C113.042 658.917 110.581 656.679 107.919 654.527C105.186 652.179 102.283 650.355 99.2709 649.095C96.0297 647.863 92.6528 647.792 89.3915 648.886C86.1174 650.02 82.915 651.612 79.8227 653.642C76.7846 655.498 73.8573 657.355 70.9523 658.726C68.2229 660.085 65.3879 660.856 62.5255 661.017C60.0323 661.11 57.5411 660.726 55.1077 659.872C51.5899 658.608 48.2518 656.337 45.2616 653.173C44.4477 652.328 43.6699 651.4 42.9331 650.396L42.3676 649.598C42.2457 649.407 42.1791 649.32 42.1902 649.303L42.412 649.529L43.0107 650.257C43.7729 651.193 44.5648 652.068 45.3836 652.878C48.3923 655.892 51.7183 658.048 55.2074 659.247C57.6069 660.058 60.0611 660.401 62.5144 660.271C65.3304 660.082 68.1169 659.294 70.7971 657.928C73.6578 656.557 76.5628 654.7 79.6009 652.826C82.7279 650.777 85.968 649.18 89.2807 648.053C92.6268 646.937 96.0906 647.014 99.415 648.279C102.464 649.57 105.401 651.434 108.163 653.832C110.836 656.019 113.286 658.275 115.648 660.184C117.823 661.985 120.103 663.461 122.456 664.592C124.393 665.523 126.397 666.071 128.421 666.223C129.952 666.335 131.485 666.119 132.978 665.581C134.235 665.013 135.454 664.251 136.615 663.308Z" fill="#FAFAFA"/>
<path d="M137.38 655.377C137.31 655.46 137.231 655.525 137.147 655.568L136.449 656.071C135.53 656.64 134.574 657.053 133.599 657.303C129.978 658.047 126.296 657.336 122.899 655.238C120.543 653.914 118.265 652.27 116.091 650.327C113.729 648.314 111.268 646.006 108.607 643.837C105.854 641.465 102.902 639.712 99.8363 638.63C96.5342 637.681 93.1464 637.734 89.8571 638.786C83.0381 640.782 76.9841 645.329 71.2072 648.158C68.4778 649.583 65.667 650.594 62.8137 651.177C60.3146 651.666 57.7821 651.543 55.3072 650.813C51.6925 649.858 48.3545 647.179 45.7494 643.142C45.0698 642.022 44.4712 640.788 43.9642 639.463L43.6094 638.387L43.4985 638.023C44.1948 639.769 45.0049 641.397 45.9157 642.882C48.5252 646.765 51.8279 649.313 55.3848 650.188C57.8203 650.858 60.3069 650.939 62.7583 650.431C65.5746 649.825 68.3479 648.802 71.0409 647.377C76.7734 644.513 82.8274 639.932 89.7573 637.884C93.1244 636.812 96.5922 636.771 99.9693 637.763C103.068 638.834 106.055 640.587 108.84 642.969C111.523 645.173 113.973 647.516 116.313 649.563C118.464 651.496 120.711 653.156 123.032 654.527C126.365 656.636 129.979 657.429 133.555 656.835C134.857 656.542 136.138 656.054 137.38 655.377V655.377Z" fill="#FAFAFA"/>
<path d="M166.896 472.499L164.024 450.807L167.439 448.88C169.113 447.075 170.679 445.036 172.118 442.789C172.872 441.644 173.494 440.306 173.959 438.832C174.572 437.044 175.031 435.135 175.323 433.157C175.319 432.747 175.402 432.346 175.558 432.017C175.714 431.687 175.935 431.447 176.187 431.332C176.439 431.218 176.707 431.236 176.952 431.384C177.196 431.532 177.403 431.801 177.54 432.151C178.073 433.626 177.762 438.763 175.744 443.917C174.391 447.388 176.554 447.076 178.749 446.173C179.537 445.863 180.369 446.015 181.09 446.6C181.811 447.185 182.371 448.163 182.663 449.349L184.437 456.586C184.705 457.676 184.827 458.84 184.796 460.007C184.765 461.174 184.582 462.318 184.258 463.37C183.934 464.422 183.476 465.359 182.912 466.123C182.347 466.887 181.689 467.463 180.978 467.814L179.281 468.647L166.53 472.603" fill="#FFBE9D"/>
<path d="M153.835 280.771V286.238L152.848 368.166C152.759 377.676 158.569 385.763 165.044 385.815C171.608 385.815 174.281 378.18 174.469 368.583C174.669 358.517 174.99 347.914 174.99 347.914C174.99 347.914 183.317 346.179 185.335 329.276C186.333 320.894 186.311 307.08 186.056 295.782C185.823 285.613 180.346 272.441 173.859 273.222L153.835 280.771V280.771Z" fill="#FFBE9D"/>
<path d="M183.772 305.726C183.772 306.294 183.631 306.84 183.379 307.248C183.126 307.656 182.782 307.895 182.419 307.913C182.242 307.929 182.065 307.89 181.898 307.797C181.731 307.703 181.578 307.559 181.448 307.371C181.317 307.183 181.212 306.956 181.139 306.703C181.066 306.45 181.026 306.177 181.022 305.9C181.028 305.333 181.175 304.793 181.432 304.394C181.689 303.995 182.035 303.77 182.397 303.765C182.744 303.746 183.083 303.941 183.34 304.307C183.597 304.674 183.752 305.183 183.772 305.726V305.726Z" fill="#263238"/>
<path d="M184.005 302.88C183.827 303.158 182.796 301.891 181.31 301.839C179.825 301.787 178.705 302.897 178.538 302.602C178.372 302.307 178.649 301.978 179.137 301.457C179.794 300.779 180.569 300.439 181.355 300.485C182.129 300.521 182.877 300.933 183.495 301.665C183.949 302.238 184.093 302.707 184.005 302.88V302.88Z" fill="#263238"/>
<path d="M168.947 305.206C168.942 305.772 168.794 306.312 168.538 306.711C168.281 307.11 167.934 307.336 167.572 307.34C167.396 307.354 167.219 307.313 167.053 307.219C166.887 307.125 166.734 306.98 166.604 306.792C166.474 306.605 166.369 306.379 166.295 306.127C166.222 305.876 166.181 305.604 166.175 305.327C166.184 304.762 166.332 304.224 166.588 303.826C166.844 303.429 167.189 303.201 167.55 303.193C167.727 303.176 167.904 303.216 168.071 303.309C168.238 303.402 168.391 303.547 168.522 303.735C168.652 303.923 168.757 304.15 168.83 304.402C168.903 304.655 168.943 304.928 168.947 305.206V305.206Z" fill="#263238"/>
<path d="M169.335 302.707C169.158 302.984 168.127 301.717 166.63 301.665C165.133 301.613 164.024 302.724 163.869 302.429C163.714 302.134 163.969 301.804 164.457 301.266C165.116 300.6 165.89 300.266 166.674 300.312C167.453 300.34 168.206 300.753 168.825 301.492C169.269 302.047 169.413 302.568 169.335 302.707V302.707Z" fill="#263238"/>
<path d="M174.436 320.234C175.233 319.9 176.051 319.708 176.875 319.662C177.252 319.662 177.618 319.505 177.696 319.106C177.727 318.507 177.65 317.905 177.474 317.371C177.13 315.913 176.786 314.369 176.365 312.772C175.385 308.88 174.61 304.87 174.048 300.78C175.218 304.547 176.197 308.452 176.975 312.46C177.33 314.074 177.662 315.601 177.973 317.076C178.198 317.805 178.252 318.633 178.128 319.419C178.069 319.624 177.981 319.806 177.872 319.953C177.763 320.1 177.635 320.208 177.496 320.269C177.282 320.35 177.062 320.385 176.842 320.373C176.039 320.491 175.231 320.445 174.436 320.234V320.234Z" fill="#263238"/>
<path d="M174.979 347.914C169.872 347.837 164.879 345.529 160.565 341.25C160.565 341.25 163.891 353.034 174.724 351.906L174.979 347.914Z" fill="#EB996E"/>
<path d="M173.715 325.84C173.445 325.257 173.084 324.792 172.667 324.488C172.25 324.185 171.79 324.052 171.331 324.104C171 324.136 170.675 324.273 170.378 324.505C170.081 324.738 169.817 325.062 169.602 325.458C169.396 325.839 169.271 326.309 169.241 326.805C169.211 327.302 169.279 327.8 169.435 328.235C169.669 328.665 169.98 328.976 170.328 329.128C170.675 329.279 171.044 329.264 171.387 329.085C172.097 328.713 172.753 328.123 173.316 327.349C173.485 327.16 173.634 326.932 173.759 326.673C173.814 326.544 173.844 326.393 173.844 326.239C173.844 326.084 173.814 325.933 173.759 325.805" fill="#EB996E"/>
<path d="M170.023 321.675C170.267 321.675 170.222 324.191 171.575 326.048C172.928 327.905 174.658 327.783 174.669 328.061C174.68 328.339 174.27 328.53 173.56 328.53C172.61 328.516 171.695 327.975 170.976 327.002C170.287 326.064 169.854 324.747 169.768 323.323C169.712 322.265 169.912 321.64 170.023 321.675V321.675Z" fill="#263238"/>
<path d="M169.801 295.886C169.646 296.529 168.16 296.164 166.408 296.407C164.656 296.65 163.215 297.344 162.993 296.772C162.893 296.494 163.159 295.904 163.736 295.314C164.512 294.594 165.383 294.16 166.282 294.045C167.181 293.931 168.085 294.139 168.925 294.654C169.557 295.088 169.868 295.591 169.801 295.886V295.886Z" fill="#263238"/>
<path d="M184.06 298.16C183.728 298.68 182.486 298.16 180.989 297.986C179.492 297.813 178.206 298.229 177.917 297.657C177.795 297.379 178.006 296.858 178.572 296.39C179.354 295.818 180.214 295.556 181.076 295.625C181.938 295.695 182.776 296.094 183.517 296.789C184.038 297.362 184.204 297.917 184.06 298.16V298.16Z" fill="#263238"/>
<path d="M176.265 273.361C174.048 285.734 163.47 290.385 160.742 302.498C159.279 308.989 160.454 316.173 162.006 322.612C163.559 329.05 165.51 335.471 165.621 342.361C165.621 345.589 165.189 349.129 163.581 351.159C161.629 353.589 158.735 352.895 156.473 351.316C152.349 348.365 152.038 343.836 149.821 337.64C147.603 331.445 143.401 323.584 142.059 316.816C141.161 312.269 140.252 307.548 140.706 302.932C141.241 298.941 142.339 295.187 143.922 291.947C146.911 285.114 150.447 278.908 154.444 273.482C157.771 268.901 161.707 264.805 166.142 264.024C170.577 263.243 175.578 266.905 176.853 273.586" fill="#263238"/>
<path d="M174.735 275.287C176.465 278.897 179.403 280.493 181.665 283.27C184.119 286.378 185.692 290.873 186.045 295.782C186.597 290.919 186.372 285.917 185.391 281.222C184.351 276.501 182.213 272.566 179.403 270.202C177.998 269.063 176.434 268.491 174.853 268.536C173.271 268.582 171.721 269.244 170.344 270.463" fill="#263238"/>
<path d="M149.155 334.569C149.197 333.503 149.087 332.436 148.834 331.445C148.52 330.308 148.064 329.282 147.492 328.425C146.707 327.317 145.831 326.377 144.886 325.631C143.725 324.721 142.612 323.665 141.56 322.473C140.352 321.044 139.322 319.279 138.522 317.267C137.596 314.976 137.058 312.354 136.959 309.648C136.938 306.792 137.369 303.973 138.212 301.44C139.038 298.955 140.01 296.596 141.117 294.394C142.128 292.334 143.213 290.364 144.365 288.494C146.31 285.338 148.377 282.371 150.552 279.608C152.393 277.213 153.879 275.391 154.988 274.142L156.229 272.719C156.518 272.389 156.673 272.233 156.684 272.267C156.695 272.302 156.573 272.493 156.307 272.858L155.132 274.402C154.112 275.756 152.615 277.665 150.807 280.094C148.689 282.914 146.668 285.909 144.753 289.066C143.625 290.93 142.563 292.888 141.571 294.932C140.488 297.101 139.538 299.426 138.733 301.874C137.925 304.269 137.51 306.94 137.524 309.648C137.597 312.17 138.074 314.622 138.91 316.781C139.651 318.782 140.625 320.548 141.782 321.987C142.834 323.189 143.947 324.257 145.108 325.18C146.072 325.971 146.957 326.976 147.736 328.165C148.327 329.087 148.781 330.201 149.067 331.428C149.252 332.197 149.328 333.02 149.288 333.84C149.282 334.05 149.263 334.259 149.233 334.465C149.155 334.499 149.155 334.569 149.155 334.569V334.569Z" fill="#263238"/>
<path d="M155.276 334.135C155.225 333.011 155.013 331.919 154.655 330.942C154.205 329.824 153.626 328.847 152.947 328.061C152.182 327.089 151.196 326.169 150.22 324.85C148.947 323.106 147.954 320.918 147.321 318.462C146.688 316.006 146.433 313.352 146.577 310.713C146.72 308.075 147.258 305.526 148.147 303.273C149.036 301.02 150.251 299.126 151.695 297.743C153.327 296.234 155.064 295.023 156.873 294.134C158.591 293.214 160.199 292.277 161.74 291.218C164.431 289.355 167.001 287.088 169.413 284.45C171.039 282.673 172.594 280.743 174.07 278.671C174.586 277.86 175.134 277.101 175.711 276.398C175.605 276.644 175.483 276.871 175.345 277.075C175.101 277.526 174.724 278.151 174.236 278.914C172.811 281.113 171.28 283.138 169.657 284.971C167.255 287.692 164.68 290.018 161.973 291.912C160.443 293.006 158.78 293.96 157.072 294.897C155.31 295.759 153.615 296.923 152.016 298.368C150.507 299.835 149.262 301.879 148.399 304.309C147.536 306.738 147.082 309.472 147.082 312.251C147.095 314.518 147.404 316.756 147.992 318.827C148.579 320.899 149.432 322.76 150.497 324.295C151.417 325.597 152.393 326.551 153.169 327.575C153.85 328.436 154.422 329.49 154.855 330.681C155.125 331.446 155.288 332.292 155.331 333.163C155.354 333.49 155.335 333.82 155.276 334.135V334.135Z" fill="#455A64"/>
<path d="M142.724 305.587C142.724 305.587 142.669 305.379 142.613 304.963C142.551 304.343 142.525 303.716 142.536 303.088C142.62 300.773 143.103 298.536 143.933 296.615C145.168 293.758 146.916 291.536 148.956 290.229C151.416 288.658 154.014 287.681 156.662 287.331C159.27 287.01 161.862 286.43 164.423 285.595C166.496 284.834 168.506 283.699 170.411 282.211C172.153 280.789 173.812 279.128 175.367 277.248C175.367 277.248 175.29 277.439 175.101 277.751C174.913 278.064 174.613 278.48 174.225 279.001C173.102 280.453 171.887 281.72 170.599 282.784C168.686 284.371 166.657 285.589 164.556 286.411C161.98 287.307 159.369 287.939 156.739 288.303C154.142 288.633 151.59 289.563 149.166 291.062C147.203 292.281 145.503 294.352 144.266 297.032C143.449 298.862 142.931 300.977 142.758 303.193C142.669 304.702 142.78 305.587 142.724 305.587V305.587Z" fill="#455A64"/>
<path d="M158.026 383.941C156.983 396.402 155.564 409.972 149.51 418.32C146.295 422.71 142.148 425.018 138.6 428.732C135.555 431.979 132.999 436.226 131.111 441.177C129.222 446.129 128.047 451.666 127.667 457.401C134.748 464.064 142.429 469.019 150.453 472.1C151.65 460.855 157.105 452.022 162.649 444.559C168.193 437.097 174.17 429.808 177.219 419.465C181.277 405.669 179.215 389.547 176.798 374.83" fill="#455A64"/>
<path d="M128.798 452.23C128.662 453.631 128.599 455.047 128.609 456.464C128.609 457.783 128.754 459.345 128.743 461.15C128.787 463.162 128.439 465.147 127.745 466.842C126.935 468.396 125.88 469.593 124.684 470.313C123.772 470.867 122.904 471.589 122.101 472.465C121.378 473.295 120.824 474.433 120.504 475.745C120.472 475.343 120.51 474.935 120.615 474.564C120.873 473.544 121.298 472.646 121.846 471.961C122.642 470.981 123.519 470.169 124.451 469.549C125.549 468.877 126.521 467.786 127.279 466.373C127.903 464.815 128.227 463.007 128.21 461.167C128.21 459.432 128.21 457.852 128.21 456.499C128.134 455.016 128.338 453.531 128.798 452.23V452.23Z" fill="#455A64"/>
<path d="M135.018 457.852C134.898 459.262 134.839 460.682 134.841 462.104C134.841 463.406 134.974 464.985 134.963 466.79C135.004 468.793 134.66 470.77 133.976 472.465C133.168 474.029 132.108 475.227 130.905 475.935C129.995 476.5 129.129 477.222 128.321 478.087C127.608 478.929 127.059 480.064 126.736 481.367C126.736 481.367 126.68 480.933 126.835 480.205C127.092 479.183 127.517 478.285 128.066 477.601C128.863 476.612 129.744 475.8 130.683 475.189C131.773 474.505 132.739 473.415 133.499 472.013C134.127 470.457 134.45 468.647 134.431 466.807C134.431 465.072 134.431 463.493 134.431 462.156C134.356 460.663 134.56 459.168 135.018 457.852V457.852Z" fill="#455A64"/>
<path d="M141.394 463.944C141.259 465.351 141.196 466.773 141.205 468.196C141.205 469.514 141.338 471.076 141.327 472.881C141.377 474.886 141.033 476.867 140.34 478.556C139.532 480.12 138.472 481.318 137.269 482.027C136.36 482.59 135.497 483.318 134.697 484.196C133.974 485.026 133.419 486.165 133.1 487.476C133.06 487.074 133.099 486.663 133.211 486.296C133.463 485.269 133.888 484.369 134.442 483.693C135.236 482.706 136.112 481.894 137.047 481.28C138.143 480.604 139.115 479.513 139.875 478.105C140.495 476.544 140.815 474.736 140.795 472.898C140.795 471.163 140.795 469.601 140.795 468.248C140.727 466.753 140.935 465.259 141.394 463.944V463.944Z" fill="#455A64"/>
<path d="M148.135 469.584C148.001 470.985 147.941 472.401 147.958 473.818C147.958 475.137 148.091 476.716 148.08 478.504C148.124 480.516 147.776 482.501 147.082 484.196C146.275 485.754 145.219 486.951 144.022 487.667C143.109 488.221 142.242 488.943 141.438 489.819C140.719 490.65 140.168 491.789 139.853 493.099C139.853 493.099 139.797 492.665 139.952 491.919C140.211 490.898 140.635 490.001 141.183 489.315C141.98 488.335 142.856 487.524 143.789 486.903C144.883 486.232 145.855 485.147 146.616 483.745C147.237 482.184 147.561 480.377 147.548 478.539C147.548 476.803 147.548 475.224 147.548 473.87C147.469 472.382 147.673 470.891 148.135 469.584V469.584Z" fill="#455A64"/>
<path d="M169.291 435.067C168.472 433.983 167.694 432.824 166.963 431.596C165.101 428.805 163.115 426.224 161.019 423.873C158.902 421.536 156.678 419.442 154.367 417.608C153.392 416.911 152.441 416.135 151.517 415.283C152.568 415.665 153.584 416.248 154.544 417.018C156.92 418.705 159.186 420.751 161.308 423.127C163.43 425.499 165.404 428.178 167.207 431.127C168.003 432.3 168.703 433.623 169.291 435.067V435.067Z" fill="#FAFAFA"/>
<path d="M158.48 450.078C158.381 450.078 157.926 448.221 156.74 445.548C155.15 442.108 153.214 439.096 151.007 436.628C148.446 433.678 145.929 431.422 144.155 429.687C143.16 428.826 142.227 427.802 141.372 426.632C142.405 427.363 143.405 428.204 144.365 429.149C146.777 431.201 149.109 433.472 151.351 435.952C153.612 438.472 155.555 441.626 157.083 445.253C157.523 446.352 157.894 447.514 158.192 448.724C158.338 449.145 158.436 449.604 158.48 450.078V450.078Z" fill="#FAFAFA"/>
<path d="M152.792 461.827C152.45 461.869 152.105 461.822 151.772 461.688C150.854 461.461 149.943 461.16 149.045 460.785C146.069 459.543 143.208 457.712 140.529 455.336C137.848 452.94 135.371 450.024 133.155 446.659C132.488 445.648 131.855 444.582 131.259 443.466C131.018 443.079 130.813 442.641 130.65 442.164C130.727 442.06 131.703 443.761 133.444 446.19C137.97 452.56 143.333 457.299 149.155 460.074C151.373 461.236 152.814 461.688 152.792 461.827V461.827Z" fill="#FAFAFA"/>
<path d="M178.915 408.393C178.632 408.633 178.324 408.797 178.006 408.879C177.169 409.239 176.317 409.505 175.456 409.678C172.599 410.279 169.7 410.18 166.863 409.382C164.025 408.569 161.283 407.076 158.735 404.957C157.969 404.311 157.228 403.592 156.518 402.805C156.019 402.233 155.764 401.903 155.786 401.851C155.808 401.799 156.972 402.892 158.924 404.384C164.04 408.267 169.74 409.876 175.401 409.035C177.574 408.723 178.893 408.237 178.915 408.393Z" fill="#FAFAFA"/>
<path d="M147.337 341.181C147.958 337.103 149.721 335.28 152.116 333.389C156.152 330.213 160.986 332.035 165.333 333.909C169.679 335.784 174.513 337.571 178.538 334.361C180.235 333.007 181.632 330.89 183.273 329.311C184.914 327.731 187.054 326.95 188.717 328.443C190.757 330.282 191.112 334.76 190.569 338.352C190.026 341.944 188.817 345.294 188.606 348.99C188.396 352.687 189.294 356.678 189.538 360.548C190.114 369.503 186.954 378.475 182.242 383.612C177.372 388.559 171.526 390.592 165.776 389.338C161.154 388.621 156.741 385.965 153.003 381.651C149.26 377.29 146.671 370.928 145.729 363.776C144.809 356.088 146.117 348.157 147.426 340.677" fill="#455A64"/>
<path d="M181.643 383.716C181.643 383.716 181.388 384.097 180.878 384.653C180.147 385.436 179.38 386.132 178.583 386.735C173.257 390.788 167.16 391.598 161.474 389.009C160.623 388.631 159.793 388.149 158.99 387.568C158.685 387.39 158.398 387.145 158.137 386.839C158.137 386.683 159.445 387.551 161.585 388.401C167.196 390.579 173.11 389.791 178.405 386.163C180.434 384.757 181.576 383.577 181.643 383.716V383.716Z" fill="#263238"/>
<path d="M188.817 357.147C188.817 357.147 188.706 357.337 188.462 357.615C188.109 358.008 187.738 358.361 187.353 358.674C185.919 359.843 184.378 360.662 182.785 361.103C177.498 362.386 172.094 361.763 166.985 359.281C161.869 356.897 157.111 352.932 152.992 347.619C151.754 346.009 150.587 344.27 149.499 342.413C149.091 341.753 148.72 341.039 148.39 340.278C148.85 340.85 149.276 341.483 149.665 342.17C150.475 343.402 151.672 345.155 153.247 347.133C157.386 352.232 162.103 356.059 167.151 358.413C172.171 360.838 177.465 361.542 182.674 360.478C184.243 360.092 185.772 359.38 187.22 358.361C188.263 357.632 188.784 357.094 188.817 357.147V357.147Z" fill="#263238"/>
<path d="M154.766 349.563C154.855 349.563 154.455 351.298 154.001 354.266C152.785 361.813 152.645 369.687 153.591 377.329C153.847 378.897 154.05 380.484 154.2 382.084C153.736 380.622 153.397 379.07 153.191 377.468C152.603 373.628 152.334 369.685 152.393 365.737C152.459 361.796 152.858 357.886 153.579 354.109C153.835 352.514 154.235 350.983 154.766 349.563V349.563Z" fill="#FAFAFA"/>
<path d="M163.315 333.146C162.779 333.909 162.268 334.714 161.784 335.558C160.748 337.737 160.143 340.343 160.044 343.055C159.979 345.795 160.143 348.537 160.532 351.211C160.732 352.344 160.851 353.508 160.886 354.682C160.532 353.66 160.278 352.56 160.132 351.42C159.618 348.702 159.393 345.87 159.467 343.038C159.568 340.149 160.273 337.392 161.474 335.194C161.93 334.218 162.576 333.5 163.315 333.146V333.146Z" fill="#FAFAFA"/>
<path d="M168.803 389.338C168.803 389.338 168.471 389.338 167.96 389.043C167.25 388.481 166.674 387.574 166.319 386.458C165.834 384.82 165.552 383.054 165.488 381.251C165.333 379.273 165.2 377.104 165.089 374.813C164.856 370.214 164.778 366.136 164.789 363.047C164.73 361.417 164.786 359.781 164.956 358.17C165.118 359.778 165.199 361.402 165.2 363.03C165.288 366.032 165.432 370.179 165.665 374.744C165.787 377 165.898 379.152 166.009 381.165C166.05 382.885 166.279 384.581 166.685 386.18C166.983 387.228 167.463 388.125 168.071 388.766C168.515 389.165 168.814 389.269 168.803 389.338Z" fill="#FAFAFA"/>
<path d="M180.468 360.426C180.774 361.695 180.954 363.029 181 364.383C181.215 367.638 181.155 370.923 180.822 374.153C180.493 377.379 179.885 380.52 179.015 383.49C178.7 384.748 178.258 385.92 177.707 386.961C178.84 382.789 179.695 378.445 180.257 373.997C180.617 369.496 180.687 364.95 180.468 360.426Z" fill="#FAFAFA"/>
<path d="M174.358 336.686C174.358 336.686 174.58 336.825 174.813 337.345C175.129 338.107 175.305 338.989 175.323 339.897C175.348 341.193 175.284 342.491 175.134 343.767C175.012 345.172 174.913 346.734 174.846 348.383C174.569 354.96 175.168 360.27 174.99 360.322C174.706 359.214 174.534 358.043 174.48 356.851C174.222 354.024 174.152 351.163 174.27 348.313C174.331 346.743 174.446 345.179 174.613 343.628C174.781 342.4 174.881 341.151 174.913 339.897C174.914 338.768 174.722 337.66 174.358 336.686V336.686Z" fill="#FAFAFA"/>
<path d="M184.526 328.478C184.526 328.478 184.858 328.478 185.357 328.877C186.044 329.554 186.564 330.576 186.832 331.775C187.196 333.558 187.196 335.475 186.832 337.259C186.522 339.254 185.912 341.285 185.49 343.472C184.504 347.845 185.912 351.923 185.834 355.064C185.866 356.31 185.702 357.55 185.357 358.674C185.091 359.455 184.847 359.784 184.825 359.75C185.293 358.314 185.5 356.706 185.424 355.099C185.301 353.341 185.094 351.601 184.803 349.893C184.66 348.831 184.582 347.75 184.57 346.665C184.593 345.487 184.716 344.32 184.936 343.194C185.38 340.92 186.045 338.925 186.322 337.016C186.661 335.38 186.688 333.625 186.4 331.966C186.185 330.856 185.76 329.875 185.18 329.154C184.814 328.738 184.515 328.547 184.526 328.478Z" fill="#FAFAFA"/>
<path d="M150.098 343.992C149.965 343.231 149.965 342.428 150.098 341.667C150.339 339.795 150.826 338.022 151.528 336.46C152.223 334.896 153.113 333.568 154.145 332.556C154.943 331.809 155.509 331.567 155.531 331.671C154.206 333.173 153.02 334.954 152.005 336.964C151.163 339.156 150.521 341.522 150.098 343.992V343.992Z" fill="#FAFAFA"/>
<path d="M18.2974 570.47C18.3239 572.295 18.4371 574.108 18.635 575.876C17.6963 573.379 16.5619 571.317 15.292 569.802C13.1992 567.591 10.981 566.086 8.70469 565.332H8.49883C9.10262 571.496 10.4012 577.178 12.2618 581.797C12.636 582.664 13.0409 583.456 13.4722 584.166C12.9864 584.414 12.4924 584.682 12.0148 584.987C8.72115 587.012 4.10183 593.315 1.82922 596.314C5.67015 599.976 9.80977 601.645 13.958 601.204C14.2133 601.204 14.4685 601.204 14.7156 601.09C14.3003 602.349 13.9338 603.692 13.6204 605.101C12.6687 609.957 12.0199 615.102 11.6937 620.382C11.6937 620.554 11.6937 620.707 11.6937 620.86C14.3496 619.45 16.7981 616.439 18.7914 612.13C19.6123 610.186 20.2884 607.94 20.7923 605.483C20.8773 606.83 21.0094 608.159 21.1876 609.456C21.9564 614.491 23.2389 619.02 24.9258 622.655V622.254C25.4107 617.809 25.6514 613.239 25.6422 608.654C25.5194 604.249 24.9555 599.972 23.9954 596.161C23.3511 593.711 22.653 591.34 21.9039 589.056V589.056C22.2854 586.327 22.6042 583.554 22.8591 580.747C23.2034 576.42 23.1104 571.967 22.5874 567.739C21.9381 563.404 21.0556 559.278 19.9607 555.456C19.9275 555.346 19.8973 555.231 19.8701 555.113C18.8191 559.862 18.2795 565.131 18.2974 570.47V570.47Z" fill="#FFC100"/>
<path d="M29.405 584.586C29.405 584.853 25.288 587.317 20.1746 590.087C15.0613 592.857 10.8701 594.862 10.8372 594.595C10.8042 594.328 14.9542 591.883 20.0758 589.113C25.1974 586.343 29.3803 584.357 29.405 584.586Z" fill="#263238"/>
<path d="M19.5901 589.953C19.2507 592.986 18.639 595.817 17.795 598.263C17.897 596.706 18.1382 595.216 18.5032 593.888C18.9972 591.596 19.483 589.82 19.5901 589.953Z" fill="#263238"/>
<path d="M17.6468 591.405C17.5563 591.577 17.0704 590.546 16.4611 589.361C15.8518 588.177 15.3413 587.203 15.3989 586.955C15.4566 586.706 16.0988 587.337 16.7411 588.597C17.3833 589.858 17.7374 591.233 17.6468 591.405V591.405Z" fill="#263238"/>
<path d="M253.282 377.488C253.365 378.742 253.506 379.971 253.702 381.156C252.968 379.601 252.113 378.389 251.182 377.584C249.655 376.457 248.066 375.846 246.464 375.769H246.324C246.961 379.908 248.058 383.584 249.502 386.428C249.795 386.943 250.103 387.409 250.424 387.822C250.095 388.089 249.766 388.357 249.436 388.662C247.263 390.687 244.274 395.921 242.808 398.404C245.598 400.229 248.527 400.614 251.388 399.531L251.907 399.302C251.665 400.253 251.458 401.25 251.289 402.282C250.79 405.82 250.513 409.506 250.466 413.227V413.571C252.249 412.088 253.833 409.545 255.06 406.198C255.556 404.695 255.945 403.018 256.213 401.231C256.318 402.139 256.453 403.027 256.616 403.886C257.329 407.216 258.377 410.099 259.671 412.291V412.004C259.845 408.834 259.845 405.625 259.671 402.454C259.439 399.444 258.909 396.6 258.123 394.145C257.593 392.573 257.026 391.069 256.427 389.637V389.637C256.617 387.707 256.763 385.756 256.864 383.792C256.944 380.742 256.722 377.69 256.213 374.871C255.613 371.999 254.858 369.315 253.965 366.887L253.891 366.677C253.322 370.118 253.113 373.823 253.282 377.488V377.488Z" fill="#FFC100"/>
<path d="M261.45 385.11C259.453 387.331 257.396 389.246 255.291 390.84C253.234 392.734 251.127 394.322 248.984 395.596C250.98 393.375 253.038 391.46 255.143 389.866C257.2 387.972 259.306 386.384 261.45 385.11V385.11Z" fill="#263238"/>
<path d="M254.854 390.687C254.97 390.687 254.854 392.215 254.591 393.877C254.327 395.539 254.023 396.838 253.916 396.761C253.809 396.685 253.916 395.233 254.187 393.552C254.459 391.872 254.747 390.592 254.854 390.687V390.687Z" fill="#263238"/>
<path d="M253.57 392.063C253.488 392.254 253.101 391.7 252.639 390.993C252.178 390.286 251.816 389.675 251.865 389.407C251.915 389.14 252.384 389.407 252.878 390.172C253.372 390.936 253.652 391.852 253.57 392.063Z" fill="#263238"/>
<path d="M93.7134 430.514C94.0713 431.097 94.455 431.59 94.8579 431.985C94.067 432.105 93.2931 432.571 92.5771 433.36C91.4525 434.776 90.421 436.557 89.514 438.651L89.4234 438.823C90.8026 440.271 92.3227 440.845 93.8286 440.485C94.1071 440.382 94.3823 440.236 94.652 440.045C94.5368 440.618 94.4215 441.211 94.3144 441.803C93.6818 446.437 93.2623 451.213 93.0629 456.052C95.0592 453.341 96.7763 449.652 98.0939 445.241L98.3245 444.42C98.438 445.254 98.587 446.06 98.7691 446.826C99.3764 449.435 100.142 451.828 101.042 453.932L101.124 454.142C101.742 450.939 101.986 447.415 101.832 443.923C101.736 442.431 101.536 440.986 101.239 439.644C101.525 440.011 101.822 440.323 102.129 440.58C103.347 441.482 104.641 441.685 105.9 441.172L105.834 440.981C105.147 438.996 104.356 437.219 103.479 435.69C102.604 434.336 101.607 433.466 100.564 433.15C99.8972 432.921 99.609 433.054 98.5138 432.921C98.1209 431.596 97.6976 430.32 97.2458 429.1C96.5363 427.298 95.6572 425.899 94.6767 425.013C93.6333 424.231 92.5517 423.756 91.4572 423.599H91.3584C91.8906 426.312 92.6987 428.685 93.7134 430.514V430.514Z" fill="#FFC100"/>
<path d="M100.128 423.905C99.6053 427.841 98.9472 431.674 98.1598 435.366C97.5087 439.17 96.7238 442.843 95.8131 446.349C96.3263 442.408 96.9818 438.574 97.7728 434.888C98.4301 431.087 99.2176 427.414 100.128 423.905V423.905Z" fill="#263238"/>
<path d="M97.8551 435.709C97.9621 435.595 98.2668 436.531 98.5385 437.81C98.8103 439.09 98.942 440.217 98.835 440.332C98.7279 440.447 98.4232 439.53 98.1515 438.25C97.8798 436.97 97.748 435.843 97.8551 435.709V435.709Z" fill="#263238"/>
<path d="M97.4845 438.193C97.4845 438.479 97.1387 438.727 96.7188 438.937C96.2988 439.148 95.8954 439.262 95.8954 438.937C95.8954 438.613 96.1753 438.135 96.6364 437.887C97.0975 437.639 97.4763 437.925 97.4845 438.193V438.193Z" fill="#263238"/>
<path d="M50.5996 360.87C50.3691 362.398 50.8384 363.296 51.4231 363.831C51.1349 363.831 50.8549 363.945 50.5996 364.06C49.9966 364.212 49.4251 364.762 48.9528 365.645C48.1788 367.555 49.0022 369.466 49.8256 370.421C49.38 370.796 48.9814 371.422 48.6653 372.242C48.3493 373.062 48.1256 374.05 48.0141 375.12C47.9773 375.76 48.0262 376.412 48.1544 376.986C48.2825 377.56 48.4836 378.029 48.7305 378.329C49.012 378.588 49.313 378.713 49.6157 378.697C49.9185 378.68 50.2167 378.523 50.4926 378.233C50.8771 377.904 51.2317 377.412 51.5383 376.781C51.5383 378.921 51.9583 381.519 53.0122 380.602C53.539 380.059 53.9877 379.177 54.305 378.061C54.4867 377.502 54.6517 376.915 54.799 376.304C54.7825 376.666 54.7825 377.031 54.799 377.393C54.814 377.73 54.8618 378.055 54.9388 378.342C55.0158 378.63 55.1201 378.874 55.2437 379.054C55.4195 379.264 55.6201 379.335 55.8149 379.256C56.0096 379.177 56.1879 378.951 56.3223 378.615C57.1545 376.902 57.755 374.666 58.0515 372.178C58.4846 369.631 58.6374 366.874 58.4961 364.155C58.2738 361.367 56.8493 360.125 55.8365 359.476C54.8459 358.834 53.817 358.569 52.7899 358.692C52.1394 358.96 50.8549 359.265 50.5996 360.87V360.87Z" fill="#FFC100"/>
<path d="M60.4723 358.501C58.913 361.437 57.2616 364.099 55.5319 366.467C53.8963 369.119 52.1821 371.499 50.402 373.591C51.9494 370.663 53.5869 368.001 55.3013 365.626C56.9496 362.968 58.6777 360.587 60.4723 358.501V358.501Z" fill="#263238"/>
<path d="M56.6435 364.06C56.6871 365.481 56.5884 366.906 56.3553 368.224C56.2456 369.601 56.0066 370.905 55.6554 372.044C55.703 369.213 56.0418 366.449 56.6435 363.983V364.06V364.06Z" fill="#263238"/>
<path d="M50.8961 367.173C50.8961 366.906 51.5795 366.925 52.37 367.173C53.1604 367.422 53.7945 367.937 53.778 368.205C53.7615 368.472 53.0946 368.453 52.3041 368.205C51.5136 367.956 50.8796 367.441 50.8961 367.173Z" fill="#263238"/>
<path d="M52.7488 370C52.8641 370 52.9052 370.879 52.8394 371.911C52.7735 372.942 52.6253 373.649 52.51 373.591C52.3947 373.534 52.3535 372.732 52.4194 371.681C52.4853 370.631 52.6582 369.962 52.7488 370Z" fill="#263238"/>
<path d="M54.0168 363.773C54.0168 363.506 54.4779 363.41 55.0049 363.773C55.5319 364.136 55.9189 364.671 55.8695 364.919C55.8201 365.168 55.4001 365.034 54.8978 364.747C54.3956 364.461 54.0003 364.041 54.0168 363.773Z" fill="#263238"/>
<path d="M263.344 207.217C262.981 209.624 263.722 211.037 264.669 211.897C264.22 211.955 263.772 212.069 263.327 212.241C262.367 212.462 261.454 213.324 260.701 214.724C259.474 217.627 260.775 220.798 262.076 222.365C261.372 222.954 260.743 223.937 260.243 225.226C259.743 226.516 259.388 228.072 259.21 229.757C259.154 230.771 259.233 231.801 259.436 232.709C259.639 233.617 259.957 234.36 260.347 234.838C260.79 235.245 261.265 235.44 261.742 235.411C262.218 235.381 262.688 235.128 263.121 234.666C263.729 234.165 264.288 233.393 264.768 232.393C264.768 235.755 265.435 239.861 267.098 238.563C267.938 237.662 268.648 236.215 269.141 234.398C269.426 233.501 269.687 232.563 269.923 231.591C269.894 232.168 269.894 232.751 269.923 233.329C269.942 233.86 270.015 234.373 270.135 234.827C270.255 235.282 270.419 235.665 270.614 235.946C270.894 236.276 271.211 236.388 271.52 236.264C271.829 236.14 272.112 235.787 272.327 235.258C273.634 232.541 274.579 229.016 275.053 225.096C275.73 221.071 275.97 216.722 275.752 212.432C275.398 208.038 273.208 206.071 271.553 205.059C269.992 204.047 268.371 203.628 266.753 203.817C265.773 203.932 263.747 204.562 263.344 207.217V207.217Z" fill="#FFC100"/>
<path d="M278.923 203.359C278.98 203.608 275.489 209.09 271.117 215.68C266.744 222.27 263.146 227.389 263.08 227.141C263.014 226.892 266.506 221.41 270.886 214.82C275.267 208.23 278.857 203.13 278.923 203.359Z" fill="#263238"/>
<path d="M272.887 212.108C272.834 214.327 272.64 216.515 272.311 218.602C272.114 220.782 271.778 222.88 271.314 224.829C271.374 222.611 271.571 220.423 271.899 218.335C272.091 216.155 272.424 214.056 272.887 212.108V212.108Z" fill="#263238"/>
<path d="M263.813 217.036C265.362 216.955 266.904 217.551 268.358 218.793C267.586 218.989 266.805 218.859 266.053 218.411C265.277 218.263 264.519 217.798 263.813 217.036V217.036Z" fill="#263238"/>
<path d="M266.744 221.429C266.86 221.429 266.868 222.747 266.744 224.295C266.621 225.842 266.464 227.045 266.341 227.007C266.217 226.969 266.217 225.67 266.341 224.142C266.464 222.614 266.621 221.429 266.744 221.429Z" fill="#263238"/>
<path d="M268.729 211.668C268.729 211.401 269.445 211.401 270.269 211.898C271.092 212.394 271.71 213.177 271.66 213.426C271.611 213.674 270.96 213.33 270.162 212.853C269.363 212.375 268.712 211.879 268.729 211.668Z" fill="#263238"/>
<path d="M28.8946 476.262C28.8946 476.262 35.4819 485.507 39.4178 468.621C39.4178 468.717 32.1141 460.694 28.8946 476.262Z" fill="#FFC100"/>
<path d="M41.6986 466.787C40.1905 468.415 38.6225 469.726 37.0134 470.703C35.4564 472.018 33.8529 473.015 32.2212 473.683C33.7213 472.058 35.281 470.748 36.8817 469.767C38.4467 468.449 40.0585 467.452 41.6986 466.787Z" fill="#263238"/>
<path d="M33.0281 470.054C33.0281 469.805 33.5139 469.958 34.0327 470.398C34.5514 470.837 34.9219 471.41 34.8561 471.677C34.7902 471.945 34.3703 471.773 33.8515 471.334C33.3328 470.894 32.9869 470.321 33.0281 470.054Z" fill="#263238"/>
<path d="M37.3674 469.844C37.4662 469.996 37.2768 471.047 36.9475 472.174C36.6181 473.301 36.264 474.084 36.124 473.912C35.9841 473.74 36.2146 472.728 36.5522 471.601C36.8898 470.474 37.2768 469.748 37.3674 469.844V469.844Z" fill="#263238"/>
<path d="M318.169 60.2238C318.074 60.0349 321.89 48.5333 326.68 34.555C331.471 20.5767 335.433 9.32686 335.485 9.59971C335.537 9.87255 331.773 21.2693 326.982 35.2476C322.192 49.2259 318.229 60.4127 318.169 60.2238V60.2238Z" fill="#263238" stroke="black"/>
<path d="M-0.796418 579.352C-0.891374 579.163 2.91539 567.661 7.70622 553.683C12.4971 539.705 16.4678 528.497 16.5628 528.728C16.6577 528.958 12.851 540.334 8.05151 554.396C3.25205 568.459 -0.701465 579.541 -0.796412 579.352H-0.796418Z" fill="#263238" stroke="black"/>
<path d="M351.265 349.885C351.17 349.675 354.976 338.195 359.767 324.216C364.558 310.238 368.52 299.03 368.615 299.24C368.71 299.45 364.903 310.931 360.113 324.909C355.322 338.887 351.36 350.074 351.265 349.885Z" fill="#263238" stroke="black"/>
<path d="M288.932 816.941C288.837 816.752 292.644 805.25 297.435 791.272C302.226 777.294 306.188 766.086 306.283 766.317C306.378 766.548 302.579 777.986 297.78 791.985C292.981 805.985 289.027 817.13 288.932 816.941Z" fill="#263238" stroke="black"/>
<path d="M267.481 670.127C267.386 669.938 271.193 658.457 275.984 644.479C280.775 630.5 284.737 619.293 284.832 619.503C284.927 619.712 281.12 631.193 276.329 645.171C271.538 659.15 267.576 670.336 267.481 670.127Z" fill="#263238" stroke="black"/>
<path d="M337.885 579.142C337.79 578.953 341.597 567.451 346.388 553.473C351.178 539.495 355.14 528.287 355.235 528.518C355.33 528.749 351.524 540.187 346.733 554.187C341.942 568.186 338.023 579.331 337.885 579.142Z" fill="#263238" stroke="black"/>
<path d="M356.85 185.735C356.755 185.546 360.561 174.044 365.352 160.066C370.143 146.088 374.105 134.88 374.2 135.09C374.295 135.299 370.488 146.78 365.697 160.758C360.907 174.737 356.944 185.924 356.85 185.735Z" fill="#263238" stroke="black"/>
<path d="M88.4165 621.392C88.3216 621.203 92.1283 609.722 96.9192 595.744C101.71 581.765 105.681 570.557 105.776 570.767C105.871 570.977 102.064 582.458 97.2645 596.436C92.465 610.414 88.5546 621.601 88.4165 621.392H88.4165Z" fill="#263238" stroke="black"/>
<path d="M252.496 382.333C252.401 382.144 256.208 370.643 260.999 356.664C265.789 342.686 269.752 331.478 269.847 331.709C269.941 331.94 266.135 343.379 261.344 357.357C256.553 371.335 252.565 382.522 252.496 382.333Z" fill="#263238" stroke="black"/>
<path d="M59.6112 385.901C59.5162 385.712 63.323 374.211 68.1138 360.232C72.9047 346.254 76.8668 335.046 76.9617 335.277C77.0567 335.508 73.2499 346.947 68.4591 360.946C63.6683 374.945 59.7061 386.09 59.6112 385.901V385.901Z" fill="#263238" stroke="black"/>
<path d="M109.945 806.258C109.85 806.069 113.657 794.588 118.448 780.61C123.239 766.632 127.201 755.424 127.296 755.634C127.391 755.844 123.584 767.324 118.793 781.302C114.002 795.281 110.04 806.468 109.945 806.258Z" fill="#263238" stroke="black"/>
<path d="M235.447 113.094C235.353 112.884 239.159 101.403 243.959 87.4248C248.758 73.4465 252.712 62.2387 252.807 62.4486C252.902 62.6585 249.095 74.1391 244.304 88.1174C239.513 102.096 235.542 113.283 235.447 113.094H235.447Z" fill="#263238" stroke="black"/>
<path d="M71.4113 194.319C71.3164 194.13 75.1232 182.628 79.914 168.65C84.7048 154.672 88.6669 143.464 88.7619 143.695C88.8568 143.926 85.0501 155.364 80.2593 169.364C75.4684 183.363 71.5063 194.508 71.4113 194.319Z" fill="#263238" stroke="black"/>
<path d="M148.393 60.2239C148.298 60.035 152.113 48.5333 156.904 34.555C161.695 20.5768 165.657 9.36893 165.752 9.59979C165.847 9.83065 162.04 21.2694 157.249 35.2477C152.458 49.226 148.496 60.4128 148.393 60.2239V60.2239Z" fill="#263238" stroke="black"/>
<path d="M17.3914 310.7C17.2965 310.511 21.1033 299.009 25.8941 285.031C30.6849 271.053 34.6557 259.845 34.7506 260.055C34.8456 260.264 31.0388 271.745 26.2394 285.723C21.4399 299.702 17.4864 310.889 17.3915 310.7H17.3914Z" fill="#263238" stroke="black"/>
<path d="M20.6371 113.094C20.5422 112.884 24.3489 101.403 29.1398 87.4248C33.9306 73.4465 37.8927 62.2387 37.9877 62.4486C38.0826 62.6585 34.2759 74.1391 29.485 88.1174C24.6942 102.096 20.7321 113.283 20.6371 113.094Z" fill="#263238" stroke="black"/>
<path d="M322.92 643.71C308.496 647.925 277.32 688.284 268 816H382V424C375.62 465.624 355.872 539.703 327.912 503.032C299.953 466.361 312.934 581.538 322.92 643.71Z" fill="#FFC100" stroke="#FFC100"/>
<path d="M29.8572 150.886C48.4234 157.264 93.5584 132.823 125.568 -15.9661L-15.8429 -107.136L-78.6071 372.421C-64.0291 326.602 -27.6705 251.77 1.13974 318.992C29.95 386.214 32.289 234.93 29.8572 150.886Z" fill="#FFC100" stroke="#FFC100"/>
</g>
<defs>
<clipPath id="clip0">
<rect width="375" height="812" fill="white"/>
</clipPath>
</defs>
</svg>
