<svg xmlns="http://www.w3.org/2000/svg" xmlns:xlink="http://www.w3.org/1999/xlink" viewBox="0 0 500 500"><defs><clipPath id="freepik--clip-path--inject-66"><path d="M425.71,315.07a1.9,1.9,0,0,1-2.11.88l-7.9-8.63L411,303.25l-.51,3.27a.08.08,0,0,0,0,0l-1.17,7.55,2.61,13.15c.63,3.2-.46,12.79-.46,12.79l3.95,9.85a23,23,0,0,1-13.75,4.34c-5.72-.26-12.38-3.29-18.23-13.06l11.33-22.93-1.28-7.56a.28.28,0,0,1,0-.06l-.67-3.94-13.45,7.85a1.69,1.69,0,0,1-1-2.27l10.47-9s4.75-7.7,8.57-8.28c0,0,3.3-6.7,10-6.35,3.38.17,4.17,1.12,4.1,2a3.17,3.17,0,0,1-.93,1.73l8.66,11.47Z" style="fill:#92E3A9;stroke:#263238;stroke-linecap:round;stroke-linejoin:round"></path></clipPath><clipPath id="freepik--clip-path-2--inject-66"><path d="M290.37,283.22c.24-.35,7.66-3.28,15.6-5.47s22.46-.05,24.3,5.47,0,59.95,0,59.95a61.88,61.88,0,0,1-39.5.31s-.78-23.88-2-35.48S286.85,288.25,290.37,283.22Z" style="fill:#757575;stroke:#263238;stroke-linecap:round;stroke-linejoin:round"></path></clipPath><clipPath id="freepik--clip-path-3--inject-66"><path d="M253.3,443.66c-.46-3.74-1.38-11.9-1.52-17.24-.17-7.12,1.76-19.05,1.76-19.05.26-19.85-2.53-45.76-2.53-45.76s-1.71-2.43-1-7.35c.31-2.1.87-4.78.87-4.78S277,332,283.23,341.1c1.65,2.41,2.21,7.48,2.13,13.67a181.1,181.1,0,0,1-1.63,20c-1.2,9.28-2.75,17.87-3.56,22.05-.27,1.41-.46,2.31-.52,2.58-.53,2.25-1.32,7.52-2.9,10.22-1.27,2.15-4.71,23.83-6.06,32.5" style="fill:#757575;stroke:#263238;stroke-linecap:round;stroke-linejoin:round"></path></clipPath><clipPath id="freepik--clip-path-4--inject-66"><path d="M248,302.75c-.24-1.5,26.82-5.26,29.52-2.24,8.95,10,5,24.3,5,24.3s-1.23,10.49,2.78,18.79c1.11,2.31.61,10.42.61,10.42-12.34,15.75-36.82,2.12-36.82,2.12-.39-10.51,8.14-24.83,8.14-24.83S249.88,314.42,248,302.75Z" style="fill:#92E3A9;stroke:#263238;stroke-linecap:round;stroke-linejoin:round"></path></clipPath><clipPath id="freepik--clip-path-5--inject-66"><path d="M239.06,247s10.65-16.66,33.89-15c0,0,9.16-6,24.31-4.35C314,229.43,320,236.16,320,236.16s13.13,3.61,18,11.14c0,0-21.27-2.34-29.81,8.92,0,0-37.45-3.3-47.95,5.22,0,0-17.76-6.17-33.54,1.56C226.64,263,228.88,249.76,239.06,247Z" style="fill:#92E3A9;stroke:#263238;stroke-linecap:round;stroke-linejoin:round"></path></clipPath><clipPath id="freepik--clip-path-6--inject-66"><path d="M41.81,257S47.64,211.52,98,191.89c0,0,13.26-21.64,46.65-33.2,36.77-12.74,56-4.56,56-4.56s31.09-5.43,48.73,5.53c0,0-46.9,16.16-53.65,48.23,0,0-81.78,30.16-95.35,58.42,0,0-43.34,4.66-68.76,36.5C31.62,302.81,23.19,272.83,41.81,257Z" style="fill:#bfbfbf;stroke:#263238;stroke-linecap:round;stroke-linejoin:round"></path></clipPath><clipPath id="freepik--clip-path-7--inject-66"><path d="M213.1,349s-1.08,6.42-2.81,14.52a207.89,207.89,0,0,1-5.54,21.36C203,390,201.2,394,199.36,395.5c-6.85,5.49-23.71-.09-27.15-8.9s-10.32-74.49-10.32-74.49L176.42,300s6.72,8.92,10.48,15.28c2.56,4.34,4.18,12.94,4.95,18,.36,2.35.53,3.92.53,3.92s3-18.14,4.43-19.91c0,0,3.78-6.29,9-3.52s10.93,16.88,11.19,22.16S213.1,349,213.1,349Z" style="fill:#92E3A9;stroke:#263238;stroke-linecap:round;stroke-linejoin:round"></path></clipPath></defs><g id="freepik--background-simple--inject-66"><path d="M469.16,292.43a108.62,108.62,0,0,0-5.78-64.5c-11.56-28.56-36.37-48.85-64.18-60.69C358.8,150,319.13,149.71,286.29,116c-10.13-10.4-18.64-22.31-29-32.49-30.52-30-75.19-26.39-108.55-2.58C79.17,130.61,54.14,229,58,310.39c1.74,36.51,19.17,70.49,46.76,94.45,62.4,54.18,168.36,45.07,240,16.78C398.25,400.53,456.61,351.33,469.16,292.43Z" style="fill:#92E3A9"></path><path d="M469.16,292.43a108.62,108.62,0,0,0-5.78-64.5c-11.56-28.56-36.37-48.85-64.18-60.69C358.8,150,319.13,149.71,286.29,116c-10.13-10.4-18.64-22.31-29-32.49-30.52-30-75.19-26.39-108.55-2.58C79.17,130.61,54.14,229,58,310.39c1.74,36.51,19.17,70.49,46.76,94.45,62.4,54.18,168.36,45.07,240,16.78C398.25,400.53,456.61,351.33,469.16,292.43Z" style="fill:#fff;opacity:0.7000000000000001"></path></g><g id="freepik--Puddles--inject-66"><path d="M339.09,375.47c34.26.58,11.33,3,20,5.17,2.17.54,20.29,1.39,17.59,4.69-1.33,1.62-7.31,1.71-9.17,2a296.24,296.24,0,0,1-33.4,2.62c-5.19.15-10.41.23-15.6-.09-2.41-.15-6.46,0-8.47-1.61-5.54-4.49,3.47-6.66-3.9-8.57S326.93,375.27,339.09,375.47Z" style="fill:none;stroke:#263238;stroke-linecap:round;stroke-linejoin:round"></path><path d="M162.5,407.39s51.25-3.63,62.62-1.3,2.66,9,9,10.4,37.58-3.21,45.69,2.67-55.67,11.49-74.24,8.29-29.78,6.08-45.81.62S111.46,412.68,162.5,407.39Z" style="fill:none;stroke:#263238;stroke-linecap:round;stroke-linejoin:round"></path><path d="M404.62,372c-19.59.2-44.11,0-45.7-2.57s5.54-1.38,7.12-3.56-8-8.85-7.34-11.64,2.79,1,5.37,4.12-3.37-15-1-19.56,1.58,6.71,2.57,10.86,3.16,8.63,6.39,9.5" style="fill:none;stroke:#263238;stroke-linecap:round;stroke-linejoin:round"></path><path d="M379.3,365.51c2,2,9.89-1.31,13.45-3.72s-3.81,2.56-2.7,4.32,15.36.21,17.14,0-5.74,1.37-4,3,13.13,1.18,13.13,1.18" style="fill:none;stroke:#263238;stroke-linecap:round;stroke-linejoin:round"></path><path d="M200.9,407.37c8.7-.25,22.32-1.52,24.22,1.85s-5.27,3.36-10.13,3.63-14.61,4.74-15.93,2.9-13-6.34-19.28-5.68S188.5,407.72,200.9,407.37Z" style="fill:#fff;opacity:0.4"></path><path d="M208.88,424.05c-5.77-2.12,2.77-6.32,9.69-5.53s7.72,2.54,15.63,2.65,13.84-1.07,12.66,1.9S221.74,428.8,208.88,424.05Z" style="fill:#fff;opacity:0.4"></path><path d="M249.84,418.42c1.34-1.13,22.7-1.37,24.53,1.53s-19.8,7.07-20,4.1S247.31,420.55,249.84,418.42Z" style="fill:#fff;opacity:0.4"></path><path d="M181.78,418.42c7.62-1.95,15.58.11,20.35-.79s4.57.78,1,2.32-.59,4.9-5.93,4.1-18.47,3.26-19.32-1.53S177.72,419.46,181.78,418.42Z" style="fill:#fff;opacity:0.4"></path><path d="M143.8,418.42c-2.12-3.63-6.13-1.09-4.15-3.07s18.2-6.79,27.49-5.28,13.65,4.76,19,4-8.36,2.17-13.08,2.7-2.15,8.24-5.31,7.25S146.2,422.52,143.8,418.42Z" style="fill:#fff;opacity:0.4"></path><path d="M314.61,381.73c2.61,2.41-5.84,4-1.69,5.07s13.26,2.64,21.17,1.25,16.61.26,18.79-1.25-13.43-.58-14.73-1.64,6.42-1.46,1.48-4.82-15.08-2.37-16.54-2.18S310.76,378.16,314.61,381.73Z" style="fill:#fff;opacity:0.4"></path><path d="M343.58,377.88c4-1.1,11.47.28,10.88,2.46s6.55,2.07,8,2.42-16.13.94-16.33-.84S343.58,377.88,343.58,377.88Z" style="fill:#fff"></path><path d="M377.41,369.86c.29,0-8.9-4-10.39-7.22s2.67.63,2.67.63-3-4.19-1.68-4.49,3.86,3,5.44,3.17c0,0-1.29,2.79.1,3.77s5.14,4.33,8.7,2.95a47.38,47.38,0,0,0,5.34-2.37s-1.38,2.07.5,2.57,9.74.2,9.74.2-26.56,2.57-30.61.79,1.88-2.87,1-2.48S370.27,369.62,377.41,369.86Z" style="fill:#fff"></path><path d="M356,334.3s-3.17-8.36-1.32-8.82,1.32,4.41,1.32,4.41" style="fill:none;stroke:#263238;stroke-linecap:round;stroke-linejoin:round"></path><path d="M351.76,351.34s-9-6-8.18-7.59,4.07,2.54,4.07,2.54" style="fill:none;stroke:#263238;stroke-linecap:round;stroke-linejoin:round"></path><path d="M354.08,365.72c-.74-.08-13.57,1.92-14.14,0s7.07-.24,7.07-.24" style="fill:none;stroke:#263238;stroke-linecap:round;stroke-linejoin:round"></path><path d="M381.81,380.32c2.65.88,15.79-1.76,18.85-1.23a98.8,98.8,0,0,0,10.08.67" style="fill:none;stroke:#263238;stroke-linecap:round;stroke-linejoin:round"></path><path d="M362.57,401.16s-13.19-2.82-17.93-1.24-33.92,1.24-33.92,1.24" style="fill:none;stroke:#263238;stroke-linecap:round;stroke-linejoin:round"></path><path d="M370.22,401.19c.79.32,6.76,0,6.76,0" style="fill:none;stroke:#263238;stroke-linecap:round;stroke-linejoin:round"></path><path d="M335.09,420c-7.86-2.17-32.39,3-36.61,2.57s-14.27,1.53-14.27,1.53" style="fill:none;stroke:#263238;stroke-linecap:round;stroke-linejoin:round"></path><path d="M185.42,390.06c12.32-.16,23.13.06,25.77,1s13.93,1.2,13.93,1.2" style="fill:none;stroke:#263238;stroke-linecap:round;stroke-linejoin:round"></path><line x1="236.24" y1="392.27" x2="245.53" y2="392.27" style="fill:none;stroke:#263238;stroke-linecap:round;stroke-linejoin:round"></line><line x1="214.99" y1="376.68" x2="218.75" y2="376.68" style="fill:none;stroke:#263238;stroke-linecap:round;stroke-linejoin:round"></line><path d="M225.12,376.68s8.48-.1,11.12-1.22,15.68,2,22.87,2" style="fill:none;stroke:#263238;stroke-linecap:round;stroke-linejoin:round"></path><path d="M196.77,437.56c6.5-.19,17-.6,19.16,0s19,2.88,22.95,1.74a17.41,17.41,0,0,1,9.16,0c1.92.45,15.18,0,15.18,0" style="fill:none;stroke:#263238;stroke-linecap:round;stroke-linejoin:round"></path><path d="M274.3,439.3h13" style="fill:none;stroke:#263238;stroke-linecap:round;stroke-linejoin:round"></path></g><g id="freepik--Rain--inject-66"><path d="M218.52,80.92a.5.5,0,0,1-.5.5.5.5,0,0,1-.5-.5V77.18a.5.5,0,0,1,.5-.5.5.5,0,0,1,.5.5Zm-1-17.84v8.43a.51.51,0,0,0,.5.5.5.5,0,0,0,.5-.5V63.24Zm.5,79a.5.5,0,0,0,.5-.5v-15a.5.5,0,0,0-.5-.5.51.51,0,0,0-.5.5v15A.51.51,0,0,0,218,142Zm0-30a.5.5,0,0,0-.5.5v6.06a.5.5,0,0,0,.5.5.5.5,0,0,0,.5-.5v-6.06A.5.5,0,0,0,218,112Zm57.16,43.86a.5.5,0,0,0,.5.5.5.5,0,0,0,.5-.5V104.74l-1-1.17ZM218.52,89a.5.5,0,0,0-.5-.5.51.51,0,0,0-.5.5v13.71a.51.51,0,0,0,.5.5.5.5,0,0,0,.5-.5Zm29.57,63a.51.51,0,0,0,.5-.5V135.18a.51.51,0,0,0-.5-.5.5.5,0,0,0-.5.5v16.37A.5.5,0,0,0,248.09,152.05Zm0-32.65a.5.5,0,0,0-.5.5v4.67a.5.5,0,0,0,.5.5.5.5,0,0,0,.5-.5V119.9A.5.5,0,0,0,248.09,119.4Zm27.59,45.48a.5.5,0,0,0-.5.5v5a.5.5,0,0,0,.5.5.51.51,0,0,0,.5-.5v-5A.5.5,0,0,0,275.68,164.88ZM248.59,76.09l-1-.7v38.77a.5.5,0,0,0,.5.5.51.51,0,0,0,.5-.5ZM120.14,143.66a.5.5,0,0,0,.5-.5v-8.59a.5.5,0,0,0-.5-.5.5.5,0,0,0-.5.5v8.59A.5.5,0,0,0,120.14,143.66Zm63.1-50.13a.5.5,0,0,0-.5-.5.5.5,0,0,0-.5.5v4.22a.5.5,0,0,0,.5.5.51.51,0,0,0,.5-.5Zm-63.1,27a.5.5,0,0,0-.5.5v3.56a.5.5,0,0,0,.5.5.5.5,0,0,0,.5-.5V121A.51.51,0,0,0,120.14,120.51Zm.5-14.41-1,1.11v7a.5.5,0,0,0,.5.5.51.51,0,0,0,.5-.5Zm28.05,33.26a.5.5,0,0,0,.5-.5v-7.35a.5.5,0,0,0-.5-.5.5.5,0,0,0-.5.5v7.35A.5.5,0,0,0,148.69,139.36ZM182.74,106a.5.5,0,0,0-.5.5v30.33a.5.5,0,0,0,.5.5.5.5,0,0,0,.5-.5V106.45A.5.5,0,0,0,182.74,106Zm-34,19.12a.5.5,0,0,0,.5-.5V80.92a.45.45,0,0,0-.1-.27l-.4.27-.5.37v43.28A.5.5,0,0,0,148.76,125.07Zm34.48-60.31-1,.25V88a.5.5,0,0,0,.5.5.5.5,0,0,0,.5-.5ZM348,202.66a.5.5,0,0,0-.5.5v11.92a.5.5,0,0,0,.5.5.5.5,0,0,0,.5-.5V203.16A.5.5,0,0,0,348,202.66Zm26.71-44.25-1-.31v18.78a.5.5,0,0,0,.5.5.5.5,0,0,0,.5-.5Zm-27.57,90.17a.5.5,0,0,0,.5-.5V232.3a.5.5,0,0,0-.5-.5.5.5,0,0,0-.5.5v15.78A.5.5,0,0,0,347.09,248.58Zm57.53-2.91a.51.51,0,0,0,.5-.5V220.92a.51.51,0,0,0-.5-.5.5.5,0,0,0-.5.5v24.25A.5.5,0,0,0,404.62,245.67Zm-56.17-95.12-1-.3v45.1a.5.5,0,0,0,.5.5.5.5,0,0,0,.5-.5Zm56.17,115.58a.5.5,0,0,0,.5-.5v-6.58a.5.5,0,0,0-.5-.5.5.5,0,0,0-.5.5v6.58A.5.5,0,0,0,404.62,266.13Zm31-42.4a.5.5,0,0,0-.5.5V276.9a.5.5,0,0,0,.5.5.5.5,0,0,0,.5-.5V224.23A.5.5,0,0,0,435.6,223.73Zm-31.48-54.29v39.67a.5.5,0,0,0,.5.5.5.5,0,0,0,.5-.5v-39.2Zm31.48,124.5a.5.5,0,0,0,.5-.5v-6.2a.5.5,0,0,0-.5-.5.51.51,0,0,0-.5.5v6.2A.5.5,0,0,0,435.6,293.94Zm.5-95a.5.5,0,0,0-.5-.5.51.51,0,0,0-.5.5v14.32a.51.51,0,0,0,.5.5.5.5,0,0,0,.5-.5Zm-61.94,71.19a.51.51,0,0,0-.5.5v14a.51.51,0,0,0,.5.5.5.5,0,0,0,.5-.5v-14A.5.5,0,0,0,374.16,270.15Zm-51.6-121.44a.5.5,0,0,0-.5.5V167.3a.5.5,0,0,0,1,0V149.21A.5.5,0,0,0,322.56,148.71Zm.5,71v-40.1a.5.5,0,0,0-1,0v40.1a.5.5,0,0,0,1,0ZM299.27,213a.5.5,0,0,0,.5-.5v-6.7a.5.5,0,0,0-.5-.5.51.51,0,0,0-.5.5v6.7A.51.51,0,0,0,299.27,213Zm0-20.78a.5.5,0,0,0,.5-.5V157.16a.5.5,0,0,0-.5-.5.5.5,0,0,0-.5.5v34.52A.5.5,0,0,0,299.27,192.18Zm-23.59,10.65a.51.51,0,0,0,.5-.5V188.41a.5.5,0,0,0-.5-.5.5.5,0,0,0-.5.5v13.92A.5.5,0,0,0,275.68,202.83Zm99-16.23a.5.5,0,0,0-.5-.5.51.51,0,0,0-.5.5v8.75a.5.5,0,0,0,.5.5.5.5,0,0,0,.5-.5Zm0,22.51a.5.5,0,0,0-.5-.5.5.5,0,0,0-.5.5v49.94a.5.5,0,0,0,.5.5.5.5,0,0,0,.5-.5Zm-75.89-60.93a.5.5,0,0,0,.5.5.5.5,0,0,0,.5-.5V127.8l-1-.74Z" style="fill:#beeecb;opacity:0.7000000000000001"></path></g><g id="freepik--character-3--inject-66"><path d="M437.45,302s6.92,1.35,12.46-1.5c0,0,5.94,9.76,8.9,10.77,0,0-1.78,11.25,0,18,0,0-12.65,10.11-13.65,17,0,0-10.28-2-15,0,0,0-3.76-10.06-7.91-12,0,0,3.83-11.47,3.6-16.81C425.82,317.44,435.67,306.56,437.45,302Z" style="fill:#bfbfbf;stroke:#263238;stroke-linecap:round;stroke-linejoin:round"></path><path d="M437.45,302s-.1,4.31-4.55,9.27c0,0,8.71,5.17,11.57,13.68,0,0,3.86,5.14,0,18.79,0,0,6.93-11.28,13.06-14.94,0,0-1.19-13.05,0-16.71,0,0-6.93-6.53-8-10.09C449.52,302,441.51,304.38,437.45,302Z" style="fill-opacity:0.7000000000000001;opacity:0.30000000000000004"></path><line x1="421.03" y1="315.61" x2="444.77" y2="323.77" style="fill:none;stroke:#263238;stroke-linecap:round;stroke-linejoin:round"></line><path d="M439.23,305.19s5.14,6.32,5.54,18.58c0,0-1.58,9.3-13.06,20" style="fill:none;stroke:#263238;stroke-linecap:round;stroke-linejoin:round"></path><path d="M449.91,303.25a72.26,72.26,0,0,1-5.14,20.52s-6.46,5.26-19.06,9.55" style="fill:none;stroke:#263238;stroke-linecap:round;stroke-linejoin:round"></path><path d="M456.44,314.31s-4.15,7.09-11.67,9.46c0,0,3.36,10,0,18" style="fill:none;stroke:#263238;stroke-linecap:round;stroke-linejoin:round"></path><path d="M444.77,323.77A26.51,26.51,0,0,0,455.69,328" style="fill:none;stroke:#263238;stroke-linecap:round;stroke-linejoin:round"></path><path d="M410.74,280.67c-2-4.37-9.92-5.84-11-5s-4.75,6-3.5,9.54-1.92,3.16-4.69,5.93a5.54,5.54,0,0,0-1.79,4c.3-.7,1.11-1.62,3-2.81,0,0-3.37,3.83,0,6.35S409.92,289,409.92,289A9,9,0,0,0,410.74,280.67Z" style="fill:#263238"></path><path d="M425.71,315.07s1.13.92,1.72,1.45.66,2.17,0,2.57-3-.6-3.23-1.06a15.05,15.05,0,0,1-.46-3" style="fill:#fff;stroke:#263238;stroke-linecap:round;stroke-linejoin:round"></path><path d="M378.55,312.07l-2.76.33.29.64-1.83,1.09a1.82,1.82,0,0,0,.84,2.17c1.34.69,2.62-.06,4.21-1.76" style="fill:#fff;stroke:#263238;stroke-linecap:round;stroke-linejoin:round"></path><path d="M390.05,344.3c-.72,1.87-11.23,19-11.23,19s-6.85-5.59-6.78-7.93,6.6,2.56,6.6,2.56l7.87-18.49Z" style="fill:#263238"></path><path d="M408.59,350.28,419,365.18s.59,4.59-1.6,7.92H420s4.4-5.49,4.11-7.92-2.75-2.48-3.31-3.49-7.51-14-7.51-14Z" style="fill:#263238"></path><path d="M425.71,315.07a1.9,1.9,0,0,1-2.11.88l-7.9-8.63L411,303.25l-.51,3.27a.08.08,0,0,0,0,0l-1.17,7.55,2.61,13.15c.63,3.2-.46,12.79-.46,12.79l3.95,9.85a23,23,0,0,1-13.75,4.34c-5.72-.26-12.38-3.29-18.23-13.06l11.33-22.93-1.28-7.56a.28.28,0,0,1,0-.06l-.67-3.94-13.45,7.85a1.69,1.69,0,0,1-1-2.27l10.47-9s4.75-7.7,8.57-8.28c0,0,3.3-6.7,10-6.35,3.38.17,4.17,1.12,4.1,2a3.17,3.17,0,0,1-.93,1.73l8.66,11.47Z" style="fill:#92E3A9"></path><g style="clip-path:url(#freepik--clip-path--inject-66)"><path d="M396.25,339.41c-.58,3.55,7.74,5.95,9.45,10.07.69,1.66-1,3.72-4.09,4.76-5.72-.26-12.38-3.29-18.23-13.06l11.33-22.93-1.28-7.56c.27,1.24,4.65,21.12,11.19,27.06C411.36,343.88,396.83,335.87,396.25,339.41Z" style="fill-opacity:0.7000000000000001;opacity:0.30000000000000004"></path><path d="M425.71,315.07a1.9,1.9,0,0,1-2.11.88l-7.9-8.63L411,303.25l-.51,3.27a46.33,46.33,0,0,1,1.22-6.52c.47-2.25-.71-5.26-1.74-7.31a1.44,1.44,0,0,1,1.53-2.07h0a3.17,3.17,0,0,1-.93,1.73l8.66,11.47Z" style="fill-opacity:0.7000000000000001;opacity:0.30000000000000004"></path></g><path d="M425.71,315.07a1.9,1.9,0,0,1-2.11.88l-7.9-8.63L411,303.25l-.51,3.27a.08.08,0,0,0,0,0l-1.17,7.55,2.61,13.15c.63,3.2-.46,12.79-.46,12.79l3.95,9.85a23,23,0,0,1-13.75,4.34c-5.72-.26-12.38-3.29-18.23-13.06l11.33-22.93-1.28-7.56a.28.28,0,0,1,0-.06l-.67-3.94-13.45,7.85a1.69,1.69,0,0,1-1-2.27l10.47-9s4.75-7.7,8.57-8.28c0,0,3.3-6.7,10-6.35,3.38.17,4.17,1.12,4.1,2a3.17,3.17,0,0,1-.93,1.73l8.66,11.47Z" style="fill:none;stroke:#263238;stroke-linecap:round;stroke-linejoin:round"></path><line x1="392.75" y1="306.69" x2="399.75" y2="300.51" style="fill:none;stroke:#263238;stroke-linecap:round;stroke-linejoin:round"></line><path d="M411,303.25s2.1-5.06,1.18-6.51" style="fill:none;stroke:#263238;stroke-linecap:round;stroke-linejoin:round"></path><path d="M410.55,292.36s.92,5.3-1.32,6.22-8.57-3.61-8.57-3.61" style="fill:none;stroke:#263238;stroke-linecap:round;stroke-linejoin:round"></path><path d="M396.25,306a20.71,20.71,0,0,0,10.94,10.55" style="fill:none;stroke:#263238;stroke-linecap:round;stroke-linejoin:round"></path><path d="M394.71,318.25a31.91,31.91,0,0,0,8.52,18.11" style="fill:none;stroke:#263238;stroke-linecap:round;stroke-linejoin:round"></path></g><g id="freepik--character-2--inject-66"><path d="M280.18,292.36s-5.31,15.25-4.22,20.73,2.26,11.93,4.91,13.25,11.75-17,11.75-17Z" style="fill:#fff;stroke:#263238;stroke-linecap:round;stroke-linejoin:round"></path><path d="M290.37,283.22c-2,.79-6.58,18.38-6.58,18.38s3.83,6.41,8,6.54,7.5-9.72,7.5-9.72" style="fill:#757575;stroke:#263238;stroke-linecap:round;stroke-linejoin:round"></path><path d="M275.37,312.61s13.84,11,16.4,12.81,7.5-3,7.5-3l-16.4-15.76" style="fill:#fff;stroke:#263238;stroke-linecap:round;stroke-linejoin:round"></path><path d="M277.56,300.51c3.12,1.17,8.91,7.84,8.91,7.84s-3.83,8.84-6.29,8.6-5.75-4.34-5.75-4.34" style="fill:#92E3A9;stroke:#263238;stroke-linecap:round;stroke-linejoin:round"></path><path d="M329.41,351.21c0-2.7-.08-5.32-.17-7.66-.11-2.59-.24-4.83-.36-6.46s-.21-2.79-.21-2.79l-37.09.26-.86,7.4h0l-1,8.31s-3.3,12.2-6,24.47c-2,8.83-3.63,17.69-3.56,22.05a8.06,8.06,0,0,0,.22,1.88c1.43,5,6.79,29,9.37,40.62q8.85-1.57,17.47-3.58L297.05,396l9.75-27.16h2.64s1.64,37.44,1.37,38.56-1.37,23.53-1.37,23.53l-.09,4.32q8.83-2.1,17.34-4.63l1-23.22s-.67-31.06,1-42.73A98.44,98.44,0,0,0,329.41,351.21Z" style="fill:#263238"></path><path d="M290.37,283.22c.24-.35,7.66-3.28,15.6-5.47s22.46-.05,24.3,5.47,0,59.95,0,59.95a61.88,61.88,0,0,1-39.5.31s-.78-23.88-2-35.48S286.85,288.25,290.37,283.22Z" style="fill:#757575"></path><g style="clip-path:url(#freepik--clip-path-2--inject-66)"><path d="M330.27,343.17a61.88,61.88,0,0,1-39.5.31s0-.17,0-.5c20.53,3.74,34.22-13.53,33.45-15.67s-13.25,7.14-6.53-2.93,7.71-28,7.71-28l5.7,2.45C331.17,316.68,330.27,343.17,330.27,343.17Z" style="fill-opacity:0.7000000000000001;opacity:0.30000000000000004"></path></g><path d="M290.37,283.22c.24-.35,7.66-3.28,15.6-5.47s22.46-.05,24.3,5.47,0,59.95,0,59.95a61.88,61.88,0,0,1-39.5.31s-.78-23.88-2-35.48S286.85,288.25,290.37,283.22Z" style="fill:none;stroke:#263238;stroke-linecap:round;stroke-linejoin:round"></path><path d="M253.3,443.66c-.46-3.74-1.38-11.9-1.52-17.24-.17-7.12,1.76-19.05,1.76-19.05.26-19.85-2.53-45.76-2.53-45.76s-1.71-2.43-1-7.35c.31-2.1.87-4.78.87-4.78S277,332,283.23,341.1c1.65,2.41,2.21,7.48,2.13,13.67a181.1,181.1,0,0,1-1.63,20c-1.2,9.28-2.75,17.87-3.56,22.05-.27,1.41-.46,2.31-.52,2.58-.53,2.25-1.32,7.52-2.9,10.22-1.27,2.15-4.71,23.83-6.06,32.5" style="fill:#757575"></path><g style="clip-path:url(#freepik--clip-path-3--inject-66)"><path d="M285.36,354.77a181.1,181.1,0,0,1-1.63,20c-1.2,9.28-2.75,17.87-3.56,22.05-.27,1.41-.46,2.31-.52,2.58-.53,2.25-1.32,7.52-2.9,10.22-1.27,2.15-4.71,23.83-6.06,32.5l-5.86.53c.2-6.05.54-13.62.85-17.56a144.84,144.84,0,0,1,5-24.75c1.86-5.85,3-34.6,3-34.6C280,361,284.21,351,284.21,351l1.13.58C285.37,352.6,285.37,353.66,285.36,354.77Z" style="fill-opacity:0.7000000000000001;opacity:0.30000000000000004"></path></g><path d="M253.3,443.66c-.46-3.74-1.38-11.9-1.52-17.24-.17-7.12,1.76-19.05,1.76-19.05.26-19.85-2.53-45.76-2.53-45.76s-1.71-2.43-1-7.35c.31-2.1.87-4.78.87-4.78S277,332,283.23,341.1c1.65,2.41,2.21,7.48,2.13,13.67a181.1,181.1,0,0,1-1.63,20c-1.2,9.28-2.75,17.87-3.56,22.05-.27,1.41-.46,2.31-.52,2.58-.53,2.25-1.32,7.52-2.9,10.22-1.27,2.15-4.71,23.83-6.06,32.5" style="fill:none;stroke:#263238;stroke-linecap:round;stroke-linejoin:round"></path><path d="M302.21,273.9a10.78,10.78,0,0,1,.76,7.38s3.7,3.9,11.2-2.49c0,0-3.58-12.46-2.26-17.47S302.21,273.9,302.21,273.9Z" style="fill:#fff;stroke:#263238;stroke-linecap:round;stroke-linejoin:round"></path><path d="M248,302.75c-.24-1.5,26.82-5.26,29.52-2.24,8.95,10,5,24.3,5,24.3s-1.23,10.49,2.78,18.79c1.11,2.31.61,10.42.61,10.42-12.34,15.75-36.82,2.12-36.82,2.12-.39-10.51,8.14-24.83,8.14-24.83S249.88,314.42,248,302.75Z" style="fill:#92E3A9"></path><g style="clip-path:url(#freepik--clip-path-4--inject-66)"><path d="M263.22,343.09c6,8.57,10.66,6.51,10.2,9.62-.35,2.38-14.31,5.3-24.27,2.52.1-10.4,8.15-23.92,8.15-23.92s-3.15-7.18-5.86-15.41c2.16-3.73,3.76-6.18,3.76-6.18s4.87,7.31,6.62,8.53c4.3,3,19.67-3.18,19.67-3.18l1.95,2.23a31.17,31.17,0,0,1-.85,7.51s-1.11,9.43,2.2,17.48a19.76,19.76,0,0,1-12.68-.52C263.87,338.8,257.23,334.52,263.22,343.09Z" style="fill-opacity:0.7000000000000001;opacity:0.30000000000000004"></path></g><path d="M248,302.75c-.24-1.5,26.82-5.26,29.52-2.24,8.95,10,5,24.3,5,24.3s-1.23,10.49,2.78,18.79c1.11,2.31.61,10.42.61,10.42-12.34,15.75-36.82,2.12-36.82,2.12-.39-10.51,8.14-24.83,8.14-24.83S249.88,314.42,248,302.75Z" style="fill:none;stroke:#263238;stroke-linecap:round;stroke-linejoin:round"></path><path d="M269.63,289.8s-2.38,8.71,0,11.87a8.56,8.56,0,0,1-10-1.16s3.17-8.6,0-15.19S269.63,289.8,269.63,289.8Z" style="fill:#fff;stroke:#263238;stroke-linecap:round;stroke-linejoin:round"></path><path d="M239.06,247s10.65-16.66,33.89-15c0,0,9.16-6,24.31-4.35C314,229.43,320,236.16,320,236.16s13.13,3.61,18,11.14c0,0-21.27-2.34-29.81,8.92,0,0-37.45-3.3-47.95,5.22,0,0-17.76-6.17-33.54,1.56C226.64,263,228.88,249.76,239.06,247Z" style="fill:#92E3A9"></path><g style="clip-path:url(#freepik--clip-path-5--inject-66)"><path d="M239.06,247s10.65-16.66,33.89-15c0,0,9.16-6,24.31-4.35C314,229.43,320,236.16,320,236.16s13.13,3.61,18,11.14c0,0-21.27-2.34-29.81,8.92,0,0-37.45-3.3-47.95,5.22,0,0-17.76-6.17-33.54,1.56C226.64,263,228.88,249.76,239.06,247Z" style="fill-opacity:0.7000000000000001;opacity:0.30000000000000004"></path></g><path d="M239.06,247s10.65-16.66,33.89-15c0,0,9.16-6,24.31-4.35C314,229.43,320,236.16,320,236.16s13.13,3.61,18,11.14c0,0-21.27-2.34-29.81,8.92,0,0-37.45-3.3-47.95,5.22,0,0-17.76-6.17-33.54,1.56C226.64,263,228.88,249.76,239.06,247Z" style="fill:none;stroke:#263238;stroke-linecap:round;stroke-linejoin:round"></path><path d="M311.88,251.62c-3.69-6.88-19.79-3.94-20.08,2.61-.43,9.57,3.81,23,9,23.5C307.33,278.29,319.15,265.16,311.88,251.62Z" style="fill:#fff;stroke:#263238;stroke-linecap:round;stroke-linejoin:round"></path><path d="M261.4,266.65s5.36-2.64,10.13-.75,4.6,10.4,5.31,12.85,1.63,7.8.78,10.5-14.47,4.64-19.6,1.45S249.92,270.54,261.4,266.65Z" style="fill:#263238"></path><path d="M254.91,273.68c1.34-6.91,15-8.56,17-3,2.93,8.13,3.89,20.77-.5,22.56C266,295.46,252.27,287.31,254.91,273.68Z" style="fill:#fff;stroke:#263238;stroke-linecap:round;stroke-linejoin:round"></path><path d="M259.09,265.76s14.27-3.37,14.33,1.47c.17,13.43-10.89,20.1-10.89,20.1l1.36,7.59s-8,3.19-12.17,0S243.83,266.89,259.09,265.76Z" style="fill:#263238"></path><path d="M271.93,278.44s1.52,2.4,3,2.82-1.18,2.86-1.18,2.86" style="fill:#fff;stroke:#263238;stroke-linecap:round;stroke-linejoin:round"></path><path d="M304.19,246s-17.28,2-16.35,9.36,5.14,7.34,5.14,7.34l-.53-1.67,4.88,1.67.79-1.4,6.73,1.4v-1.53l3,1.53,1.31,3.21s.53-4.74,1.71-4.61,1.58,5,0,7.25c0,0,3.43,1,3.69-10.45S309.21,245.1,304.19,246Z" style="fill:#263238"></path><line x1="275.96" y1="224.13" x2="285.78" y2="321.25" style="fill:none;stroke:#263238;stroke-linecap:round;stroke-linejoin:round;stroke-width:3px"></line><polygon points="276.95 219.2 275.68 216.94 274.87 217.04 274.18 219.76 276.95 219.2" style="fill:#263238"></polygon><path d="M226.64,263s4.84-30.67,49.24-43.79c0,0,38.37-1.51,62.06,28.09,0,0-25-15.83-38.87-5.27,0,0-23.7-7.89-40,6.78C259,248.81,236.66,246.75,226.64,263Z" style="fill:#92E3A9;stroke:#263238;stroke-linecap:round;stroke-linejoin:round"></path><path d="M299,239.27s-5.28-17.33-23.09-20.06c0,0-13.46,2.42-16.29,25.19" style="fill:none;stroke:#263238;stroke-linecap:round;stroke-linejoin:round"></path><path d="M336.8,295s8.18,13.23,10.29,18A61.65,61.65,0,0,1,342,330.58C337.59,340.11,328.1,353,328.1,353l-5-4.48a68.84,68.84,0,0,0,6.32-12.92c2.38-6.86,8.45-19.52,8.45-19.52L326.78,301" style="fill:#fff;stroke:#263238;stroke-linecap:round;stroke-linejoin:round"></path><path d="M327.59,280.19c4.73,2.69,12.35,17.61,12.35,17.61s-9,9.44-10.53,8.87-7.9-8.87-7.9-8.87" style="fill:#757575;stroke:#263238;stroke-linecap:round;stroke-linejoin:round"></path><path d="M254.58,311.88l6.15,12.93,19.76-13.07c2.73-6.83,6.11-6.77,6.83-6.44s1.82,3.22,1.75,6.14-5.67,5.38-5.67,5.38S265.1,335,260.73,334.3s-12-13.5-12.69-17" style="fill:#fff;stroke:#263238;stroke-linecap:round;stroke-linejoin:round"></path><path d="M248,302.75c-5.66,4.66,0,18,0,18a72.1,72.1,0,0,1,8.85-6.2s-2.33-7.5-3.41-7.84" style="fill:#92E3A9;stroke:#263238;stroke-linecap:round;stroke-linejoin:round"></path><path d="M277.28,287.64s6.26-3,7.19-2.57,2.47,10.05,1.31,10.56-3.51,3.92-4.91,2.41S275.38,288.87,277.28,287.64Z" style="fill:#fff;stroke:#263238;stroke-linecap:round;stroke-linejoin:round"></path><path d="M295.71,265.81s-1,5.1-.53,6,3.3-1.17,3.3-1.17" style="fill:#fff;stroke:#263238;stroke-linecap:round;stroke-linejoin:round"></path><path d="M300.16,273.13A7.13,7.13,0,0,0,303,271" style="fill:none;stroke:#263238;stroke-linecap:round;stroke-linejoin:round"></path><path d="M269.63,286.38a3.05,3.05,0,0,0,3.24,0" style="fill:none;stroke:#263238;stroke-linecap:round;stroke-linejoin:round"></path><path d="M264.63,442.76c-.23-9.25,3-32.55,3-32.55s1.87-6.46,3.06-9.89,3-34.6,3-34.6,4,1.13,5.41,0" style="fill:none;stroke:#263238;stroke-linecap:round;stroke-linejoin:round"></path><path d="M268.47,363.27a29.72,29.72,0,0,1,5.22.78s5.17-.95,6.48-2.91" style="fill:none;stroke:#263238;stroke-linecap:round;stroke-linejoin:round"></path><path d="M272.11,365.72s-5.87,3.87-7.48,3.61" style="fill:none;stroke:#263238;stroke-linecap:round;stroke-linejoin:round"></path><path d="M256.81,416.8s2.38,9.89,4.35,14.51" style="fill:none;stroke:#263238;stroke-linecap:round;stroke-linejoin:round"></path><path d="M276.75,409.6s-3.56,1.66-4.89-1.24" style="fill:none;stroke:#263238;stroke-linecap:round;stroke-linejoin:round"></path><path d="M261.82,405.31c.4,0,1.37,3.05,2.8,3.05" style="fill:none;stroke:#263238;stroke-linecap:round;stroke-linejoin:round"></path><g style="opacity:0.2"><path d="M298.48,361.61s11.16,2.73,16.13,7.73" style="fill:none;stroke:#fff;stroke-linecap:round;stroke-linejoin:round"></path><path d="M295.06,397.68s-5.59,8-7.28,6.56" style="fill:none;stroke:#fff;stroke-linecap:round;stroke-linejoin:round"></path><path d="M321.51,411.79c-.87,2.64-4.84,14.42-7.34,16.31" style="fill:none;stroke:#fff;stroke-linecap:round;stroke-linejoin:round"></path><path d="M304.79,349.48s1,6.66,0,9a4.64,4.64,0,0,0,0,4.08" style="fill:none;stroke:#fff;stroke-linecap:round;stroke-linejoin:round"></path></g><path d="M314.61,314.49s-9.25,14.53-19.55,17.15" style="fill:none;stroke:#263238;stroke-linecap:round;stroke-linejoin:round"></path><path d="M300.16,283.22s6.69,4.33,12.83-.76" style="fill:none;stroke:#263238;stroke-linecap:round;stroke-linejoin:round"></path><path d="M323.09,295c.18-1.33,3.9-10,7.18-11.75" style="fill:none;stroke:#263238;stroke-linecap:round;stroke-linejoin:round"></path><path d="M282.29,343.75s-11.39,1.78-19.07-3.72" style="fill:none;stroke:#263238;stroke-linecap:round;stroke-linejoin:round"></path></g><g id="freepik--character-1--inject-66"><path d="M41.81,257S47.64,211.52,98,191.89c0,0,13.26-21.64,46.65-33.2,36.77-12.74,56-4.56,56-4.56s31.09-5.43,48.73,5.53c0,0-46.9,16.16-53.65,48.23,0,0-81.78,30.16-95.35,58.42,0,0-43.34,4.66-68.76,36.5C31.62,302.81,23.19,272.83,41.81,257Z" style="fill:#bfbfbf"></path><g style="clip-path:url(#freepik--clip-path-6--inject-66)"><path d="M41.81,257S47.64,211.52,98,191.89c0,0,13.26-21.64,46.65-33.2,36.77-12.74,56-4.56,56-4.56s31.09-5.43,48.73,5.53c0,0-46.9,16.16-53.65,48.23,0,0-81.78,30.16-95.35,58.42,0,0-43.34,4.66-68.76,36.5C31.62,302.81,23.19,272.83,41.81,257Z" style="fill-opacity:0.7000000000000001;opacity:0.30000000000000004"></path></g><path d="M41.81,257S47.64,211.52,98,191.89c0,0,13.26-21.64,46.65-33.2,36.77-12.74,56-4.56,56-4.56s31.09-5.43,48.73,5.53c0,0-46.9,16.16-53.65,48.23,0,0-81.78,30.16-95.35,58.42,0,0-43.34,4.66-68.76,36.5C31.62,302.81,23.19,272.83,41.81,257Z" style="fill:none;stroke:#263238;stroke-linecap:round;stroke-linejoin:round"></path><path d="M213.1,349s-1.08,6.42-2.81,14.52a207.89,207.89,0,0,1-5.54,21.36C203,390,201.2,394,199.36,395.5c-6.85,5.49-23.71-.09-27.15-8.9s-10.32-74.49-10.32-74.49L176.42,300s6.72,8.92,10.48,15.28c2.56,4.34,4.18,12.94,4.95,18,.36,2.35.53,3.92.53,3.92s3-18.14,4.43-19.91c0,0,3.78-6.29,9-3.52s10.93,16.88,11.19,22.16S213.1,349,213.1,349Z" style="fill:#92E3A9"></path><g style="clip-path:url(#freepik--clip-path-7--inject-66)"><path d="M204.75,384.91C203,390,201.2,394,199.36,395.5c-6.85,5.49-23.71-.09-27.15-8.9s-10.32-74.49-10.32-74.49L176.42,300s6.72,8.92,10.48,15.28c2.56,4.34,4.18,12.94,4.95,18-1,13.59-2.51,43.38,1.76,49.56C196.86,387.45,200.84,388.11,204.75,384.91Z" style="fill-opacity:0.7000000000000001;opacity:0.30000000000000004"></path><path d="M213.1,349s-1.08,6.42-2.81,14.52a5.21,5.21,0,0,1-4.73.06c-4.79-2.06-6.5-26.49-6.5-26.49S204.07,353.92,213.1,349Z" style="fill-opacity:0.7000000000000001;opacity:0.30000000000000004"></path></g><path d="M213.1,349s-1.08,6.42-2.81,14.52a207.89,207.89,0,0,1-5.54,21.36C203,390,201.2,394,199.36,395.5c-6.85,5.49-23.71-.09-27.15-8.9s-10.32-74.49-10.32-74.49L176.42,300s6.72,8.92,10.48,15.28c2.56,4.34,4.18,12.94,4.95,18,.36,2.35.53,3.92.53,3.92s3-18.14,4.43-19.91c0,0,3.78-6.29,9-3.52s10.93,16.88,11.19,22.16S213.1,349,213.1,349Z" style="fill:none;stroke:#263238;stroke-linecap:round;stroke-linejoin:round"></path><path d="M196.81,322.42s.18,11.12,7.69,15.67,10.29,0,10.49-2.38c0,0,0-10.68-7.64-17.54C203,314.24,196.23,318,196.81,322.42Z" style="fill:#263238"></path><path d="M198.05,324.16c-.2-.87-5.74-6.08-4.85-10.64s.43-10.53,2.89-11.91a4,4,0,0,1,4.29,0s2-4.1,4.14-2.51a17.1,17.1,0,0,0,4.91,2.51,5.69,5.69,0,0,1,3.22,3.53c.76,1.84,2.3,1.22,3.37,3.68a36.11,36.11,0,0,1,2.45,7.2,21.26,21.26,0,0,1,0,6.6s-.15,8.61-6.44,10S199.56,330.61,198.05,324.16Z" style="fill:#fff;stroke:#263238;stroke-linecap:round;stroke-linejoin:round"></path><path d="M143.92,213.74l81,120.38a5,5,0,0,1-1,4.47c-1.74,2-2.55.56-2.55.56L140.36,218.3Z" style="fill:#757575;stroke:#263238;stroke-linecap:round;stroke-linejoin:round"></path><path d="M214,315c-1.84,1.69-2.37,4.79-3.91,4.33s-1,2.26-2.53.73-2.46-1.53-3.09-2.91a8.79,8.79,0,0,0-2.69-3.58c-1.08-1-4.13-1.48-3.76-4.59s1-6.78,4.15-9.68" style="fill:#fff;stroke:#263238;stroke-linecap:round;stroke-linejoin:round"></path><path d="M202.44,318.17c.22-2.45-2.06-10.12-2.06-10.12,5.27,1.78,4-3.84,4-3.84l-4-2.6s-7.27-5.86-6.74,8.8" style="fill:#fff;stroke:#263238;stroke-linecap:round;stroke-linejoin:round"></path><path d="M108.49,202.15C89.78,215.05,93,261,94.13,276.6s-6.94,45.1-6.94,45.1,71.2,16.33,86.86,7.13-3.3-54-2.64-74.6,5.48-50.12-18.1-53.94S108.49,202.15,108.49,202.15Z" style="fill:#263238"></path><path d="M213.1,349s-4.85,2.31-7.22,1.92-7.86-8.31-7.86-8.31" style="fill:none;stroke:#263238;stroke-linecap:round;stroke-linejoin:round"></path><path d="M202.13,353.32s5.43,3.65,10.63-2.33" style="fill:none;stroke:#263238;stroke-linecap:round;stroke-linejoin:round"></path><polygon points="93.69 161.16 88.79 157.69 87.19 158.68 88.44 165.07 93.69 161.16" style="fill:#263238"></polygon><path d="M183.68,372.16l1.38,68.57q-6.23-1-12-2.41c-47.24-11.2-72.29-38.08-74-39.75a193.11,193.11,0,0,0,.23-22.8C98.09,357.47,87.19,302,87.19,302s4.51-8.38,16.46-14.56A56.54,56.54,0,0,1,119.82,282a68.7,68.7,0,0,1,7.15-.9,30.75,30.75,0,0,1,8.38.56c26.84,5.34,52.08,43,53.87,52.93C191.2,345.6,183.68,372.16,183.68,372.16Z" style="fill:#757575"></path><path d="M183.68,372.16l1.38,68.57q-6.23-1-12-2.41V412.58c-12.28,1.19-33.5-3.13-33.5-3.13l-2.79-18.21s16.14-21,22.47-25.52,13.45-14.46,13.82-20.09S155.67,305,153.8,304.26c-11.89-4.53-40.28-5.55-40.28-5.55l-9.87-11.32A56.54,56.54,0,0,1,119.82,282l15.53-.34c26.84,5.34,52.08,43,53.87,52.93C191.2,345.6,183.68,372.16,183.68,372.16Z" style="fill-opacity:0.7000000000000001;opacity:0.2"></path><path d="M99,398.57a193.11,193.11,0,0,0,.23-22.8C98.09,357.47,87.19,302,87.19,302s10-18.63,39.78-20.83,60.27,42.49,62.25,53.49-5.54,37.55-5.54,37.55l1.38,68.57" style="fill:none;stroke:#263238;stroke-linecap:round;stroke-linejoin:round"></path><path d="M152,288.3S177,319,177.89,343.76s2.58,93.8,2.58,93.8l8.21-2.55-1.93-31.69L185.52,400l-.77-26.34s5.84-31.89,4.44-39.08-6.31-23.05-6.31-23.05S183.88,300,152,288.3Z" style="fill:#92E3A9;stroke:#263238;stroke-linecap:round;stroke-linejoin:round"></path><path d="M107.24,283.21c6.28-4.07,48-8.81,70.65,21.05l-5,3,14,14.44s-.85,28.91-8.24,46.89c0,0-6.5-64-22.11-74.25s-40.26-10.82-47.39-6.86S107.24,283.21,107.24,283.21Z" style="fill:#92E3A9;stroke:#263238;stroke-linecap:round;stroke-linejoin:round"></path><path d="M114.15,291.16l1-9.71s16.21-7.93,36.2,1.67l4,13.83s-13.5,7-29.32,3.89" style="fill:#757575;stroke:#263238;stroke-linecap:round;stroke-linejoin:round"></path><path d="M145.07,378.69q-.12,3.85-.29,7.73c-.69,15.77-1.87,31.29-2.75,41.68a144.24,144.24,0,0,1-37.26-23.26q-2.94-2.55-5.73-5.27-3.74-3.63-7.18-7.51c0-2.89,0-5.18-.1-6.5a17.56,17.56,0,0,0-.29-1.75c-2-9.21-12.34-34.43-13.94-55.53q-.24-3.06-.21-6c.09-7.32,6.93-24.74,6.93-24.74s2.94-3.86,21.18-12.54c0,0,30.64,24.8,37.36,47.45C145.41,341.26,145.7,359.58,145.07,378.69Z" style="fill:#92E3A9"></path><path d="M145.07,378.69q-.12,3.85-.29,7.73l-2.86-3.66s-5.63,13.6-18.88,17.61c-7.19,2.18-20.71-7.37-31.57-16.56-2-9.21-12.34-34.43-13.94-55.53,8.49-3.51,21.13-8.47,24-8.12,4.07.51,18.94,19.32,21.22,22.21l-13.89-19,2.93-8.33-12.44-6.26,6.06-4.55,16.84,1,9.25,24.4Z" style="fill-opacity:0.7000000000000001;opacity:0.2"></path><path d="M91.86,392.06c0-2.89,0-5.18-.1-6.5C91,377.65,77,345.82,77.32,322.29c.09-7.32,6.93-24.74,6.93-24.74s2.94-3.86,21.18-12.54c0,0,30.64,24.8,37.36,47.45,5.12,17.22,1.34,70.91-.76,95.64" style="fill:none;stroke:#263238;stroke-linecap:round;stroke-linejoin:round"></path><path d="M114.33,250.54s9.19,19.49,4,33.25c0,0,22.52,8.66,29,2,0,0-.79-12.65,4-18.87" style="fill:#fff;stroke:#263238;stroke-linecap:round;stroke-linejoin:round"></path><path d="M108.53,255.55C99,235.09,93.76,201.22,130,197.4c27.2-2.87,35.13,18.64,35.11,32.48,0,5.29,1.51,15,1.71,22.7.31,11.72-6.43,21.37-12.67,23.52-5.74,2-24.85-2.08-28.48-9.13" style="fill:#fff;stroke:#263238;stroke-linecap:round;stroke-linejoin:round"></path><path d="M154.66,241.94a21,21,0,0,0,4.63,6.65c1.59,1.59-3.42,5.64-3.42,5.64" style="fill:#fff;stroke:#263238;stroke-linecap:round;stroke-linejoin:round"></path><path d="M157.13,228.56a14.11,14.11,0,0,0,7.94,0" style="fill:none;stroke:#263238;stroke-linecap:round;stroke-linejoin:round"></path><path d="M145.39,228.56s-7,2.62-12.89,2.62" style="fill:none;stroke:#263238;stroke-linecap:round;stroke-linejoin:round"></path><ellipse cx="141.92" cy="239.49" rx="1.21" ry="2.11" style="fill:#263238"></ellipse><ellipse cx="159.89" cy="238.6" rx="1.21" ry="2.12" style="fill:#263238"></ellipse><path d="M141.92,194.26a52.49,52.49,0,0,0-22.31,2.88c-23-.2-25.58,33.84-19.34,50.94S115.78,260,115.78,260s-7-16.31-1.61-18.38,6.24,5.09,6.24,5.09c.81-6.45,7.66-17.11,7.66-17.11,8.06-7.84,7.45-16.93,7.45-16.93,2.42,2.41,3.43,11.48,3.43,11.48.32-.07.64-.12,1-.18a19.35,19.35,0,0,0,.79-12.11,20.76,20.76,0,0,1,2.13,11.63,70.43,70.43,0,0,1,10.89-.67c.72-4.43,1.5-11.78-.68-14.79a25.81,25.81,0,0,1,3.49,14.88c.88,0,1.7.1,2.48.17.36-2.62.75-7-.34-9.2,0,0,2.71,2.72,2.53,9.41a56.41,56.41,0,0,1,5.6.86C169.49,205,154.66,195.32,141.92,194.26Z" style="fill:#263238"></path><path d="M118.57,242.34s-4.2-3.81-7.22-2.85-3.22,10.42-1,13.44,3,4.23,5.44,7.05,3.83,1.82,4,0" style="fill:#fff;stroke:#263238;stroke-linecap:round;stroke-linejoin:round"></path><g style="opacity:0.2"><path d="M118.48,227.73a46.61,46.61,0,0,1-9.62,9.14" style="fill:none;stroke:#fff;stroke-linecap:round;stroke-linejoin:round"></path><path d="M123.12,202.33c3,7,1.46,15.5-2.28,21.9" style="fill:none;stroke:#fff;stroke-linecap:round;stroke-linejoin:round"></path><path d="M126.68,198.16s8.71,6.15,5,18.78" style="fill:none;stroke:#fff;stroke-linecap:round;stroke-linejoin:round"></path><path d="M142.55,200.73c5.15,4.48,6.25,11.2,4.7,17.62" style="fill:none;stroke:#fff;stroke-linecap:round;stroke-linejoin:round"></path><path d="M134.17,196.38a21,21,0,0,1,5.18,2.1" style="fill:none;stroke:#fff;stroke-linecap:round;stroke-linejoin:round"></path><path d="M162.66,210.41a23,23,0,0,1,1.91,9.35" style="fill:none;stroke:#fff;stroke-linecap:round;stroke-linejoin:round"></path><path d="M146.69,197A26,26,0,0,1,160.9,207.2" style="fill:none;stroke:#fff;stroke-linecap:round;stroke-linejoin:round"></path><path d="M96.92,255.49a30.3,30.3,0,0,0,1.28,9.13" style="fill:none;stroke:#fff;stroke-linecap:round;stroke-linejoin:round"></path><path d="M116.76,205.68a83.34,83.34,0,0,1-6,15.15c-5.08,10.36-12.65,19.3-13.7,31.19" style="fill:none;stroke:#fff;stroke-linecap:round;stroke-linejoin:round"></path></g><path d="M170.41,270.82l-3.46-8-6-1.58s-1.65.59-1.1,1.78l5.7,1.48,3.07,7.13" style="fill:#92E3A9;stroke:#263238;stroke-linecap:round;stroke-linejoin:round"></path><path d="M197.36,273.6l-2.5,2.18.29,3.74,1.66,21.29.55,7s-11.87,6.23-24.31,4.36l-7.29-30.76-3-.56-2.28-6.12s12.58-8.89,36.87-7.52Z" style="fill:#bfbfbf;stroke:#263238;stroke-linecap:round;stroke-linejoin:round"></path><path d="M165.76,281.45s10.85-7,27.43-5.4" style="fill:none;stroke:#263238;stroke-linecap:round;stroke-linejoin:round"></path><path d="M197.36,273.6s-17.25-3.25-30.79,5" style="fill:none;stroke:#263238;stroke-linecap:round;stroke-linejoin:round"></path><path d="M173.05,312.21a52.91,52.91,0,0,1,21.66-5" style="fill:none;stroke:#263238;stroke-linecap:round;stroke-linejoin:round"></path><path d="M161.41,265.09a3.57,3.57,0,0,1-4.36.59" style="fill:none;stroke:#263238;stroke-linecap:round;stroke-linejoin:round"></path><path d="M159.23,259.05s1.18-2.16,1.73-1.08c0,0,1.63-.71,1.53,1.08" style="fill:none;stroke:#263238;stroke-linecap:round;stroke-linejoin:round"></path><path d="M196.81,300.81c-5.35-.53-14.18-6.65-11.7-15.34,2.07-7.26,6.82-7.05,10-6Z" style="fill:#fff;stroke:#263238;stroke-linecap:round;stroke-linejoin:round"></path><path d="M114.83,281s-6.41,1.09-9.23,3.12c-8.13,5.85-6.25,24.72-6.25,24.72l19.11.91-6.31,11s23.22,21.59,32.57,65.09c0,0,2.23-33.24-1.73-55.2-3-16.43-20.14-31.5-29-40.25a8.68,8.68,0,0,1-2.52-5.94" style="fill:#92E3A9;stroke:#263238;stroke-linecap:round;stroke-linejoin:round"></path><path d="M162.17,292.13,166.6,285l1.13,4.76s4.92-3,7.21-3.4,9.59-2.05,11.88-1.64,6.67,1.45,6.67,1.45,1.66,1.56-1.57,2.89a6,6,0,0,1,3,.95c1.52,1-3,3.67-3,3.67a1.9,1.9,0,0,1,1.36,1.66c0,1.25-3.75,3.75-6.88,6,0,0,1.67.65,1.67,1.78s-10.84,6.76-10.84,6.76-8.12,5.92-8.75,5.25S157.31,302.28,162.17,292.13Z" style="fill:#fff;stroke:#263238;stroke-linecap:round;stroke-linejoin:round"></path><polyline points="191.92 289.06 184.71 289.06 178.93 290.71" style="fill:none;stroke:#263238;stroke-linecap:round;stroke-linejoin:round"></polyline><polyline points="191.92 293.69 184.68 295.56 179.47 297.54" style="fill:none;stroke:#263238;stroke-linecap:round;stroke-linejoin:round"></polyline><line x1="186.4" y1="301.39" x2="178.93" y2="304.26" style="fill:none;stroke:#263238;stroke-linecap:round;stroke-linejoin:round"></line><path d="M192.38,337.12s-5.28,22.16-3.9,31.44-1.38,8.89-1.58,7.11" style="fill:none;stroke:#263238;stroke-linecap:round;stroke-linejoin:round"></path><path d="M31.62,302.81S11.37,233.73,91.47,162.25c0,0,78.94-41.17,157.91-2.59,0,0-68.14-8.4-86.71,27.45,0,0-57.5,6.93-77.22,53.87C85.45,241,36.52,258.83,31.62,302.81Z" style="fill:#bfbfbf;stroke:#263238;stroke-linecap:round;stroke-linejoin:round"></path><path d="M159.75,181.43s-28.23-31.1-68.28-19.18c0,0-25.82,18.39-9.21,68.93" style="fill:none;stroke:#263238;stroke-linecap:round;stroke-linejoin:round"></path><path d="M209.94,224.48a5.86,5.86,0,0,0-7,2,5.85,5.85,0,0,0-6.6-3.1c-4,.89-5.8,5.78-2.87,10.62a24,24,0,0,0,7.65,7.2l.59.35.65-.25a23.88,23.88,0,0,0,8.7-5.86C214.73,231.13,213.77,226,209.94,224.48Z" style="fill:none;stroke:#263238;stroke-linecap:round;stroke-linejoin:round"></path><polyline points="202.92 226.47 201.36 228.56 204.5 229.87 201.36 231.81 202.93 233.18 201.36 233.97 202.68 237.37" style="fill:none;stroke:#263238;stroke-linecap:round;stroke-linejoin:round"></polyline><path d="M201.36,244.4a13,13,0,0,1,0,1.5" style="fill:none;stroke:#263238;stroke-linecap:round;stroke-linejoin:round"></path><path d="M201.16,247.84c-.48,2.9-2,6.56-6.45,6.39-7.39-.28-6.29-5.78-2.79-3.62,3,1.84-.75,8.33-5.57,9.4" style="fill:none;stroke:#263238;stroke-linecap:round;stroke-linejoin:round;stroke-dasharray:2.9354300498962402,1.9569499492645264"></path><path d="M185.38,260.15a5.41,5.41,0,0,1-1.5-.09" style="fill:none;stroke:#263238;stroke-linecap:round;stroke-linejoin:round"></path><path d="M84.25,297.55c-11.74,9.89-8.86,39.61-3.57,49.26,13.72,25,34.82,46,42.53,46.66s24.77-19.44,28.52-28,18.44-40,18.44-40,6.77-1,7.61-1-3.34-20.42-5.28-25S162.45,292,162.45,292l-6.13,8.25-3.55.62-28.36,47.18C109.56,335.12,97.08,305.2,87.19,302" style="fill:#92E3A9;stroke:#263238;stroke-linecap:round;stroke-linejoin:round"></path><path d="M156.32,300.27c5.86-.36,8.61,10,8.61,10" style="fill:none;stroke:#263238;stroke-linecap:round;stroke-linejoin:round"></path><path d="M170.17,325.48l-1.36-6.38s1.45.15,1.91,3.19" style="fill:none;stroke:#263238;stroke-linecap:round;stroke-linejoin:round"></path><path d="M124.41,348.07s-6.94,9.2-5.16,13.36-1.85,4.94-3.1,3.36-3.57-7.05,1.32-10.37" style="fill:#92E3A9;stroke:#263238;stroke-linecap:round;stroke-linejoin:round"></path><path d="M123,346.81s-4.78-.52-9.52,4.18" style="fill:#92E3A9;stroke:#263238;stroke-linecap:round;stroke-linejoin:round"></path><path d="M95.52,304.26a21.06,21.06,0,0,1,3.83,10.23" style="fill:#92E3A9;stroke:#263238;stroke-linecap:round;stroke-linejoin:round"></path></g></svg>