<svg xmlns="http://www.w3.org/2000/svg" xmlns:xlink="http://www.w3.org/1999/xlink"
    viewBox="0 0 500 500">
    <defs>
        <clipPath id="freepik--clip-path--inject-1--inject-51">
            <circle cx="196.71" cy="364.3" r="28.3"
                style="fill:none;stroke:#263238;stroke-miterlimit:10"></circle>
        </clipPath>
        <clipPath id="freepik--clip-path-2--inject-1--inject-51">
            <path
                d="M298.86,160.87a76.44,76.44,0,1,0,76.43,76.43A76.43,76.43,0,0,0,298.86,160.87Zm0,110.24a33.81,33.81,0,1,1,33.81-33.81A33.81,33.81,0,0,1,298.86,271.11Z"
                style="fill:#407BFF;stroke:#263238;stroke-linecap:round;stroke-linejoin:round"></path>
        </clipPath>
        <clipPath id="freepik--clip-path-3--inject-1--inject-51">
            <path
                d="M300.21,187.7s-1.35,4.53-2.82,6.24-2.21,1.84-2.21,1.84a47.76,47.76,0,0,1-2.81-8.08,19.88,19.88,0,0,0-4.05-7.6s-2.69-21.07-3.55-24.25-1.1-7.84-2.57-10.78-6.72-5.57-7.46,1.43c-1.05,10,.72,29.8,1.46,35.44s3.79,19.11,4,22.41-.49,3.43-.49,7.35,2.08,13.6,3.06,17.77-.86,6.49-3.06,13.35-4.66,12.61-5.39,27.07,3.31,26.21,5.39,34.05,5.76,9.55,2.57,16.78-1.35,14.82,2.08,22.91,15.44,26.21,15.44,29.88-2.94,6.62-2.21,10.29,2.21,5.39,4.41,2,3.92-7.84,1-14.45-6.37-18.13-6.37-26.46-2-15.68-2-19.84a32.52,32.52,0,0,0-.73-7.11,51,51,0,0,0,1.71-13.47V278c0-3.67.25-6.37.25-6.37s12,4.9,19.11-1.71,4.16-16.91,2.2-22.54-8.33-13.47-8.33-14.94,9.31-10.54,11-15.44a70.66,70.66,0,0,1,4.65-10s9.07,6.37,11.76,8.08a57.73,57.73,0,0,0,6.61,3.43s-4.65,14.21-6.37,21.31-5.14,15.19-7.1,17.4-5.88,5.14-4.41,5.63,2.82-1.71,3.8-2.08.86,5.39.86,7.35.24,3.31,1.22,3.31.74-3.55.74-3.55.36,3.67,1,3.79.73-.12,1-.86a8.79,8.79,0,0,0,.24-2.08s.61,2.45,1.35,2.21.86-3.31.86-3.31.73,2.33,1.22,1.47.37-3.31.37-4.65-1.59-7.11-1.59-8.46,3.79-7.71,7.1-12.49a148.66,148.66,0,0,0,10-18.37c2.33-5,3.31-6.13,3.56-8.33s-7.84-6.37-10.66-9.07-10.66-8-12.37-9.67-5.88-5.39-10.54-4.41-8.57,3.18-10.29,3.06A32.58,32.58,0,0,1,309,196a22.59,22.59,0,0,1,3.56-8.58S310.13,184.14,300.21,187.7Z"
                style="fill:#fff;stroke:#263238;stroke-linecap:round;stroke-linejoin:round"></path>
        </clipPath>
        <clipPath id="freepik--clip-path-4--inject-1--inject-51">
            <path
                d="M312.7,158.17s-3.32.76-7.39,5.13a33.22,33.22,0,0,0-7.09,13.87c-.3,2.26-.6,9.8.91,11.46s5.27.91,9.5.31,6.93-1.21,8-2l1.06-.75s.3.45,3.31,0,5.28-3,3.77-4.07a7.85,7.85,0,0,0-3.47-1.21s7.24-3.62,7.39-9.95-4.07-10.41-8.14-12.22A10.46,10.46,0,0,0,312.7,158.17Z"
                style="fill:#fff;stroke:#263238;stroke-linecap:round;stroke-linejoin:round"></path>
        </clipPath>
        <clipPath id="freepik--clip-path-5--inject-1--inject-51">
            <path
                d="M282.07,150.91a46.86,46.86,0,0,0,12.36,4.68c6.56,1.33,17.36,3.11,19.92,3.11s9.12,4.34,10.23,4.68,2,.77,3.45,0,3.45-3.12,2.9-3.45-1.45.11-1.45.11.89-3.56.44-3.68a1.13,1.13,0,0,0-1.33,1v.78s-.56-3.34-1-3.34-.78.11-.78.89v1.22s-1.89-4.34-2.34-3.45.78,3,.78,3-2-2.93-2.38-2.47.82,2.8.82,2.8-2.18-1.84-3.89-1.89a14.33,14.33,0,0,0-4.23.89,34.76,34.76,0,0,1-11.46-5.12c-5.57-3.9-14-8.79-19.37-10s-7.79.12-9.12,2.67.22,11.58.22,11.58"
                style="fill:#fff;stroke:#263238;stroke-linecap:round;stroke-linejoin:round"></path>
        </clipPath>
        <clipPath id="freepik--clip-path-6--inject-1--inject-51">
            <path
                d="M318,249.93s-5.66-.62-19.38,3.3-25.72,11.51-26.21,15.43,4.41,9.56,6.37,12,15.68,25.23,18.13,32.09,2.45,7.59.24,12.25-3.67,9.55-1.71,10.53S303,331.62,304,324s1-3.19-1-10.78-3.18-25.23-5.39-31.11a87.86,87.86,0,0,0-4.16-9.56s3.85.34,5.88,1.72c5,3.42,13.84,4,18.37-.25C322.45,269.58,327.3,258.26,318,249.93Z"
                style="fill:#fff;stroke:#263238;stroke-linecap:round;stroke-linejoin:round"></path>
        </clipPath>
    </defs><!--In the Pool-->
    <g id="freepik--background-simple--inject-1--inject-51">
        <path
            d="M382.16,146.44S339.32,100,298.35,87.64,216.82,85.92,193.11,98.4s-35.57,53.65-59.9,81.11S87,245,83.91,296.81s28.38,98.95,57.87,119.67,75,25.71,131.81,7.62S381.32,349.49,406.7,294.45,421.47,190.74,382.16,146.44Z"
            style="fill:#407BFF"></path>
        <path
            d="M382.16,146.44S339.32,100,298.35,87.64,216.82,85.92,193.11,98.4s-35.57,53.65-59.9,81.11S87,245,83.91,296.81s28.38,98.95,57.87,119.67,75,25.71,131.81,7.62S381.32,349.49,406.7,294.45,421.47,190.74,382.16,146.44Z"
            style="fill:#fff;opacity:0.75"></path>
    </g>
    <g id="freepik--Pool--inject-1--inject-51">
        <path
            d="M147.24,420c.65.39,1.32.77,2,1.14l-4.37-6.82,7.82-5.42,5.36,8.37-7,4.87,1,.52,6.56-4.56,5.36,8.38-1.34.93c.37.14.74.29,1.12.42l.75-.52.65,1,1.62.57-1.4-2.19,7.82-5.43,5.36,8.38-2.66,1.84,1.28.32,1.91-1.33,1.29,2,1.44.3-1.86-2.91,7.82-5.43,5.35,8.38-2,1.37,1.49.17,1-.71.55.87,1.33.12-1-1.59,7.81-5.42,4.83,7.54h1.25l-5.21-8.15,7.82-5.42,5.36,8.37-7.49,5.2h1.74l6.28-4.36,2.57,4,1.19-.09-2.89-4.52,7.82-5.42,5.36,8.37-1,.67,2.44-.31-.08-.13,7.82-5.42,2.51,3.92,1.11-.21L241,427.4l7.82-5.43,4.89,7.63,1.08-.26-5.1-8,7.82-5.43,5.36,8.38L256.1,429l2.64-.65,4.67-3.22,1.09,1.66,1-.29-1.26-2,7.82-5.43,2.93,4.49,1-.34-3-4.75,7.82-5.42,4.4,6.73.91-.39-4.45-6.95,7.82-5.42,5.45,8.32-.14.09c2.31-1.14,4.61-2.36,6.89-3.62l2.45-1.7.16.25.83-.47-.21-.32,7.91-5.48.48.76c.27-.18.54-.34.8-.52l-.5-.79,7.9-5.48.52.8.77-.56-.5-.78,7.9-5.49.26.41.75-.6-.23-.35,4.15-2.88q3.25-2.75,6.43-5.62l-2.4,1.67-5.36-8.38,7.82-5.42,1.22,1.9.08-.06,3.62,5.66.71-.66-4.77-7.44,7.82-5.43L351,366l.08-.07,3.09,4.84c.23-.23.46-.46.68-.7l-3.71-5.8,7.82-5.43.09.14.08-.07,2.47,3.86.65-.74-2.42-3.79.21-.14.17-.17,7.51-5.2,1.06,1.66.63-.78-.91-1.42,4.62-3.21,1.94-2.5-7.08,4.9L362.64,343l7.81-5.43,4.08,6.37.07-.07,1.12,1.75.62-.81-5-7.84,7.82-5.42,2.68,4.18.07-.09.51.81.6-.84L380,331l7.82-5.42.87,1.37.07-.09.05.08.57-.88-.69-1.08,2.42-1.68c.43-.7.87-1.4,1.29-2.1l-4.24,2.95-5.36-8.38,7.82-5.43L394.9,317l.6-1-4-6.26,7.82-5.42,1.42,2.21.57-1.07-1.12-1.75,3.1-2.14c.31-.62.63-1.23.93-1.85l-4.56,3.16-5.36-8.37,7.82-5.43,4.11,6.42c.15-.34.32-.68.48-1a.61.61,0,0,1,.05-.12L403,288.44,410.8,283l0,.06a.5.5,0,0,1,0-.13l.39.61c.14-.37.27-.75.41-1.12l0-.05.07-.05.57-1.56-1.16.8-5.36-8.37,7.82-5.43,1.1,1.71,0-.14.82,1.29c.12-.41.25-.82.36-1.22l-1.44-2.24.92-.64,0-.05,1.5-1c.11-.47.24-.94.35-1.4l-3.32,2.3L408.57,258l7.82-5.42,1.38,2.15a.77.77,0,0,1,0-.15l1,1.56c.08-.46.17-.93.24-1.39L417.26,252l1.06-.74v-.05l1.3-.9.15-1.26-3,2.11-5.36-8.37,7.82-5.43.19.31a1.21,1.21,0,0,0,0-.19l1,1.61c0-.58,0-1.16,0-1.74l-.39-.62.4-.28c0-.38,0-.78,0-1.16l-.93.64-5.36-8.38,4.57-3.16v0l1-.69-.12-1.07-6,4.13-5.36-8.37,7.82-5.43,1.1,1.71c0-.1-.05-.19-.07-.29l1.63,2.55c-.14-.85-.32-1.69-.48-2.53l-1.33-2.07.8-.55c-.08-.33-.17-.66-.24-1l-1.07.74-5.36-8.38,2.58-1.79v0l1-.7c-.1-.32-.2-.63-.31-.95l-3.8,2.64-5.36-8.38,4.48-3.1v0l1-.7-.38-.9L404.65,193l-5.36-8.37,5.62-3.9,0,0,.36-.25c-.18-.26-.37-.51-.56-.77l-5.93,4.12-5.36-8.38,6.07-4.21-.51-.8-.92.63,0,0-5.15,3.58-5.36-8.38,5.89-4.08-.56-.78-2,1.38,0,0L387,165.4,381.62,157l5.16-3.58c-.2-.25-.4-.5-.61-.74l-3,2.08,0,0-2.06,1.43-5.36-8.38,3.9-2.71c-.22-.23-.43-.47-.65-.71l-3.85,2.68-5.38-8.41,2.23-1.55c-.23-.22-.45-.45-.68-.68l-2.06,1.43-5.38-8.41h0l-2.61-2.3,1.31,2-5.28,3.67,0,0-2.53,1.75-4.14-6.47a1.64,1.64,0,0,0-.22-.14l-1.09-1.71,6-4.15-.77-.62-5.73,4-5.38-8.4,2.83-2-.81-.6-2.53,1.75-4.14-6.47-2-1.33,5.34,8.35-4.43,3.07,0,0-3.37,2.34L330,115.48l-.19-.1-.94-1.48,7.88-5.47-.85-.57-7.55,5.23-5.37-8.4,3.75-2.61-.9-.53-3.37,2.34-4.31-6.74-1.72-.93,5.25,8.21-5.7,3.95h0l-2.1,1.46-2.14-3.36-.16,0-3.14-4.91,7.8-5.41-.94-.51-7.38,5.12-5.37-8.41L305,90.51l-1-.47-2.11,1.46-2.14-3.35-1.45-.51,2.81,4.4-7.9,5.49-5.38-8.41,4.48-3.1-1.23-.31-3.76,2.61-2.52-3.93-1.28-.24,3,4.71-7.9,5.49-5.38-8.41,3.94-2.73L275.82,83l-3,2.11-1.63-2.55L270,82.5l2,3.18-7.91,5.49-5.37-8.41.85-.59c-.79,0-1.57,0-2.35,0l.2.3L249.52,88l-3.13-4.9-1,.16,3.38,5.28L240.84,94l-3.6-5.62-.56.9,3.37,5.27-7.9,5.48L231,98.3l-.56.9.89,1.38-3.11,2.16-1.28,2,4.9-3.39,5.38,8.4-7.91,5.48-4.51-7.06-.56.9,4.29,6.71-7.9,5.48-2-3.18-.56.9,1.81,2.82-6.32,4.39-1.69,2.7,5.22,8.15-7.91,5.48-3-4.61-.56.89,2.73,4.27-7.91,5.48-.46-.73-.56.89.24.38-.85.6-1.29,2.05,2.66-1.84,5.37,8.4-7.9,5.48-3.88-6-.56.89,3.65,5.71-7.9,5.48-1.39-2.17-.56.89,1.17,1.82-4.08,2.83-1.28,2.05,5.87-4.07,5.38,8.4-7.91,5.48-4.79-7.49-.56.89,4.57,7.15-7.9,5.48-2.31-3.61-.56.89,2.08,3.26-7.29,5.07-1.29,2.05.41-.29,5.38,8.41L166,212.37l-3.23-5.05-.56.89,3,4.71-7.9,5.48-.75-1.17-.56.9.52.81-1.83,1.27-1.28,2,3.63-2.51,5.37,8.4-7.9,5.48-4.15-6.49-.56.9,3.93,6.14-7.91,5.48-1.67-2.61-.56.9,1.45,2.25L140,243.71l-1.28,2L145.6,241l5.38,8.4-7.91,5.48L138,247l-.56.9,4.85,7.58-7.9,5.48-2.59-4.05-.56.9,2.36,3.7L125.7,267l-.1-.16-1.55,2.46,1.38-.95,5.38,8.4-7.91,5.48-3.51-5.48-.56.89,3.29,5.14-7.9,5.48-1-1.6-.56.89.8,1.25-2.8,1.95-1.28,2.05,4.6-3.19,5.37,8.4-7.9,5.48L107,296.52l-.56.89,4.21,6.58-7.91,5.48-1.94-3-.56.89L102,310l-6,4.18-1.29,2.05,7.82-5.42,5.38,8.4-7.9,5.49-5.36-8.37-.56.89,5.13,8L92.35,330c0,.36.07.72.11,1.08l7.21-5,5.37,8.41-7.9,5.48L92.71,333c.1.76.2,1.52.32,2.27l3.33,5.2-2.1,1.45c.08.34.15.68.22,1l2.39-1.65,5.38,8.4-5,3.46c.11.31.21.62.32.94l5.18-3.6,5.36,8.38-2,1.39v0l-4.93,3.42.38.9,7.08-4.92,5.36,8.38-4.9,3.39v0l-3.2,2.22.45.84,8.17-5.66,5.36,8.37L113,382v0l-1.64,1.14.51.81,8.51-5.9,5.36,8.37-8,5.56,0,0-.16.11c.2.25.39.51.58.76l8.11-5.63,5.36,8.38-7.6,5.27.66.7.48-.33,0,0,7-4.84,5.36,8.38-5.51,3.82.74.65.24-.17,0,0,5-3.49,5.36,8.37-2.52,1.75.81.6h0l0,0,2.21-1.54Zm.42-20.91,7.82-5.43,5.36,8.38L153,407.48Zm37.25-79,7.82-5.43,5.35,8.38-7.81,5.42Zm4.49,9-7.82,5.42-5.36-8.37,7.82-5.43Zm12.88-21,7.82-5.43,5.36,8.38-7.82,5.42Zm4.49,9L199,322.44l-5.36-8.38,7.82-5.42Zm12.89-21,7.81-5.42,5.36,8.37L225,304.36Zm4.49,9-7.82,5.42L211,302l7.82-5.43Zm21.57-27.06,7.82-5.42,5.35,8.37-7.81,5.43Zm4.49,9-7.82,5.42L237,283.93l7.82-5.43Zm12.88-21,7.82-5.43,5.36,8.38-7.82,5.42Zm4.49,9-7.82,5.43-5.36-8.38,7.82-5.42Zm4.2-15,7.82-5.43,5.36,8.38-7.82,5.42Zm-.53-.83-5.36-8.38,7.82-5.42,5.36,8.37Zm-.87.6L262.56,265l-5.36-8.37,7.82-5.43Zm-8.69,6L253.87,271l-5.36-8.37,7.82-5.43Zm-2.26,16.06,5.36,8.38L257,295.48l-5.36-8.37Zm.87-.6,7.81-5.42,5.36,8.37-7.82,5.43Zm8.68-6,7.82-5.42,5.36,8.37-7.82,5.43Zm8.69-6,7.82-5.43,5.36,8.38L283,277.4Zm8.69-6,7.82-5.43,5.35,8.38-7.81,5.43Zm5,9.81,5.36,8.38-7.82,5.42-5.36-8.38Zm.87-.6,7.82-5.43,5.35,8.38-7.81,5.42Zm8.68-6,7.82-5.43,5.36,8.38-7.82,5.43Zm-.53-.83L295,257l7.82-5.42,5.36,8.37Zm-5.89-9.21-5.36-8.38,7.82-5.42,5.36,8.38Zm-.87.6-7.81,5.43-5.36-8.38,7.81-5.42ZM279.93,253l-5.35-8.38,7.81-5.42,5.36,8.38ZM274,243.75l-5.35-8.37L276.5,230l5.36,8.38Zm-.86.61-7.82,5.42L260,241.4l7.82-5.42Zm-13.71-3.79-5.36-8.37,7.82-5.43,5.35,8.38Zm5,9.81-7.82,5.43-5.36-8.38,7.82-5.42Zm-8.69,6L248,261.83l-5.36-8.37,7.82-5.43ZM253,271.64l-7.81,5.43-5.36-8.38,7.82-5.42Zm-8.68,6-7.82,5.43-5.36-8.38L239,269.3Zm-8.69,6-7.82,5.42-5.36-8.37,7.82-5.43ZM228.34,290l7.82-5.42,5.36,8.38-7.82,5.42Zm13.71,3.79,5.36,8.37-7.82,5.43-5.36-8.38Zm.87-.61,7.82-5.42,5.36,8.38-7.82,5.42Zm13.71,3.79,5.36,8.37-7.82,5.43-5.36-8.38Zm.87-.61,7.82-5.42,5.36,8.38-7.82,5.42Zm8.69-6,7.81-5.43,5.36,8.38-7.82,5.42Zm8.68-6,7.82-5.42,5.36,8.37-7.82,5.43ZM288.58,288l5.36,8.38-7.82,5.42-5.36-8.37Zm.87-.6,7.82-5.42,5.36,8.37-7.82,5.43Zm8.69-6L306,276l5.35,8.37-7.81,5.43Zm8.69-6,7.81-5.43,5.36,8.38-7.82,5.42Zm2.79-15.24,7.82-5.42,5.36,8.37L315,268.53Zm8.69-6,7.82-5.42,5.36,8.38-7.82,5.42Zm-.53-.83-5.36-8.37,7.82-5.43,5.36,8.38Zm-.87.61-7.82,5.42L303.73,251l7.82-5.43Zm-13.71-3.79-5.36-8.37,7.82-5.43,5.36,8.38Zm-5.89-9.2L292,232.53l7.82-5.42,5.36,8.37Zm-.87.6-7.82,5.42-5.36-8.37,7.82-5.43Zm-13.71-3.78-5.36-8.38,7.82-5.42,5.36,8.37Zm-5.89-9.21-5.36-8.38,7.82-5.42,5.36,8.38Zm-.87.6-7.82,5.43-5.35-8.38,7.81-5.42Zm-13.71-3.78L256.9,217l7.82-5.42,5.36,8.38Zm-.87.6-7.81,5.43L248.22,223l7.82-5.42Zm-2.79,15.24-7.82,5.42-5.36-8.38,7.82-5.42Zm-8.69,6-7.82,5.43-5.36-8.38,7.82-5.42Zm-2.8,15.24-7.81,5.42-5.36-8.37,7.82-5.43Zm-8.68,6-7.82,5.43-5.36-8.38,7.82-5.42Zm-8.69,6-7.82,5.43-5.36-8.38,7.82-5.42Zm-2.8,15.24-7.82,5.42-5.35-8.38,7.81-5.42Zm-8.68,6-7.82,5.43-5.36-8.38,7.82-5.42ZM216,311.82l5.36,8.37-7.82,5.43-5.36-8.38Zm.87-.6,7.82-5.43,5.36,8.38-7.82,5.42Zm8.69-6,7.82-5.43,5.35,8.38-7.82,5.42ZM239.26,309l5.35,8.38-7.81,5.42-5.36-8.37Zm.86-.6,7.82-5.43,5.36,8.38-7.82,5.42Zm13.71,3.78,5.36,8.38L251.37,326,246,317.58Zm.87-.6,7.82-5.43,5.36,8.38-7.82,5.42Zm8.69-6,7.82-5.42,5.36,8.37-7.82,5.43Zm8.69-6,7.81-5.42,5.36,8.38-7.82,5.42Zm13.71,3.79,5.35,8.37-7.81,5.43L278,308.7Zm.86-.61,7.82-5.42,5.36,8.38L292,311.05Zm8.69-6,7.82-5.43,5.36,8.38L300.7,305Zm8.69-6,7.82-5.42,5.36,8.37L309.39,299Zm8.69-6,7.81-5.42,5.36,8.38L318.07,293Zm2.79-15.23,7.82-5.42,5.36,8.37-7.82,5.43Zm8.69-6,7.82-5.42,5.36,8.37-7.82,5.43Zm8.69-6,7.82-5.43,5.35,8.38-7.81,5.42Zm2.79-15.24,7.82-5.42,5.36,8.37L341,250.45Zm4.49,9-7.81,5.42L327,248.1l7.81-5.43Zm-13.71-3.78-5.35-8.38,7.81-5.42,5.36,8.37Zm-5.89-9.21-5.35-8.38,7.81-5.42,5.36,8.38Zm-.86.6-7.82,5.43-5.36-8.38,7.82-5.42ZM306,234.88l-5.36-8.38,7.82-5.42,5.36,8.38Zm-5.89-9.21-5.36-8.37,7.82-5.43,5.35,8.38Zm-.87.61-7.82,5.42-5.36-8.38,7.82-5.42Zm-13.71-3.79-5.36-8.37,7.82-5.43,5.36,8.38Zm-5.89-9.2-5.36-8.38,7.82-5.43,5.36,8.38Zm-.87.6L271,219.31l-5.36-8.37,7.82-5.43Zm-13.71-3.79-5.36-8.37,7.82-5.43,5.36,8.38Zm-.87.61-7.82,5.42L251,207.76l7.82-5.43Zm-8.69,6-7.81,5.43-5.36-8.38,7.82-5.42ZM252.71,232l-7.82,5.42L239.53,229l7.82-5.43ZM244,238l-7.82,5.42L230.84,235l7.82-5.42Zm-2.8,15.23-7.82,5.42-5.35-8.37,7.81-5.43Zm-8.68,6-7.82,5.42-5.36-8.37,7.82-5.43Zm-8.69,6L216,270.71l-5.36-8.38,7.82-5.42Zm-2.8,15.24-7.82,5.42-5.35-8.37,7.81-5.43Zm-8.69,6L204.55,292l-5.36-8.38,7.82-5.42Zm-2.79,15.23-7.82,5.42-5.36-8.37,7.82-5.43Zm-8.69,6-7.82,5.42-5.36-8.38,7.82-5.42Zm-2.26,16.06,5.36,8.38-7.82,5.42-5.36-8.37Zm.86-.6,7.82-5.43,5.36,8.38-7.82,5.43Zm13.71,3.78,5.36,8.38-7.82,5.42-5.35-8.37Zm.87-.6,7.82-5.43,5.36,8.38-7.82,5.43Zm8.69-6,7.82-5.42,5.36,8.37-7.82,5.43Zm13.71,3.79,5.36,8.37L234,338l-5.36-8.38Zm.87-.61,7.82-5.42,5.35,8.37L242.69,332ZM251,327.39l5.36,8.37-7.82,5.43-5.36-8.38Zm.87-.61,7.81-5.42,5.36,8.37-7.82,5.43Zm8.68-6,7.82-5.43,5.36,8.38L266,329.13Zm8.69-6,7.82-5.43,5.36,8.38-7.82,5.42ZM283,318.51l5.36,8.38-7.82,5.42-5.36-8.37Zm.87-.6,7.82-5.43,5.35,8.38-7.81,5.43Zm8.68-6,7.82-5.42,5.36,8.37-7.82,5.43Zm8.69-6,7.82-5.42,5.36,8.38-7.82,5.42Zm8.69-6,7.82-5.43,5.36,8.38-7.82,5.42Zm8.69-6,7.81-5.42,5.36,8.37L324,302.18Zm2.79-15.23,7.82-5.43,5.36,8.38-7.82,5.42Zm8.69-6,7.82-5.42,5.36,8.37-7.82,5.43Zm8.69-6,7.82-5.42,5.35,8.37-7.81,5.43Zm2.79-15.23,7.82-5.43,5.36,8.38-7.82,5.42Zm8.69-6,7.82-5.42,5.36,8.37-7.82,5.43Zm-.53-.83L344.37,236l7.82-5.42,5.36,8.38Zm-5.89-9.21-5.36-8.37,7.82-5.43,5.36,8.38Zm-.87.61-7.82,5.42-5.36-8.38,7.82-5.42ZM329.26,232l-5.36-8.37,7.82-5.43,5.36,8.38Zm-5.89-9.2L318,214.45l7.82-5.42,5.36,8.37Zm-.87.6-7.82,5.42-5.36-8.37,7.82-5.43Zm-13.71-3.78-5.36-8.38,7.82-5.42,5.36,8.37Zm-5.89-9.21-5.36-8.38,7.82-5.42,5.36,8.37Zm-.87.6-7.81,5.43-5.36-8.38,7.82-5.43Zm-13.7-3.78L283,198.88l7.81-5.42,5.36,8.37Zm-5.9-9.21-5.35-8.38,7.81-5.42,5.36,8.38Zm-.86.6-7.82,5.43-5.36-8.38,7.82-5.42Zm-13.71-3.78-5.36-8.38,7.82-5.42,5.36,8.38Zm-.87.6-7.82,5.43-5.36-8.38,7.82-5.42Zm-13.71-3.78-5.36-8.38,7.82-5.42,5.36,8.38Zm5,9.81-7.82,5.42-5.36-8.37,7.82-5.43Zm-8.69,6L241.8,213l-5.36-8.37,7.82-5.43Zm-2.79,15.23L239,228.19l-5.36-8.38,7.82-5.42Zm-8.69,6-7.82,5.42L225,225.84l7.82-5.43ZM235.33,244l-7.82,5.43-5.35-8.38,7.81-5.42Zm-8.68,6-7.82,5.42-5.36-8.37,7.82-5.43Zm-8.69,6-7.82,5.42-5.36-8.38,7.82-5.42Zm-2.8,15.23-7.82,5.43L202,268.36l7.82-5.43Zm-8.69,6-7.81,5.42-5.36-8.37,7.82-5.43Zm-2.79,15.23L195.86,298l-5.36-8.38,7.82-5.42Zm-8.69,6L187.17,304l-5.36-8.37,7.82-5.43Zm-2.8,15.23-7.81,5.43L179,310.88l7.82-5.42Zm-8.68,6-7.82,5.42-5.36-8.37,7.82-5.43Zm-8.69,6L167,331.31l-5.36-8.37,7.82-5.43Zm.53.83,5.36,8.37-7.82,5.43-5.36-8.38Zm5.89,9.21,5.36,8.37-7.82,5.43-5.36-8.38Zm.87-.61,7.82-5.42,5.36,8.37-7.82,5.43Zm13.71,3.79,5.36,8.37-7.82,5.43L188,344.53Zm.87-.61,7.82-5.42,5.36,8.38-7.82,5.42Zm13.71,3.79,5.36,8.37-7.82,5.43-5.36-8.38Zm.87-.61,7.81-5.42,5.36,8.38-7.82,5.42Zm8.68-6,7.82-5.43,5.36,8.38L225.31,344Zm13.71,3.78,5.36,8.38-7.82,5.42-5.36-8.38Zm.87-.6,7.82-5.43,5.36,8.38-7.82,5.42Zm13.71,3.78L253.6,351l-7.82,5.42L240.42,348Zm.87-.6,7.82-5.43,5.36,8.38-7.82,5.42Zm8.69-6,7.81-5.42,5.36,8.37-7.82,5.43Zm8.68-6,7.82-5.42,5.36,8.37-7.82,5.43Zm13.71,3.79,5.36,8.37-7.82,5.43-5.36-8.38Zm.87-.61,7.82-5.42,5.36,8.37-7.82,5.43Zm8.69-6,7.82-5.43,5.35,8.38-7.81,5.42Zm8.68-6,7.82-5.43,5.36,8.38-7.82,5.43Zm8.69-6,7.82-5.42L320.3,318l-7.82,5.43Zm8.69-6,7.82-5.43L329,312l-7.82,5.42Zm8.69-6,7.81-5.43,5.36,8.38-7.82,5.42Zm2.79-15.24,7.82-5.42,5.36,8.38-7.82,5.42Zm8.69-6,7.82-5.43,5.36,8.38-7.82,5.42Zm8.69-6,7.82-5.42,5.35,8.37L350,284.1Zm2.79-15.23,7.82-5.43,5.36,8.38-7.82,5.42Zm8.69-6L364,249l5.36,8.38-7.82,5.42Zm2.8-15.24,7.82-5.42,5.36,8.38-7.82,5.42Zm-.53-.83L353.06,230l7.82-5.43,5.36,8.38Zm-5.89-9.2-5.36-8.38,7.82-5.42,5.35,8.37ZM346.64,220l-5.36-8.38,7.82-5.42,5.35,8.37Zm-.87.6L338,226l-5.36-8.38,7.82-5.42Zm-13.71-3.78-5.36-8.38,7.82-5.42,5.36,8.37Zm-5.89-9.21-5.36-8.37,7.82-5.43,5.36,8.38Zm-.87.6-7.82,5.43-5.36-8.38,7.82-5.42Zm-13.71-3.78L306.23,196l7.82-5.43,5.36,8.38Zm-5.89-9.21-5.36-8.37,7.82-5.43,5.36,8.38Zm-.87.61L297,201.23l-5.36-8.38,7.82-5.42ZM291.12,192l-5.36-8.37,7.82-5.43,5.36,8.38Zm-5.89-9.2-5.36-8.38,7.82-5.42,5.36,8.37Zm-.87.6-7.82,5.42-5.35-8.37L279,175Zm-13.71-3.78-5.35-8.38,7.81-5.42,5.36,8.37Zm-.86.6L262,185.66l-5.36-8.37,7.82-5.43Zm-13.71-3.78-5.36-8.38,7.82-5.42,5.35,8.37Zm-.87.6-7.82,5.42L242,174.11l7.82-5.43Zm-2.8,15.23-7.82,5.43-5.36-8.38,7.82-5.42Zm-8.69,6-7.81,5.42-5.36-8.37,7.81-5.43Zm-2.79,15.23L233.11,219l-5.36-8.38,7.82-5.42Zm-8.69,6L224.42,225l-5.36-8.38,7.82-5.42Zm-2.8,15.24-7.82,5.42-5.35-8.38,7.81-5.42Zm-8.68,6-7.82,5.43-5.36-8.38,7.82-5.42Zm-8.69,6-7.82,5.42-5.36-8.37,7.82-5.43Zm-2.8,15.23-7.82,5.43-5.36-8.38,7.82-5.42Zm-8.69,6-7.81,5.43-5.36-8.38,7.82-5.43Zm-2.79,15.23L190,288.79l-5.36-8.38,7.82-5.42Zm-8.69,6-7.82,5.43-5.36-8.38,7.82-5.42Zm-2.8,15.24-7.81,5.42-5.36-8.38,7.81-5.42Zm-8.68,6-7.82,5.43-5.36-8.38,7.82-5.42Zm-8.69,6-7.82,5.42-5.36-8.37,7.82-5.43Zm-2.8,15.23-7.82,5.43L153,329l7.82-5.42Zm.53.84,5.36,8.37-7.82,5.43-5.35-8.38Zm5.89,9.2,5.36,8.38-7.82,5.42-5.35-8.37Zm5.89,9.21,5.36,8.38L176,365l-5.35-8.38Zm.87-.6,7.82-5.43,5.36,8.38-7.82,5.42ZM193,354.34l5.36,8.38-7.82,5.42-5.36-8.38Zm.87-.6,7.82-5.43,5.36,8.38-7.82,5.42Zm13.71,3.78L213,365.9l-7.82,5.42L199.78,363Zm.87-.6,7.82-5.43,5.36,8.38-7.82,5.42Zm8.69-6,7.81-5.42,5.36,8.37-7.81,5.43Zm13.7,3.78,5.36,8.38-7.81,5.42-5.36-8.37Zm.87-.6,7.82-5.42,5.36,8.37-7.82,5.43Zm13.71,3.78,5.36,8.38L243,371.65l-5.36-8.37Zm.87-.6,7.82-5.42,5.36,8.37-7.82,5.43Zm8.69-6,7.82-5.42,5.36,8.38-7.82,5.42Zm8.69-6,7.81-5.43,5.36,8.38L269,353.57Zm13.7,3.78,5.36,8.38-7.81,5.42-5.36-8.38Zm.87-.6,7.82-5.43,5.36,8.38-7.82,5.42Zm8.69-6,7.82-5.42,5.36,8.37-7.82,5.43Zm8.69-6,7.82-5.42,5.36,8.38L301,344.7Zm13.71,3.79,5.36,8.37-7.82,5.43-5.36-8.38Zm-5-9.81,7.82-5.43,5.36,8.38-7.82,5.42Zm8.69-6,7.82-5.43,5.36,8.38-7.82,5.43Zm8.69-6,7.82-5.42,5.36,8.37-7.82,5.43Zm8.69-6,7.82-5.43,5.35,8.38-7.81,5.42ZM333.18,297l7.82-5.42,5.36,8.37-7.82,5.43Zm8.69-6,7.82-5.42,5.36,8.38-7.82,5.42Zm8.69-6,7.82-5.43,5.36,8.38-7.82,5.42Zm2.79-15.24,7.82-5.42,5.36,8.38-7.82,5.42Zm8.69-6,7.82-5.43,5.36,8.38L367.4,272Zm2.8-15.24,7.82-5.42,5.36,8.37-7.82,5.43Zm2.8-15.23,7.81-5.43,5.36,8.38L373,241.57Zm-.54-.83L361.74,224l7.82-5.42,5.36,8.37Zm-5.89-9.21-5.36-8.38,7.82-5.42,5.36,8.37ZM355.32,214,350,205.58l7.82-5.43,5.36,8.38Zm-5.89-9.21-5.36-8.37,7.82-5.43,5.36,8.38Zm-.87.61-7.81,5.42-5.36-8.37L343.2,197Zm-13.71-3.79-5.35-8.37,7.81-5.43,5.36,8.38Zm-5.89-9.2L323.61,184l7.81-5.42,5.36,8.37Zm-.86.6-7.82,5.42L314.92,190l7.82-5.43Zm-13.71-3.78L309,180.8l7.82-5.42,5.36,8.37ZM308.5,180l-5.36-8.38,7.82-5.42,5.35,8.38Zm-.87.6L299.81,186l-5.36-8.38,7.82-5.42Zm-13.71-3.78-5.36-8.38,7.82-5.42,5.36,8.38ZM288,167.58l-5.36-8.37,7.82-5.43,5.36,8.38Zm-.87.61-7.82,5.42L274,165.23l7.82-5.42Zm-13.71-3.79L268.09,156l7.82-5.43,5.36,8.38Zm-.87.6-7.82,5.43-5.36-8.38,7.82-5.42Zm-13.71-3.78-5.36-8.37,7.82-5.43,5.36,8.38Zm-.87.6-7.81,5.43-5.36-8.38,7.82-5.42Zm-8.68,6-7.82,5.43-5.36-8.38,7.82-5.42Zm-2.8,15.24-7.82,5.42-5.36-8.38,7.82-5.42Zm-8.69,6L230,194.54l-5.35-8.38,7.81-5.42ZM235,204.35l-7.82,5.42-5.36-8.37,7.82-5.43Zm-8.69,6-7.82,5.43-5.36-8.38L221,202Zm-2.8,15.24L215.73,231l-5.35-8.37,7.81-5.43Zm-8.69,6-7.81,5.42-5.36-8.38,7.82-5.42Zm-8.68,6-7.82,5.43L193,234.71l7.82-5.42Zm-2.8,15.24-7.82,5.42L190.2,250l7.82-5.43Zm-8.69,6-7.81,5.43L181.52,256l7.81-5.42Zm-2.79,15.24-7.82,5.42-5.36-8.37,7.82-5.43Zm-8.69,6-7.82,5.43L170,277.23l7.82-5.42Zm-2.8,15.24-7.82,5.42-5.35-8.37,7.81-5.43Zm-8.68,6-7.82,5.42-5.36-8.38,7.82-5.42Zm-8.69,6-7.82,5.43-5.36-8.38,7.82-5.42Zm-2.8,15.24-7.82,5.42-5.36-8.37,7.82-5.43Zm-8.69,6-7.81,5.43-5.36-8.38,7.82-5.42Zm.54.84,5.36,8.37-7.82,5.43L144.27,335Zm5.89,9.2,5.36,8.38-7.82,5.42-5.36-8.37Zm5.89,9.21,5.36,8.38-7.82,5.42-5.36-8.38Zm5.89,9.21,5.36,8.37L167.3,371l-5.36-8.38Zm5.89,9.2,5.36,8.38-7.82,5.42-5.36-8.37Zm.87-.6,7.82-5.42,5.35,8.37-7.81,5.43Zm13.71,3.78,5.35,8.38-7.81,5.43L182.41,375Zm.86-.6,7.82-5.42,5.36,8.37-7.82,5.43Zm13.71,3.78,5.36,8.38-7.82,5.43L197,378.18Zm.87-.6,7.82-5.42,5.36,8.37L211,380.53Zm8.69-6,7.82-5.42,5.36,8.38-7.82,5.42Zm13.71,3.79,5.36,8.37-7.82,5.43-5.36-8.38Zm.87-.6,7.82-5.43,5.35,8.38-7.81,5.42Zm13.71,3.78,5.35,8.37-7.81,5.43-5.36-8.38Zm.86-.6,7.82-5.43,5.36,8.38-7.82,5.42Zm8.69-6L260,361l5.36,8.38-7.82,5.42Zm8.69-6,7.82-5.42,5.36,8.37-7.82,5.43Zm13.71,3.78,5.36,8.38L272.14,378l-5.36-8.37Zm.87-.6,7.82-5.42,5.35,8.37L280.83,372Zm8.68-6,7.82-5.42,5.36,8.38L289.51,366Zm8.69-6,7.82-5.43,5.36,8.38-7.82,5.42Zm13.71,3.78,5.36,8.38-7.82,5.42-5.36-8.38Zm.87-.6,7.82-5.43,5.36,8.38-7.82,5.42Zm2.8-15.24,7.81-5.42,5.36,8.38-7.82,5.42Zm8.68-6,7.82-5.43,5.36,8.38-7.82,5.42Zm8.69-6,7.82-5.42,5.36,8.37L333,335.83Zm8.69-6L344.1,316l5.35,8.37-7.81,5.43Zm2.79-15.23,7.82-5.43,5.36,8.38-7.82,5.42Zm8.69-6,7.82-5.42,5.36,8.37-7.82,5.43Zm8.69-6,7.82-5.42,5.36,8.38-7.82,5.42Zm2.8-15.23,7.81-5.42,5.36,8.37-7.82,5.43Zm8.68-6,7.82-5.42,5.36,8.37-7.82,5.43Zm2.8-15.23,7.82-5.43,5.36,8.38L376.09,266Zm8.69-6,7.82-5.42,5.35,8.37L384.78,260Zm-.54-.83-5.35-8.38,7.81-5.42,5.36,8.38Zm-2.56-23.61,7.82-5.42,5.36,8.37-7.82,5.43Zm-.53-.83L370.43,218l7.82-5.42,5.36,8.38Zm-5.89-9.21-5.36-8.37,7.82-5.43,5.36,8.38ZM364,207.92l-5.36-8.37,7.82-5.43,5.36,8.38Zm-5.89-9.2-5.36-8.38,7.82-5.42,5.36,8.37Zm-5.89-9.21-5.36-8.38,7.82-5.42,5.36,8.38Zm-.87.6-7.82,5.43-5.36-8.38,7.82-5.42Zm-13.71-3.78L332.29,178l7.82-5.42,5.36,8.38Zm-5.89-9.21-5.36-8.37,7.82-5.43,5.36,8.38Zm-.87.61-7.82,5.42-5.35-8.38,7.81-5.42Zm-13.71-3.79-5.36-8.37,7.82-5.43,5.36,8.38Zm-5.89-9.2-5.36-8.38,7.82-5.42,5.36,8.37Zm-.87.6-7.81,5.42-5.36-8.37,7.82-5.43Zm-13.7-3.78-5.36-8.38,7.81-5.42,5.36,8.37Zm-5.89-9.21L285.47,144l7.81-5.42,5.36,8.37Zm-.87.6-7.82,5.43L276.78,150l7.82-5.43Zm-13.71-3.78-5.36-8.38,7.82-5.42,5.36,8.37Zm-.87.6-7.82,5.43-5.36-8.38,7.82-5.43ZM261.67,146l-5.36-8.38,7.82-5.42,5.36,8.37Zm-.87.6L253,152l-5.36-8.37,7.82-5.43Zm-8.69,6L244.3,158l-5.36-8.37,7.82-5.43Zm-8.68,6-7.82,5.43-5.36-8.38,7.82-5.42Zm-2.8,15.24-7.82,5.42-5.36-8.37,7.82-5.43Zm-8.69,6-7.82,5.42L218.77,177l7.81-5.42Zm-2.79,15.23-7.82,5.42L216,192.19l7.82-5.43Zm-8.69,6-7.82,5.42-5.36-8.37,7.82-5.43Zm-2.8,15.23-7.82,5.43-5.36-8.38L212.3,208Zm-8.69,6-7.81,5.42-5.36-8.37,7.82-5.43Zm-8.68,6-7.82,5.42-5.36-8.38,7.82-5.42Zm-2.8,15.23-7.82,5.42-5.36-8.37,7.82-5.43Zm-8.69,6L181,255.14l-5.35-8.38,7.81-5.42ZM186,265l-7.82,5.43L172.83,262l7.82-5.43Zm-8.69,6-7.82,5.42L164.14,268,172,262.6Zm-2.8,15.23-7.82,5.43-5.35-8.38,7.81-5.42Zm-8.68,6L158,297.66l-5.36-8.37,7.82-5.43Zm-8.69,6-7.82,5.42L144,295.31l7.82-5.42Zm-2.8,15.23-7.82,5.42-5.36-8.37,7.82-5.43Zm-8.69,6L137.85,325l-5.36-8.37,7.82-5.43Zm-2.79,15.23-7.82,5.43-5.36-8.38,7.82-5.42Zm.53.83,5.36,8.38-7.82,5.42L135.58,341Zm5.89,9.21,5.36,8.38-7.82,5.42-5.36-8.38Zm5.89,9.21,5.36,8.37-7.82,5.43-5.36-8.38Zm5.89,9.2,5.36,8.38L158.61,377l-5.36-8.37Zm5.89,9.21,5.36,8.38-7.82,5.42-5.36-8.37Zm5.89,9.21,5.36,8.37-7.82,5.43L165,387.05Zm.87-.6,7.82-5.43L186.9,384l-7.82,5.42Zm13.71,3.78,5.36,8.37L185,398.61l-5.36-8.38Zm.87-.6,7.82-5.43,5.35,8.38-7.81,5.42ZM202,388l5.36,8.37-7.82,5.43-5.36-8.38Zm.87-.6,7.81-5.43,5.36,8.38-7.82,5.42Zm8.68-6,7.82-5.43,5.36,8.38-7.82,5.43Zm13.71,3.78,5.36,8.38-7.82,5.42-5.36-8.37Zm.87-.6,7.82-5.43,5.36,8.38-7.82,5.43Zm13.71,3.78,5.36,8.38-7.82,5.42L232,393.75Zm.87-.6,7.82-5.42,5.36,8.37-7.82,5.43Zm8.68-6,7.82-5.42,5.36,8.37-7.82,5.43Zm8.69-6,7.82-5.43,5.36,8.38L263.45,384Zm13.71,3.78,5.36,8.37-7.82,5.43L264,384.87Zm.87-.6,7.82-5.43,5.36,8.38L278,387.22Zm8.69-6,7.82-5.43,5.35,8.38-7.81,5.42Zm8.68-6,7.82-5.42,5.36,8.37-7.82,5.43Zm13.71,3.78,5.36,8.38-7.82,5.43L295.93,376Zm.87-.6,7.82-5.42,5.36,8.37L310,378.35Zm8.69-6,7.82-5.43,5.36,8.38-7.82,5.42Zm2.8-15.24,7.81-5.42,5.36,8.37-7.82,5.43Zm8.68-6,7.82-5.42,5.36,8.38-7.82,5.42Zm8.69-6,7.82-5.43,5.36,8.38L338.84,345Zm8.69-6,7.82-5.42,5.35,8.37L347.53,339ZM345,315.4l7.82-5.43,5.36,8.38-7.82,5.42Zm8.69-6,7.82-5.43,5.36,8.38L359,317.74Zm8.69-6,7.82-5.42,5.36,8.37-7.82,5.43Zm2.8-15.23,7.81-5.43,5.36,8.38-7.82,5.42Zm8.68-6,7.82-5.42L387,285l-7.82,5.43Zm2.8-15.23,7.82-5.43,5.36,8.38L382,275.22Zm8.69-6,7.82-5.43,5.35,8.38-7.81,5.42Zm2.79-15.24,7.82-5.42,5.36,8.38L393.46,254Zm-.53-.83-5.36-8.37L390,231l5.36,8.38ZM385,221.14l7.82-5.42,5.36,8.38-7.82,5.42Zm-.53-.83-5.36-8.37,7.82-5.43,5.36,8.38Zm-5.89-9.2-5.36-8.38,7.82-5.43,5.36,8.38Zm-5.89-9.21-5.36-8.38,7.82-5.42,5.36,8.37Zm-5.89-9.21-5.36-8.38,7.82-5.42,5.36,8.38Zm-5.89-9.21-5.36-8.37,7.82-5.43,5.36,8.38Zm-5.89-9.2-5.36-8.38,7.82-5.42,5.35,8.37Zm-.87.6-7.82,5.42L341,171.93l7.82-5.43Zm-13.71-3.78-5.36-8.38,7.82-5.42,5.36,8.37Zm-5.89-9.21-5.36-8.38,7.82-5.42,5.36,8.37Zm-.87.6-7.82,5.43-5.36-8.38,7.82-5.42ZM320,158.71l-5.36-8.38,7.82-5.42,5.36,8.37Zm-5.89-9.21-5.36-8.37,7.82-5.43,5.36,8.38Zm-.87.6-7.82,5.43L300,147.15l7.82-5.42Zm-13.71-3.78L294.15,138l7.82-5.43,5.36,8.38Zm-5.89-9.21-5.36-8.37,7.82-5.43,5.36,8.38Zm-.87.61-7.82,5.42-5.35-8.38,7.81-5.42ZM279,133.93l-5.35-8.37,7.81-5.43,5.36,8.38Zm-.86.61L270.36,140,265,131.58l7.82-5.42Zm-13.71-3.79-5.36-8.37,7.82-5.43,5.36,8.38Zm-.87.61-7.82,5.42-5.36-8.38,7.82-5.42Zm-13.71-3.79-5.36-8.37,7.82-5.43,5.36,8.38Zm5,9.81-7.82,5.43-5.36-8.38,7.82-5.42Zm-8.69,6-7.82,5.42-5.35-8.37,7.81-5.43Zm-8.68,6-7.82,5.42-5.36-8.37,7.82-5.43Zm-2.8,15.23-7.82,5.43-5.36-8.38,7.82-5.42Zm-8.69,6-7.82,5.42-5.35-8.37,7.81-5.43Zm-2.79,15.23-7.82,5.43L210.08,183l7.82-5.42Zm-8.69,6-7.82,5.42L201.39,189l7.82-5.43Zm-2.8,15.23L204,212.62l-5.36-8.38,7.82-5.42Zm-8.69,6-7.81,5.43-5.36-8.38,7.82-5.43Zm-8.68,6-7.82,5.42-5.36-8.37,7.82-5.43Zm-2.8,15.23-7.82,5.43-5.36-8.38,7.82-5.42Zm-8.69,6-7.82,5.42-5.35-8.37,7.81-5.43Zm-2.79,15.23-7.82,5.43-5.36-8.38,7.82-5.42Zm-8.69,6-7.82,5.42-5.36-8.37,7.82-5.43ZM168.63,277l-7.82,5.43-5.35-8.38,7.81-5.42ZM160,283l-7.82,5.43-5.36-8.38,7.82-5.42Zm-8.69,6-7.82,5.42-5.36-8.37,7.82-5.43Zm-2.8,15.23-7.82,5.43-5.36-8.38,7.82-5.42Zm-8.69,6L132,315.74l-5.36-8.37,7.81-5.43ZM137,325.55,129.16,331l-5.36-8.38,7.82-5.42Zm-8.69,6L120.47,337l-5.36-8.37,7.82-5.42Zm.53.83,5.36,8.38-7.82,5.42L121,337.84Zm5.89,9.21,5.36,8.38-7.82,5.42L126.89,347Zm5.89,9.21L146,359.2l-7.82,5.43-5.36-8.38Zm5.89,9.2,5.36,8.38L144,373.83l-5.36-8.37Zm5.89,9.21,5.36,8.38L149.92,383l-5.36-8.37Zm5.89,9.21,5.36,8.37-7.82,5.43-5.35-8.38Zm5.89,9.21,5.36,8.37-7.82,5.43-5.35-8.38Zm5.89,9.2,5.36,8.38-7.81,5.42-5.36-8.37Zm.87-.6,7.82-5.42,5.36,8.37-7.82,5.43ZM184.63,400l5.36,8.38-7.82,5.42-5.36-8.37Zm.87-.6,7.82-5.42,5.36,8.37-7.82,5.43Zm13.71,3.78,5.36,8.38L196.75,417l-5.36-8.37Zm.87-.6,7.82-5.42,5.36,8.37L205.44,411Zm8.69-6,7.81-5.42,5.36,8.38L214.12,405Zm13.7,3.79,5.36,8.37L220,414.18l-5.35-8.38Zm.87-.61,7.82-5.42,5.36,8.38-7.82,5.42Zm13.71,3.79,5.36,8.37-7.82,5.43L229.23,409Zm.87-.61,7.82-5.42,5.36,8.38-7.82,5.42Zm8.69-6,7.82-5.43,5.36,8.38L252,405.3Zm8.69-6,7.81-5.42,5.36,8.37-7.82,5.43Zm13.7,3.78,5.36,8.38-7.82,5.42-5.35-8.37Zm.87-.6,7.82-5.42,5.36,8.37-7.82,5.43Zm8.69-6,7.82-5.42,5.36,8.37-7.82,5.43Zm8.69-6,7.82-5.43,5.35,8.38-7.81,5.42ZM301,385.81l5.36,8.38-7.82,5.42-5.36-8.38Zm.87-.6,7.81-5.43,5.36,8.38-7.82,5.42Zm8.68-6,7.82-5.43,5.36,8.38-7.82,5.43Zm8.69-6,7.82-5.42,5.36,8.37-7.82,5.43Zm2.8-15.23,7.82-5.43,5.35,8.38-7.81,5.42Zm8.68-6,7.82-5.42,5.36,8.37L336,360.27Zm8.69-6,7.82-5.42,5.36,8.38-7.82,5.42Zm8.69-6,7.82-5.43,5.36,8.38-7.82,5.42Zm2.79-15.24,7.82-5.42,5.36,8.37L356.21,333Zm8.69-6,7.82-5.43,5.36,8.38L364.9,327Zm8.69-6,7.82-5.43,5.36,8.38-7.82,5.42Zm2.8-15.24,7.81-5.42,5.36,8.38-7.82,5.42Zm8.68-6,7.82-5.43,5.36,8.38-7.82,5.42Zm2.8-15.24,7.82-5.42,5.36,8.38-7.82,5.42Zm8.69-6L399,264.6l5.36,8.38-7.82,5.42ZM394,254.79l7.82-5.42,5.36,8.37-7.82,5.43Zm2.8-15.23,7.82-5.43,5.36,8.38-7.82,5.42Zm-.53-.83-5.36-8.38,7.82-5.42,5.36,8.37Zm-2.56-23.61,7.82-5.43,5.35,8.38-7.81,5.42Zm-.53-.83-5.36-8.38,7.81-5.43,5.36,8.38Zm-5.9-9.21-5.35-8.38,7.81-5.42,5.36,8.37Zm-5.89-9.21L376,187.49l7.81-5.42,5.36,8.38Zm-5.89-9.21-5.35-8.37,7.81-5.43,5.36,8.38Zm-5.89-9.2-5.36-8.38,7.82-5.42,5.36,8.37Zm-5.89-9.21-5.36-8.38,7.82-5.42,5.36,8.37ZM357.82,159l-5.36-8.37,7.82-5.43,5.36,8.38Zm-.87.61-7.81,5.42-5.36-8.38,7.82-5.42Zm-13.7-3.79-5.36-8.37,7.82-5.43,5.35,8.38Zm-5.9-9.21L332,138.28l7.81-5.43,5.36,8.38Zm-.86.61-7.82,5.42-5.36-8.37,7.82-5.43Zm-13.71-3.79-5.36-8.37,7.82-5.43,5.36,8.38Zm-5.89-9.2-5.36-8.38,7.82-5.42,5.36,8.37Zm-.87.6-7.82,5.42-5.36-8.37,7.82-5.43Zm-13.71-3.78L297,122.71l7.82-5.42,5.36,8.37Zm-5.89-9.21-5.36-8.38,7.82-5.42,5.36,8.38Zm-.87.6-7.82,5.43-5.36-8.38,7.82-5.42Zm-13.71-3.78-5.36-8.38,7.82-5.42,5.36,8.38Zm-.87.6-7.82,5.43-5.35-8.38,7.81-5.42Zm-13.71-3.78-5.36-8.38,7.82-5.42,5.36,8.38Zm-.87.6-7.81,5.43-5.36-8.38,7.82-5.42Zm-13.7-3.78-3.6-5.62-.06.1-1.79-2.8,7.91-5.48,5.35,8.38Zm-.87.6L244,118.37l-1.11-1.74-.06.1-4.28-6.68,7.91-5.48ZM249,128.18l-7.82,5.42-4.52-7.06-.06.1-.86-1.36,7.9-5.48Zm-8.69,6-7.82,5.43-2-3.18-.06.1-3.35-5.24,7.9-5.48Zm-8.68,6-6.24,4.33,0,.07-1.6,1.11-5.38-8.4,7.91-5.49Zm-2.8,15.23L221,160.89l-2.95-4.62-.06.1-2.43-3.8,7.9-5.48Zm-8.69,6-7.82,5.43-.47-.74-.06.1-4.91-7.68,7.9-5.48ZM212,168.35l5.36,8.38-7.82,5.42-3.88-6.06-.06.1-1.51-2.36Zm-3.33,14.4-7.82,5.43L199.47,186l-.06.1-4-6.24,7.91-5.48ZM205.88,198l-7.82,5.42-4.79-7.49-.06.09-.59-.92,7.9-5.48Zm-8.69,6-7.81,5.43-2.32-3.61-.06.09-3.07-4.8,7.91-5.48Zm-8.68,6-7.21,5-.05.07-.63.44-5.38-8.4,7.91-5.49Zm-2.8,15.23-7.82,5.43-3.23-5-.06.1-2.15-3.37,7.9-5.48Zm-8.69,6-7.82,5.43-.74-1.17-.06.1-4.64-7.25,7.9-5.48Zm-8.15,6.86,5.36,8.38L166.41,252l-4.16-6.49-.06.1L161,243.64Zm-3.33,14.4L157.72,258l-1.67-2.61-.06.1-3.71-5.81,7.9-5.48Zm-2.8,15.24-7.82,5.42-5.07-7.93-.06.1-.31-.48,7.9-5.49Zm-8.69,6-7.81,5.43-2.59-4.05-.06.1-2.8-4.37,7.91-5.48Zm-8.68,6-7.82,5.43-.11-.17-.06.1L132.1,277l7.91-5.48Zm-2.8,15.24-7.82,5.42L131.24,295l-.06.1-1.87-2.93,7.9-5.48Zm-8.69,6-7.82,5.43-1-1.61-.06.1-4.36-6.81,7.9-5.48Zm-2.79,15.24-7.82,5.42-4.43-6.93-.06.1-1-1.49,7.91-5.48Zm-8.69,6-7.82,5.43-2-3-.06.09-3.43-5.37L117,314Zm-2.8,15.24L111.78,343l-5.35-8.36-.06.09,0,0,7.9-5.49Zm.53.83,5.36,8.38-7.82,5.42-5.35-8.38Zm5.89,9.21,5.36,8.37-7.81,5.43-5.36-8.38Zm5.9,9.2,5.35,8.38-7.81,5.42-5.36-8.37Zm5.89,9.21,5.35,8.38-7.81,5.42L130,371.49Zm5.89,9.21,5.35,8.37-7.81,5.43-5.36-8.38Zm5.89,9.21,5.35,8.37-7.81,5.43-5.36-8.38Zm4,23.83,7.82-5.42,5.36,8.38-7.82,5.42ZM164.8,425.9l-5.36-8.38,7.82-5.42,5.36,8.37Zm3.33-14.41,7.82-5.42,5.35,8.38-7.81,5.42Zm11.25,17.59L174,420.7l7.82-5.42,5.35,8.37Zm3.32-14.41,7.82-5.42,5.36,8.38-7.82,5.42ZM194,432.26l-5.36-8.38,7.82-5.42,5.36,8.37Zm8.69-6-5.36-8.38,7.82-5.42,5.36,8.38Zm3.33-14.4,7.82-5.43,5.36,8.38-7.82,5.42Zm11.25,17.58L211.86,421l7.82-5.43L225,424Zm3.33-14.4,7.82-5.43,5.35,8.38-7.81,5.42Zm11.25,17.58-5.36-8.37,7.82-5.43,5.35,8.38Zm8.68-6-5.36-8.37,7.82-5.43,5.36,8.38Zm8.69-6-5.36-8.38,7.82-5.42,5.36,8.37Zm3.33-14.41,7.82-5.42,5.36,8.38-7.82,5.42Zm11.25,17.59-5.36-8.38,7.82-5.42,5.36,8.37Zm8.69-6-5.36-8.38,7.82-5.42,5.35,8.38Zm8.68-6-5.36-8.37,7.82-5.43,5.36,8.38Zm3.33-14.4,7.82-5.42,5.36,8.37-7.82,5.43Zm11.25,17.58-5.36-8.37,7.82-5.43,5.44,8.32Zm8.69-6L299,400.44l7.82-5.42,5.44,8.31Zm8.68-6-5.35-8.38,7.81-5.42,2.34,3.66.09-.07,3,4.73Zm8.69-6-5.36-8.37,7.82-5.43,2,3.11.08-.06,3.38,5.27Zm12.78-17.28.08-.06,3.73,5.83-7.9,5.49-5.36-8.38,7.82-5.42Zm-1.29-4-5.36-8.37,7.82-5.43,5.35,8.38Zm8.68-6-5.36-8.37,7.82-5.43,5.36,8.38Zm8.69-6-5.36-8.38,7.82-5.42,5.36,8.37Zm16.3-11.77.08-.08.21.34-7.9,5.48L354,349l7.82-5.42Zm-4.82-9.49-5.35-8.38,7.81-5.42,5.36,8.37Zm8.69-6-5.36-8.38,7.82-5.42,5.36,8.37Zm16.51-11.45-7.82,5.42-5.36-8.37,7.82-5.43Zm-5-9.81-5.36-8.38,7.81-5.42,5.36,8.37Zm16.5-11.45L391,308.87l-5.36-8.38,7.82-5.42Zm-5-9.81-5.36-8.38,7.82-5.42,5.36,8.37Zm16.51-11.45-7.82,5.42-5.36-8.38,7.82-5.42ZM413.06,267l-7.82,5.43L399.88,264l7.82-5.43Zm2.8-15.23L408,257.14l-5.36-8.37,7.82-5.43Zm2.8-15.24-7.82,5.43-5.36-8.38,7.82-5.42Zm-5.9-9.2L405,232.7l-5.36-8.38,7.82-5.42Zm2.8-15.24-7.82,5.43-5.36-8.38,7.82-5.43Zm-5.89-9.21-7.82,5.43-5.36-8.38,7.82-5.42Zm-5.89-9.2L396,199.05l-5.36-8.37,7.82-5.43Zm-5.89-9.21-7.82,5.42-5.36-8.37,7.82-5.43ZM392,175.21l-7.82,5.43-5.36-8.38,7.82-5.42Zm-5.89-9.2-7.82,5.42-5.36-8.38,7.82-5.42Zm-5.89-9.21-7.82,5.42L367,153.85l7.82-5.43Zm-5.89-9.21L366.51,153l-5.36-8.38,7.82-5.43ZM363.08,130l5.38,8.4-2.08,1.44,0,0-5.73,4-5.36-8.38Zm-3.33,14.4-7.82,5.43-5.36-8.38,7.82-5.43Zm-5.89-9.21L346,140.63l-5.36-8.38,7.82-5.42Zm-11.25-17.58L348,126l-.27.19,0,0-7.55,5.23L334.79,123ZM339.28,132l-7.82,5.43-5.35-8.38,7.81-5.42Zm-5.89-9.2-7.82,5.42-5.35-8.38,7.81-5.42Zm-11.25-17.59,5.38,8.41-.43.29h0L319.68,119l-5.36-8.37Zm-3.32,14.41L311,125.06l-5.36-8.38,7.82-5.42Zm-5.9-9.21-7.81,5.42-5.36-8.37,7.82-5.43ZM301.68,92.84l5.37,8.41-3.88,2.69h0l-3.91,2.72-2.67-4.18-.15,0-2.63-4.12Zm-3.33,14.41-7.82,5.42-5.36-8.37L293,98.87ZM287.1,89.66l5.37,8.41L288,101.15H288l-3.35,2.33-1.81-2.84h-.13l-3.51-5.47Zm-3.33,14.41L276,109.49l-5.36-8.37,7.82-5.43ZM272.52,86.48l5.38,8.41L270,100.36h0L264.62,92Zm-3.33,14.41-7.82,5.42-3.13-4.89h-.11L255.93,98l7.9-5.49ZM257.94,83.3l5.38,8.41-7.91,5.48L250,88.79Zm-8.69,6,5.38,8.41-7.9,5.48-5.38-8.4Zm-16.59,11.51,7.91-5.48,5.37,8.4-7.9,5.49Zm5.11,9.75,5.36,8.38-3,2.09,0,.07-4.83,3.35-5.37-8.4Zm-8.69,6,5.38,8.4-7.9,5.49-5.38-8.41Zm-16.59,11.51,7.91-5.48,5.37,8.4-7.9,5.48Zm5.11,9.75,5.38,8.41-7.91,5.48-5.37-8.41ZM201,149.39l7.9-5.48,5.38,8.4-7.9,5.49Zm5.11,9.75,5.35,8.38-.77.53,0,.07L203.59,173l-5.38-8.4Zm-16.6,11.51,7.91-5.48,5.38,8.4-7.91,5.49Zm5.11,9.75,5.36,8.38-4,2.77,0,.07-3.86,2.67-5.37-8.4Zm-8.69,6,5.38,8.4-7.9,5.49L178,191.91Zm-16.59,11.51,7.91-5.48,5.37,8.4-7.9,5.49Zm5.11,9.75,5.38,8.41-7.91,5.48-5.37-8.4ZM157.87,219.2l7.9-5.48,5.38,8.4-7.9,5.49ZM163,229l5.36,8.38-1.75,1.21,0,.07-6.1,4.23-5.38-8.4Zm-16.59,11.51,7.9-5.48,5.38,8.4-7.91,5.49Zm5.1,9.75,5.36,8.38-5,3.44,0,.08-2.87,2-5.38-8.4Zm-8.68,6,5.37,8.41-7.9,5.48-5.38-8.41Zm-16.6,11.51,7.91-5.48,5.37,8.4-7.9,5.49Zm5.11,9.75,5.38,8.41-7.91,5.48-5.37-8.4ZM114.73,289l7.9-5.48,5.38,8.4-7.9,5.49Zm5.11,9.75,5.36,8.38L122.48,309l0,.08-5.13,3.55-5.38-8.4Zm-16.59,11.51,7.9-5.48,5.38,8.4-7.91,5.49Zm-2.8,15.24,7.9-5.49,5.36,8.38-5.93,4.12,0,.07-1.9,1.32Zm-2.8,15.23,7.91-5.48,5.35,8.38-6.71,4.66v0l-1.17.82Zm6.91,10.6,0,.25-1-1.64,7.91-5.48,5.36,8.37L109,358.27Zm5,7.76,7.82-5.43,5.36,8.38-7.82,5.42Zm5.89,9.21,7.82-5.43,5.36,8.38-7.82,5.42Zm5.89,9.2,7.82-5.42,5.36,8.37-7.82,5.43Zm5.89,9.21L135,381.3l5.36,8.37-7.82,5.43Zm5.89,9.21,7.82-5.43,5.36,8.38-7.82,5.42Zm5.89,9.2,7.82-5.42,5.36,8.38-7.82,5.42Z"
            style="opacity:0.03"></path>
        <path
            d="M193.11,98.4c-23.71,12.47-35.57,53.65-59.9,81.11S87,245,83.91,296.81a124.17,124.17,0,0,0,2.49,32.82L241.49,83.41A147,147,0,0,0,193.11,98.4Z"
            style="opacity:0.06"></path>
        <line x1="193.27" y1="95.46" x2="88.54" y2="264.67"
            style="fill:none;stroke:#fff;stroke-miterlimit:10"></line>
        <line x1="180.23" y1="108.88" x2="94.13" y2="246.04"
            style="fill:none;stroke:#263238;stroke-linecap:round;stroke-linejoin:round"></line>
        <line x1="178.77" y1="101.16" x2="112.77" y2="205.16"
            style="fill:none;stroke:#263238;stroke-linecap:round;stroke-linejoin:round"></line>
        <path
            d="M168.67,144.33a2.37,2.37,0,0,0-2.59,2.14L165,157.67a2.14,2.14,0,0,0-.28.32l-23.89,38.44-.32-2.89a2.38,2.38,0,1,0-4.72.59l4.41,30.64a2.39,2.39,0,0,0,2.36,2.09l.3,0a2.38,2.38,0,0,0,2.07-2.66l-1.37-9.38c.22-.14,19.74-30.87,19.74-30.87L161,194.52a2.38,2.38,0,0,0,2.14,2.6h.23a2.39,2.39,0,0,0,2.37-2.15l5.07-48A2.38,2.38,0,0,0,168.67,144.33ZM142.59,210.5s-.68-7.3-.59-7.43l22.07-35.82-1.52,11.14C162.34,178.53,142.59,210.5,142.59,210.5Z"
            style="opacity:0.15"></path>
        <path d="M140.49,187.33a7.38,7.38,0,0,1,3.35,2.22"
            style="fill:none;stroke:#fff;stroke-miterlimit:10"></path>
        <path d="M145.47,193a7.2,7.2,0,0,1,.12,1.32A7.31,7.31,0,0,1,135.45,201"
            style="fill:none;stroke:#fff;stroke-miterlimit:10"></path>
        <path d="M142.39,189.94a6,6,0,1,1-9.1,7.63"
            style="fill:none;stroke:#fff;stroke-miterlimit:10"></path>
        <path d="M170.64,141.85a7.31,7.31,0,0,1,3.34,2.21"
            style="fill:none;stroke:#fff;stroke-miterlimit:10"></path>
        <path d="M175.61,147.48a7.29,7.29,0,0,1-10,8.05"
            style="fill:none;stroke:#fff;stroke-miterlimit:10"></path>
        <path d="M174.41,148.81a6,6,0,1,1-6-6A6,6,0,0,1,174.41,148.81Z"
            style="fill:none;stroke:#fff;stroke-miterlimit:10"></path>
        <path
            d="M138.15,196.22a2.39,2.39,0,0,1-2.36-2.05L133.07,175a9.56,9.56,0,0,0-5-7.43l-3.4-1.8a2.6,2.6,0,0,0-3.8,2.29l1.84,12.18a2.38,2.38,0,1,1-4.76,0L116.06,168a7.35,7.35,0,0,1,10.78-6.5l3.4,1.79a14.34,14.34,0,0,1,7.56,11.05l2.71,19.14a2.39,2.39,0,0,1-2,2.69A1.84,1.84,0,0,1,138.15,196.22Z"
            style="fill:#263238"></path>
        <path
            d="M168.5,150.85a2.26,2.26,0,0,1-1.63-.67,2.67,2.67,0,0,1-.72-2.18l2.55-24.12a9.53,9.53,0,0,0-5-7.13l-3.4-1.79a2.59,2.59,0,0,0-3.8,2.29v12.19a2.47,2.47,0,0,1-2.13,2.5,2.38,2.38,0,0,1-2.63-2.37v-12a7.67,7.67,0,0,1,3.52-6.57,7.32,7.32,0,0,1,7.26-.22l3.4,1.79c5.66,3.09,7,6.17,7.51,10.69a5.14,5.14,0,0,1,0,1.24l-2.57,24.25A2.38,2.38,0,0,1,168.5,150.85Z"
            style="fill:#263238"></path>
        <path d="M131.49,166.76c.82.61,1.33,1,1.33,1"
            style="fill:none;stroke:#fff;stroke-linecap:round;stroke-linejoin:round"></path>
        <path d="M120.06,163.39a4.69,4.69,0,0,1,5.58-.4,44.69,44.69,0,0,1,4.33,2.68"
            style="fill:none;stroke:#fff;stroke-linecap:round;stroke-linejoin:round"></path>
        <path d="M168.26,116.21c.91.7,1.48,1.17,1.48,1.17"
            style="fill:none;stroke:#fff;stroke-linecap:round;stroke-linejoin:round"></path>
        <path d="M155.21,112.25a5.66,5.66,0,0,1,6.52-.4,50.2,50.2,0,0,1,4.84,3.11"
            style="fill:none;stroke:#fff;stroke-linecap:round;stroke-linejoin:round"></path>
        <line x1="229.78" y1="101.93" x2="91.96" y2="319.4"
            style="fill:none;stroke:#263238;stroke-linecap:round;stroke-linejoin:round"></line>
        <path
            d="M141.69,379.79c.85.42,1.63.78,2.33,1.1l1.27.58c1.34.59,2.13.92,2.13.92s-7.26-7.58-15.61-15.36a116.63,116.63,0,0,0,21.43,7.38s-7.34-5.5-16.05-11.38c1.7.47,3.41.89,5.08,1.25l1.19.26a123.73,123.73,0,0,0,13.81,2h0s-10.37-5.65-21.43-10.79c1.08.17,2.17.32,3.27.43a117.94,117.94,0,0,0,21.52,0s-11.43-3.78-23.35-6.88a102.13,102.13,0,0,0,14-2.19h0s-12.2-2.25-23.41-3.38l-.62-.06c1.06-.21,2.11-.46,3.14-.73.81-.21,1.61-.44,2.38-.67l.76-.23,1.45-.47c1.14-.38,2.17-.75,3.06-1.09l.91,1.09s-.13-.47-.39-1.29l.61-.24.45-.17c1.15-.46,1.82-.76,1.82-.76l-3.23,0A159.52,159.52,0,0,0,127.29,313l2.38.93c10.81,9.95,20.74,18.21,20.74,18.21l-.28-.56c-.31-.6-.86-1.67-1.62-3.09l-1-1.85c-1.11-2-2.51-4.43-4.14-7.06-.28-.44-.55-.89-.84-1.34a127.75,127.75,0,0,0-10.1-14c-.84-1-1.69-1.94-2.55-2.87,15,9.58,30.9,18.26,30.9,18.26h0s-2.46-3.24-6.4-7.7c-.91-1-1.9-2.13-3-3.26-.7-.76-1.43-1.54-2.19-2.32-1.14-1.18-2.34-2.39-3.58-3.59s-2.38-2.25-3.62-3.36l.47.05h0l-1.21-.7c-.73-.64-1.45-1.28-2.19-1.9-1.42-1.18-2.87-2.31-4.33-3.38,16.6,6.28,33.94,11.47,33.94,11.47s-12.93-11.15-26.93-18.34c15.84.69,32.84-2.73,32.84-2.73s-20.27-4.59-39-7.24c-2.59-.37-5.32-.69-8.08-1,1.86-.06,3.69-.14,5.45-.26l1.69-.13c17.74-1.49,39.88-12.26,39.88-12.26s-20.78.66-39.53,2.79c-1.06.13-2.15.26-3.24.41.73-.23,1.45-.45,2.15-.69a77.19,77.19,0,0,0,11.18-4.83,163.77,163.77,0,0,0,24.75-16.38h0s-20,5.48-37.79,11.92l-.06,0h-.25a75.23,75.23,0,0,0,7.84-5.67c2.53-2.07,5-4.28,7.25-6.48l.56-.35h0l-.23,0a170.26,170.26,0,0,0,14.3-15.8h0s-16,8.54-31,18c11.62-12.29,20.8-30.6,20.8-30.6s-10.76,8.79-22.11,19.14l-1.64.63.23-.38A148,148,0,0,0,137.1,214c.45-1.22.84-2.35,1.19-3.35.23-.66.43-1.27.61-1.82.64-1.91,1-3.05,1-3.05s-9.41,11-18.94,23.54a160.94,160.94,0,0,0,7.2-30.43s-6.55,10.82-13.43,23.6c.42-2.41.76-4.82,1-7.15.07-.57.13-1.13.19-1.68.53-5.06.76-9.67.86-13.12q-3.27,4.77-6.34,9.88c-1.74,4.54-3.65,9.67-5.47,14.9.08-1.51.13-3,.14-4.55v-.86a187.75,187.75,0,0,0-21.2,76.92,122.31,122.31,0,0,0,.75,22.29c.14-.29.28-.58.42-.89,1.33,2.11,2.73,4.15,4.11,6.09.2,5.56.47,10.45.66,13.62l-1.59-.57a149,149,0,0,0,16.21,37.7v-.46l-.06-2.37c.11.54.22,1.08.34,1.6.21,1,.49,2,.78,3a154.5,154.5,0,0,0,10,14.33c-1-5.22-2.42-11.77-4-18l-.12-.46a54.67,54.67,0,0,0,3.64,6.3,116.48,116.48,0,0,0,14.73,17.4h0s-5-12.16-10.75-23.69c8,9.27,20.58,17.21,20.58,17.21s-6.5-9.8-13.84-19.49c.51.38,1,.76,1.55,1.12A105.91,105.91,0,0,0,141.69,379.79Zm-37.3-57.39-.17,0c0-.18,0-.36,0-.54C104.27,322,104.33,322.21,104.39,322.4Zm-13.19,16c.66-2.06,1.52-4.95,2.37-8.3,1.24,1.59,2.42,3,3.49,4.3.41,2.39.82,4.68,1.22,6.82C96.33,340.43,93.86,339.43,91.2,338.43Zm12,4.42c.48-4,.88-8.58,1-13.29l.79-5.29c2.16,6.23,4.38,12.22,6.25,17.09C107.9,341.92,105,342.5,103.23,342.85Zm12.36-2.16c0-.25,0-.49,0-.75-.06-1-.13-2-.21-3.09-.17-2.12-.38-4.36-.65-6.66-.07-.57-.15-1.15-.22-1.72-.15-1.1-.32-2.21-.5-3.32l.25.18c2.9,5.49,5.73,10.58,8,14.59C120.09,340.1,117.82,340.37,115.59,340.69Zm10.18-1a158.13,158.13,0,0,0-4-16.81q-.75-2.46-1.6-4.89c6.79,9.06,13.51,17.34,16.75,21.28C134,339.3,129.92,339.42,125.77,339.67Z"
            style="opacity:0.2"></path>
    </g>
    <g id="freepik--Ball--inject-1--inject-51">
        <circle cx="201.64" cy="370.41" r="28.3" style="opacity:0.2"></circle>
        <path d="M207.63,329.11a37.51,37.51,0,0,1,17.11,11.35"
            style="fill:none;stroke:#fff;stroke-miterlimit:10"></path>
        <path d="M170.76,337.49a37.31,37.31,0,0,1,22.7-10"
            style="fill:none;stroke:#fff;stroke-miterlimit:10"></path>
        <path d="M162.31,380.27a37.42,37.42,0,0,1,8.45-42.78"
            style="fill:none;stroke:#fff;stroke-miterlimit:10"></path>
        <path d="M233.09,358a37.39,37.39,0,0,1-51.31,41.23"
            style="fill:none;stroke:#fff;stroke-miterlimit:10"></path>
        <path d="M216.65,391.94a33.94,33.94,0,0,1-54-22.77"
            style="fill:none;stroke:#fff;stroke-miterlimit:10"></path>
        <path d="M168.19,345.78a33.94,33.94,0,1,1,55.89,38.51"
            style="fill:none;stroke:#fff;stroke-miterlimit:10"></path>
        <circle cx="196.33" cy="364.76" r="30.62"
            transform="translate(-195.64 498.76) rotate(-80.58)"
            style="fill:none;stroke:#fff;stroke-miterlimit:10"></circle>
        <g style="clip-path:url(#freepik--clip-path--inject-1--inject-51)">
            <path d="M191.63,353.31h0a28.34,28.34,0,0,1,20.44,4.36A29.74,29.74,0,0,0,191.63,353.31Z"
                style="fill:#fff;stroke:#263238;stroke-miterlimit:10;opacity:0.30000000000000004;mix-blend-mode:multiply"></path>
            <path
                d="M181.76,347.65a24.28,24.28,0,0,1,3.59,5.32c.8-.28,1.61-.53,2.42-.73a24.56,24.56,0,0,1,27-10.71,29,29,0,0,0-38,1.78A24.57,24.57,0,0,1,181.76,347.65Z"
                style="fill:#407BFF"></path>
            <path
                d="M181.76,347.65a24.28,24.28,0,0,1,3.59,5.32c.8-.28,1.61-.53,2.42-.73a24.56,24.56,0,0,1,27-10.71,29,29,0,0,0-38,1.78A24.57,24.57,0,0,1,181.76,347.65Z"
                style="fill:#fff;opacity:0.5"></path>
            <path
                d="M187.77,352.24a28.25,28.25,0,0,1,35.14,24.54,29,29,0,0,0-8.16-35.25,24.56,24.56,0,0,0-27,10.71Z"
                style="fill:#407BFF"></path>
            <path
                d="M187.77,352.24c-.81.2-1.62.45-2.42.73.34.67.64,1.34.91,2A25.38,25.38,0,0,1,187.77,352.24Z"
                style="fill:#fff;stroke:#263238;stroke-miterlimit:10"></path>
            <path
                d="M167.77,364.25a29.2,29.2,0,0,0,.52,5.49A28.25,28.25,0,0,1,185.35,353a24.28,24.28,0,0,0-3.59-5.32,24.57,24.57,0,0,0-5-4.34A28.92,28.92,0,0,0,167.77,364.25Z"
                style="fill:#407BFF"></path>
            <path
                d="M208.57,389.91A24.59,24.59,0,0,1,186.26,355c-.27-.69-.57-1.36-.91-2a33,33,0,0,0-10.25,5.69c-3.59,3.18-6.87,7.06-6.81,11.08a29,29,0,0,0,42.12,20.09C209.8,389.88,209.19,389.91,208.57,389.91Z"
                style="fill:#407BFF"></path>
            <path
                d="M208.57,389.91A24.59,24.59,0,0,1,186.26,355c-.27-.69-.57-1.36-.91-2a33,33,0,0,0-10.25,5.69c-3.59,3.18-6.87,7.06-6.81,11.08a29,29,0,0,0,42.12,20.09C209.8,389.88,209.19,389.91,208.57,389.91Z"
                style="fill:#fff;opacity:0.8"></path>
            <path
                d="M216.34,360.67c-7.88-7.63-18.63-11-28.57-8.43a25.38,25.38,0,0,0-1.51,2.76,24.59,24.59,0,0,0,22.31,34.91c.62,0,1.23,0,1.84-.08a29.07,29.07,0,0,0,12.5-13.05C223.81,373.39,221.61,365.79,216.34,360.67Z"
                style="fill:#407BFF"></path>
            <path
                d="M216.34,360.67c-7.88-7.63-18.63-11-28.57-8.43a25.38,25.38,0,0,0-1.51,2.76,24.59,24.59,0,0,0,22.31,34.91c.62,0,1.23,0,1.84-.08a29.07,29.07,0,0,0,12.5-13.05C223.81,373.39,221.61,365.79,216.34,360.67Z"
                style="fill:#fff;opacity:0.7000000000000001"></path>
            <path
                d="M189.48,355.36c1.25-2.58.68-5.46-1.29-6.41s-4.58.37-5.83,3-.68,5.46,1.28,6.42S188.22,358,189.48,355.36Z"
                style="fill:#fff"></path>
            <path d="M171.62,357.68a24.12,24.12,0,0,1,12.57-15.06"
                style="fill:none;stroke:#fff;stroke-linecap:round;stroke-linejoin:round;stroke-width:2px"></path>
        </g>
        <circle cx="196.71" cy="364.3" r="28.3"
            style="fill:none;stroke:#263238;stroke-miterlimit:10"></circle>
    </g>
    <g id="freepik--Character--inject-1--inject-51">
        <path
            d="M379.58,264.81c0-.61,0-1.22,0-1.83l0-.56c0-.42,0-.83,0-1.25,0-.23,0-.46-.05-.69s0-.75-.07-1.11l-.06-.71c0-.37-.06-.73-.1-1.09s-.06-.47-.08-.71-.08-.71-.13-1.07-.07-.48-.1-.71-.09-.7-.15-1.05l-.12-.71c-.05-.35-.11-.7-.17-1s-.09-.46-.14-.69-.13-.7-.2-1.05l-.15-.67c-.07-.35-.15-.7-.23-1.05s-.11-.44-.16-.66-.17-.7-.26-1.05l-.18-.63c-.09-.36-.19-.71-.29-1.06s-.12-.4-.18-.6c-.11-.36-.21-.72-.33-1.08l-.18-.58c-.12-.36-.24-.72-.37-1.08-.06-.19-.12-.37-.19-.55l-.39-1.1c-.07-.17-.14-.35-.2-.52-.14-.37-.29-.74-.43-1.1l-.21-.5c-.15-.37-.3-.74-.46-1.11l-.21-.47c-.16-.37-.33-.74-.5-1.11-.06-.15-.13-.3-.2-.45l-.54-1.13-.21-.4c-.19-.38-.38-.76-.58-1.14-.06-.13-.13-.26-.2-.38-.2-.39-.41-.77-.62-1.15l-.19-.35c-.22-.39-.44-.77-.67-1.15-.06-.11-.12-.22-.19-.33l-.7-1.16-.18-.29-.75-1.17-.18-.26-.79-1.17-.16-.24-.84-1.18-.15-.2c-.29-.4-.59-.79-.89-1.18l-.14-.18c-.3-.4-.62-.79-.93-1.18l-.12-.15-1-1.19-.1-.12c-.34-.4-.69-.8-1-1.19l-.08-.09c-.36-.4-.72-.8-1.09-1.19l-.06-.07c-.38-.4-.76-.8-1.15-1.19l0,0a70.2,70.2,0,0,0-17.63-13,2.13,2.13,0,0,0-.78-2.78,2.64,2.64,0,0,1-1.91-2.81,6.46,6.46,0,0,0-.07-2.78c0-.15,0-.27-.06-.32l-.14-.06a2.15,2.15,0,0,0-1-.75c.21-1,.47-2.38.2-2.45a1,1,0,0,0-1.22.92v.71s-.51-3.06-.92-3.06-.71.11-.71.82v1.12s-1.73-4-2.14-3.16a2.34,2.34,0,0,0,.19,1.64,3.6,3.6,0,0,0-1-.82c-.3-.29-.55-.45-.66-.32-2.69-1.13-3.36,1-4.37.78s-1.35-1.35-3.81-1.12a2.3,2.3,0,0,0-1.8,1,31.75,31.75,0,0,1-7.19-3.69c-5.09-3.57-12.83-8.05-17.72-9.17s-7.12.1-8.35,2.44a3.19,3.19,0,0,0-.16.41,7.34,7.34,0,0,0-.64,2.48,118.77,118.77,0,0,0,0,16.71A69.89,69.89,0,0,0,261,214.5h0c-.41.39-.81.79-1.21,1.2l0,0c-.39.39-.77.79-1.15,1.19l-.06.06-1.09,1.2-.08.09c-.35.39-.7.79-1,1.19l-.1.12-1,1.19-.12.15c-.31.39-.63.78-.93,1.18l-.14.18c-.3.39-.6.78-.89,1.18l-.15.21-.84,1.17-.16.24-.79,1.17-.18.26-.75,1.17-.18.29c-.24.39-.47.78-.7,1.17a3.37,3.37,0,0,0-.19.32c-.23.38-.45.76-.67,1.15l-.19.35c-.21.38-.42.76-.62,1.15-.07.12-.14.25-.2.38-.2.38-.39.76-.58,1.14l-.21.41-.54,1.12c-.07.15-.14.3-.2.45l-.51,1.11c-.06.16-.13.32-.2.47l-.47,1.11c-.06.17-.13.33-.2.5-.15.36-.29.73-.43,1.1-.06.18-.13.35-.2.52l-.39,1.1c-.07.18-.13.36-.19.55-.13.36-.25.72-.37,1.08l-.18.58c-.12.36-.22.72-.33,1.08l-.18.59-.3,1.08c-.05.2-.11.41-.16.62s-.18.7-.27,1.06-.11.43-.16.65-.16.7-.23,1.05l-.15.67c-.07.35-.14.7-.2,1.05s-.09.46-.14.69-.12.7-.17,1l-.12.71c-.06.35-.1.7-.15,1.05s-.07.47-.1.71-.09.71-.13,1.07,0,.47-.08.71-.07.72-.1,1.09l-.06.71c0,.36,0,.74-.07,1.11s0,.46,0,.69c0,.42,0,.83,0,1.25l0,.56c0,.61,0,1.22,0,1.83A70,70,0,0,0,295,333.21c.86,2.29,1.11,4.39-.45,7.94-2.92,6.61-1.24,13.56,1.9,21s14.13,24,14.13,27.36-2.69,6-2,9.41,2,4.93,4,1.79,3.59-7.17.9-13.22-5.83-16.59-5.83-24.22a64.39,64.39,0,0,0-.61-8.41c2.11,0,6.51-4.26,7.34-10.64.88-6.83.89-3.06-.81-9.53A70,70,0,0,0,379.58,264.81ZM332,286.2a13.46,13.46,0,0,0-4.73-9.74l0,0,0-.08c-.12-.4-.24-.79-.36-1.16l0-.07c-.13-.38-.25-.75-.38-1.1s-.22-.62-.36-.94c-2.11-5.05-7.26-11.47-7.26-12.73,0-.56,1.46-2.31,3.28-4.48h0c.33-.4.68-.8,1-1.22l.05-.06,1.07-1.3h0c.36-.44.71-.89,1.06-1.33l0,0a23.51,23.51,0,0,0,3.58-5.71c.49-1.4,1.1-2.83,1.69-4.13A30.91,30.91,0,0,1,332,286.2Zm-39.72-47c0,.31-.06.65-.08,1.05h0v0c0,.16,0,.32,0,.5s0,.38,0,.59,0,.52,0,.81a2.83,2.83,0,0,0,0,.29c0,.21,0,.42.05.64s0,.25,0,.38.05.44.08.67,0,.27.05.4.07.5.11.75,0,.26.05.4c.05.29.1.59.14.89,0,.1,0,.2.05.3.21,1.28.46,2.62.72,3.94h0c.52,2.65,1.08,5.17,1.47,6.79.89,3.81-.79,5.94-2.81,12.22-.46,1.45-.94,2.85-1.41,4.31h0c-.2.6-.39,1.21-.58,1.84h0a65.31,65.31,0,0,0-2.27,10.8,30.93,30.93,0,0,1,4.37-47.59Zm4.49-48.95c-.29-1.07-.5-2.32-.72-3.61a41.65,41.65,0,0,0,9.55,3.37c2.68.54,6.11,1.16,9.32,1.69-.82,1.25.18,2.42.46,3.14a.66.66,0,0,1,0,.24c-1.89-.15-3.81-.24-5.75-.24a69.78,69.78,0,0,0-11.91,1C297.32,193.23,297,191.09,296.74,190.27Z"
            style="opacity:0.2"></path>
        <path d="M260.88,143.12a104.71,104.71,0,1,1,1.37,196.57"
            style="fill:none;stroke:#fff;stroke-miterlimit:10"></path>
        <path d="M239,154.49a103.48,103.48,0,0,1,11.28-6.67"
            style="fill:none;stroke:#fff;stroke-miterlimit:10"></path>
        <path d="M194.86,221.55a104.54,104.54,0,0,1,28.83-54.43"
            style="fill:none;stroke:#fff;stroke-miterlimit:10"></path>
        <path d="M198.34,274.18a104.46,104.46,0,0,1-5.26-29.53"
            style="fill:none;stroke:#fff;stroke-miterlimit:10"></path>
        <path d="M236.53,326.12A105,105,0,0,1,201.29,282"
            style="fill:none;stroke:#fff;stroke-miterlimit:10"></path>
        <path d="M393.35,247.06a95.8,95.8,0,0,1-191.42-5.9,98.28,98.28,0,0,1,.84-12.8"
            style="fill:none;stroke:#fff;stroke-miterlimit:10"></path>
        <path d="M365.47,173.42a95.52,95.52,0,0,1,27,53.44"
            style="fill:none;stroke:#fff;stroke-miterlimit:10"></path>
        <path d="M204.34,219.71a95.85,95.85,0,0,1,143.3-60.34"
            style="fill:none;stroke:#fff;stroke-miterlimit:10"></path>
        <circle cx="297.73" cy="241.16" r="84.09"
            style="fill:none;stroke:#fff;stroke-miterlimit:10"></circle>
        <circle cx="297.73" cy="241.16" r="78.47" transform="translate(-83.32 281.16) rotate(-45)"
            style="fill:none;stroke:#fff;stroke-miterlimit:10"></circle>
        <path
            d="M298.86,160.87a76.44,76.44,0,1,0,76.43,76.43A76.43,76.43,0,0,0,298.86,160.87Zm0,110.24a33.81,33.81,0,1,1,33.81-33.81A33.81,33.81,0,0,1,298.86,271.11Z"
            style="fill:#407BFF"></path>
        <g style="clip-path:url(#freepik--clip-path-2--inject-1--inject-51)">
            <path
                d="M298.37,196.64c-23,0-41.65,17.88-41.65,39.93s18.65,39.93,41.65,39.93S340,258.62,340,236.57,321.37,196.64,298.37,196.64Zm.49,74.47a33.81,33.81,0,1,1,33.81-33.81A33.81,33.81,0,0,1,298.86,271.11Z"
                style="fill:#fff;opacity:0.43"></path>
            <path d="M352,182.33a69.09,69.09,0,1,1-106.19,0,76.44,76.44,0,1,0,106.19,0Z"
                style="fill:#fff;opacity:0.5"></path>
            <path
                d="M236.65,214a1.32,1.32,0,0,1-.44-.08,1.27,1.27,0,0,1-.75-1.64A68.29,68.29,0,0,1,266.67,176a1.27,1.27,0,1,1,1.23,2.23,65.77,65.77,0,0,0-30.06,34.87A1.27,1.27,0,0,1,236.65,214Z"
                style="fill:#fff"></path>
            <path
                d="M232.55,235.7h0a1.27,1.27,0,0,1-1.24-1.3,68.59,68.59,0,0,1,2.17-15.78,1.28,1.28,0,0,1,2.47.64,65.75,65.75,0,0,0-2.1,15.19A1.27,1.27,0,0,1,232.55,235.7Z"
                style="fill:#fff"></path>
            <path
                d="M338.4,172.1s.49,1.49-1.74,5.69-6.4,5.93-7.53,11.26-.64,11,1.1,13.5S354,216.16,355,218.14s3.22,8.66-3.47,14.85a130.7,130.7,0,0,0-15.09,17.33c-1.74,2.47,1.73-2.48,1.73-2.48s5.94-22.52,5.69-26S331.22,209,329,209s-2.23,8.42-2.48,12.87-4.2,29.21-4.2,31.93S332.45,281,333,291.66s-20.05,19.8-25,21.28-8.73,2.36-8.73,2.36S308,309.23,309.68,303,307,281.75,305,281.51s-2.48,6.18-4.21,15.59-2.47,19.8-4,22.53-7.92,1.23-8.91-1.49-5.69-34.65-6.19-43.07,14.11-53.46,13.62-57.42-12.63-28.47-14.61-36.39,0-33.91,0-33.91,24,7.18,24.75,7.42,4.46,2,4,4.95-16.33,5-17.82,7.93,3.37,16.74,4.41,19,9-1.69,11.43-8.12,14.73-18.55,18.6-20.36S337.41,160.47,338.4,172.1Z"
                style="opacity:0.21"></path>
        </g>
        <path
            d="M298.86,160.87a76.44,76.44,0,1,0,76.43,76.43A76.43,76.43,0,0,0,298.86,160.87Zm0,110.24a33.81,33.81,0,1,1,33.81-33.81A33.81,33.81,0,0,1,298.86,271.11Z"
            style="fill:none;stroke:#263238;stroke-linecap:round;stroke-linejoin:round"></path>
        <path
            d="M300.21,187.7s-1.35,4.53-2.82,6.24-2.21,1.84-2.21,1.84a47.76,47.76,0,0,1-2.81-8.08,19.88,19.88,0,0,0-4.05-7.6s-2.69-21.07-3.55-24.25-1.1-7.84-2.57-10.78-6.72-5.57-7.46,1.43c-1.05,10,.72,29.8,1.46,35.44s3.79,19.11,4,22.41-.49,3.43-.49,7.35,2.08,13.6,3.06,17.77-.86,6.49-3.06,13.35-4.66,12.61-5.39,27.07,3.31,26.21,5.39,34.05,5.76,9.55,2.57,16.78-1.35,14.82,2.08,22.91,15.44,26.21,15.44,29.88-2.94,6.62-2.21,10.29,2.21,5.39,4.41,2,3.92-7.84,1-14.45-6.37-18.13-6.37-26.46-2-15.68-2-19.84a32.52,32.52,0,0,0-.73-7.11,51,51,0,0,0,1.71-13.47V278c0-3.67.25-6.37.25-6.37s12,4.9,19.11-1.71,4.16-16.91,2.2-22.54-8.33-13.47-8.33-14.94,9.31-10.54,11-15.44a70.66,70.66,0,0,1,4.65-10s9.07,6.37,11.76,8.08a57.73,57.73,0,0,0,6.61,3.43s-4.65,14.21-6.37,21.31-5.14,15.19-7.1,17.4-5.88,5.14-4.41,5.63,2.82-1.71,3.8-2.08.86,5.39.86,7.35.24,3.31,1.22,3.31.74-3.55.74-3.55.36,3.67,1,3.79.73-.12,1-.86a8.79,8.79,0,0,0,.24-2.08s.61,2.45,1.35,2.21.86-3.31.86-3.31.73,2.33,1.22,1.47.37-3.31.37-4.65-1.59-7.11-1.59-8.46,3.79-7.71,7.1-12.49a148.66,148.66,0,0,0,10-18.37c2.33-5,3.31-6.13,3.56-8.33s-7.84-6.37-10.66-9.07-10.66-8-12.37-9.67-5.88-5.39-10.54-4.41-8.57,3.18-10.29,3.06A32.58,32.58,0,0,1,309,196a22.59,22.59,0,0,1,3.56-8.58S310.13,184.14,300.21,187.7Z"
            style="fill:#fff"></path>
        <g style="clip-path:url(#freepik--clip-path-3--inject-1--inject-51)">
            <path
                d="M300.21,187.7s-1.35,4.53-2.82,6.24-2.21,1.84-2.21,1.84a47.76,47.76,0,0,1-2.81-8.08,19.88,19.88,0,0,0-4.05-7.6s-2.69-21.07-3.55-24.25-1.1-7.84-2.57-10.78-6.72-5.57-7.46,1.43c-1.05,10,.72,29.8,1.46,35.44s3.79,19.11,4,22.41-.49,3.43-.49,7.35,2.08,13.6,3.06,17.77-.86,6.49-3.06,13.35-4.66,12.61-5.39,27.07,3.31,26.21,5.39,34.05,5.76,9.55,2.57,16.78-1.35,14.82,2.08,22.91,15.44,26.21,15.44,29.88-2.94,6.62-2.21,10.29,2.21,5.39,4.41,2,3.92-7.84,1-14.45-6.37-18.13-6.37-26.46-2-15.68-2-19.84a32.52,32.52,0,0,0-.73-7.11,51,51,0,0,0,1.71-13.47V278c0-3.67.25-6.37.25-6.37s12,4.9,19.11-1.71,4.16-16.91,2.2-22.54-8.33-13.47-8.33-14.94,9.31-10.54,11-15.44a70.66,70.66,0,0,1,4.65-10s9.07,6.37,11.76,8.08a57.73,57.73,0,0,0,6.61,3.43s-4.65,14.21-6.37,21.31-5.14,15.19-7.1,17.4-5.88,5.14-4.41,5.63,2.82-1.71,3.8-2.08.86,5.39.86,7.35.24,3.31,1.22,3.31.74-3.55.74-3.55.36,3.67,1,3.79.73-.12,1-.86a8.79,8.79,0,0,0,.24-2.08s.61,2.45,1.35,2.21.86-3.31.86-3.31.73,2.33,1.22,1.47.37-3.31.37-4.65-1.59-7.11-1.59-8.46,3.79-7.71,7.1-12.49a148.66,148.66,0,0,0,10-18.37c2.33-5,3.31-6.13,3.56-8.33s-7.84-6.37-10.66-9.07-10.66-8-12.37-9.67-5.88-5.39-10.54-4.41-8.57,3.18-10.29,3.06A32.58,32.58,0,0,1,309,196a22.59,22.59,0,0,1,3.56-8.58S310.13,184.14,300.21,187.7Z"
                style="opacity:0.1"></path>
            <g style="opacity:0.2">
                <path
                    d="M285,175c0,7.25.89,8.67,1.77,6.9s1.59,1.77,3.19,7.07c1.1,3.7,3.5,6.12,4.79,5.86a45.74,45.74,0,0,1-2.39-7.13,19.88,19.88,0,0,0-4.05-7.6s-2.69-21.07-3.55-24.25c-.13-.49-.24-1-.35-1.55C284.62,159.17,285,169.57,285,175Z"></path>
                <path
                    d="M310.46,196.31c-.83-.15-1.44-.28-1.44-.28a22.59,22.59,0,0,1,3.56-8.58s-2.45-3.31-12.37.25c0,0-.52,1.72-1.26,3.44,2,2,4.8,4.62,6.4,5.26A6.3,6.3,0,0,0,310.46,196.31Z"></path>
            </g>
            <path
                d="M344.08,216.91c-.88-.35-9.9-6.36-14.5-9.19s-7.78-3.54-9.73-2.66-5.48,11.5-5.48,11.5c-5.48,2.12-8.84,1.59-11.85,4.6s-4.77,8.84-.35,13.26,5.3,7.07,7.78,14.68c2.29,7-1.78,22,1.68,23a12,12,0,0,0,3.4-2.21c7.1-6.62,4.16-16.91,2.2-22.54s-8.33-13.47-8.33-14.94,9.31-10.54,11-15.44a70.66,70.66,0,0,1,4.65-10s9.07,6.37,11.76,8.08a57.73,57.73,0,0,0,6.61,3.43s-1.69,5.19-3.42,10.86c.21-.41.43-.82.66-1.25,2.48-4.59,7.07-11.31,7.07-11.31S345,217.27,344.08,216.91Z"
                style="opacity:0.2"></path>
            <path d="M295,228.58s1.84,4.42,4.78,5.52"
                style="fill:none;stroke:#263238;stroke-linecap:round;stroke-linejoin:round"></path>
            <path d="M297.87,209.76a18.15,18.15,0,0,1,4.48-5.47"
                style="fill:none;stroke:#263238;stroke-linecap:round;stroke-linejoin:round"></path>
            <path d="M324.58,206.93l-3.32-1.28s-1.69-.94-2.81,1.5"
                style="fill:none;stroke:#263238;stroke-linecap:round;stroke-linejoin:round"></path>
            <path d="M295.18,195.78a11.42,11.42,0,0,0,4,3.32"
                style="fill:#fff;stroke:#263238;stroke-linecap:round;stroke-linejoin:round"></path>
            <path d="M312.94,196.64s-3.1,1.52-4.59,2.09"
                style="fill:#fff;stroke:#263238;stroke-linecap:round;stroke-linejoin:round"></path>
            <path
                d="M303,371.31c-2.94-6.62-6.37-18.13-6.37-26.46s-2-15.68-2-19.84a32.52,32.52,0,0,0-.73-7.11,51,51,0,0,0,1.71-13.47V278c0-3.67.25-6.37.25-6.37a27,27,0,0,0,10,1.73L298.86,262l-7.07-4.8s-15.3,9-13,23.43c0,0,9.63,17.27,11,25.75s-.85,8.48-1.13,13.29-2,14.7-.28,23.18,12.16,28.31,13.14,30,1.84,2,.71,7.61c-.58,2.92-1.09,5.08-1.33,6.65a6.31,6.31,0,0,0,1.12-1.37C304.25,382.33,306,377.92,303,371.31Z"
                style="opacity:0.2"></path>
            <path d="M300.89,383.24s-1.25,3.48,0,3.89"
                style="fill:none;stroke:#263238;stroke-linecap:round;stroke-linejoin:round"></path>
            <path d="M299.21,383.24a6.9,6.9,0,0,0,.3,3.91"
                style="fill:none;stroke:#263238;stroke-linecap:round;stroke-linejoin:round"></path>
            <line x1="298.46" y1="381.75" x2="297.9" y2="384.92"
                style="fill:none;stroke:#263238;stroke-linecap:round;stroke-linejoin:round"></line>
        </g>
        <path
            d="M300.21,187.7s-1.35,4.53-2.82,6.24-2.21,1.84-2.21,1.84a47.76,47.76,0,0,1-2.81-8.08,19.88,19.88,0,0,0-4.05-7.6s-2.69-21.07-3.55-24.25-1.1-7.84-2.57-10.78-6.72-5.57-7.46,1.43c-1.05,10,.72,29.8,1.46,35.44s3.79,19.11,4,22.41-.49,3.43-.49,7.35,2.08,13.6,3.06,17.77-.86,6.49-3.06,13.35-4.66,12.61-5.39,27.07,3.31,26.21,5.39,34.05,5.76,9.55,2.57,16.78-1.35,14.82,2.08,22.91,15.44,26.21,15.44,29.88-2.94,6.62-2.21,10.29,2.21,5.39,4.41,2,3.92-7.84,1-14.45-6.37-18.13-6.37-26.46-2-15.68-2-19.84a32.52,32.52,0,0,0-.73-7.11,51,51,0,0,0,1.71-13.47V278c0-3.67.25-6.37.25-6.37s12,4.9,19.11-1.71,4.16-16.91,2.2-22.54-8.33-13.47-8.33-14.94,9.31-10.54,11-15.44a70.66,70.66,0,0,1,4.65-10s9.07,6.37,11.76,8.08a57.73,57.73,0,0,0,6.61,3.43s-4.65,14.21-6.37,21.31-5.14,15.19-7.1,17.4-5.88,5.14-4.41,5.63,2.82-1.71,3.8-2.08.86,5.39.86,7.35.24,3.31,1.22,3.31.74-3.55.74-3.55.36,3.67,1,3.79.73-.12,1-.86a8.79,8.79,0,0,0,.24-2.08s.61,2.45,1.35,2.21.86-3.31.86-3.31.73,2.33,1.22,1.47.37-3.31.37-4.65-1.59-7.11-1.59-8.46,3.79-7.71,7.1-12.49a148.66,148.66,0,0,0,10-18.37c2.33-5,3.31-6.13,3.56-8.33s-7.84-6.37-10.66-9.07-10.66-8-12.37-9.67-5.88-5.39-10.54-4.41-8.57,3.18-10.29,3.06A32.58,32.58,0,0,1,309,196a22.59,22.59,0,0,1,3.56-8.58S310.13,184.14,300.21,187.7Z"
            style="fill:none;stroke:#263238;stroke-linecap:round;stroke-linejoin:round"></path>
        <line x1="331.69" y1="267.81" x2="331.71" y2="263.98"
            style="fill:#fff;stroke:#263238;stroke-linecap:round;stroke-linejoin:round"></line>
        <line x1="333.89" y1="268.66" x2="333.89" y2="264.08"
            style="fill:#fff;stroke:#263238;stroke-linecap:round;stroke-linejoin:round"></line>
        <line x1="336.1" y1="267.56" x2="335.97" y2="263.58"
            style="fill:#fff;stroke:#263238;stroke-linecap:round;stroke-linejoin:round"></line>
        <path
            d="M303.15,167.73s-2.58-2.45-1.11-3.8,3.43-2.08,3.06-3.06-2-2.69.49-4.41,3.19,0,4.66.12,1-2.69,3.67-2.94,3.07,1,4.17,1.23,1.84-2.08,4.78-.86,2.08,2.94,3.18,4.17,1,0,3.31.73,1.84,2.7,1.71,4.41a2.86,2.86,0,0,0,2.09,3.06c1.22.49,1.59,2.82.12,4.05s-1.47,1.95-.49,3.91,1.35,4.66-.37,5.15-3.92,1.84-3.31,3.18.86,3.07-.85,3.43-2.45-.12-2.94,1.35a3.34,3.34,0,0,1-3.92,2.08c-1.6-.49-2-1-2.94-.61a2.25,2.25,0,0,1-2.82-.61,2.65,2.65,0,0,0-1.84-1.1,5.15,5.15,0,0,0,.74-5.76c-1.6-3.43-6.83-5-10.46-7.16S303.15,167.73,303.15,167.73Z"
            style="fill:#263238;stroke:#263238;stroke-linecap:round;stroke-linejoin:round"></path>
        <path
            d="M312.7,158.17s-3.32.76-7.39,5.13a33.22,33.22,0,0,0-7.09,13.87c-.3,2.26-.6,9.8.91,11.46s5.27.91,9.5.31,6.93-1.21,8-2l1.06-.75s.3.45,3.31,0,5.28-3,3.77-4.07a7.85,7.85,0,0,0-3.47-1.21s7.24-3.62,7.39-9.95-4.07-10.41-8.14-12.22A10.46,10.46,0,0,0,312.7,158.17Z"
            style="fill:#fff"></path>
        <g style="clip-path:url(#freepik--clip-path-4--inject-1--inject-51)">
            <path
                d="M312.7,158.17s-3.32.76-7.39,5.13a33.22,33.22,0,0,0-7.09,13.87c-.3,2.26-.6,9.8.91,11.46s5.27.91,9.5.31,6.93-1.21,8-2l1.06-.75s.3.45,3.31,0,5.28-3,3.77-4.07a7.85,7.85,0,0,0-3.47-1.21s7.24-3.62,7.39-9.95-4.07-10.41-8.14-12.22A10.46,10.46,0,0,0,312.7,158.17Z"
                style="opacity:0.1"></path>
            <path
                d="M322.6,174.13c-1.41,4.81-7.91,6.79-9,8.48s-4.23,4.16-9.33,5.09a35.31,35.31,0,0,1-5.31.63,1.34,1.34,0,0,0,.21.3c1.5,1.66,5.27.91,9.5.31s6.93-1.21,8-2l1.06-.75s.3.45,3.31,0,5.28-3,3.77-4.07a7.85,7.85,0,0,0-3.47-1.21s7.24-3.62,7.39-9.95A12.36,12.36,0,0,0,324,160.92l-1.68,3.89A16.22,16.22,0,0,1,322.6,174.13Z"
                style="opacity:0.2"></path>
        </g>
        <path
            d="M312.7,158.17s-3.32.76-7.39,5.13a33.22,33.22,0,0,0-7.09,13.87c-.3,2.26-.6,9.8.91,11.46s5.27.91,9.5.31,6.93-1.21,8-2l1.06-.75s.3.45,3.31,0,5.28-3,3.77-4.07a7.85,7.85,0,0,0-3.47-1.21s7.24-3.62,7.39-9.95-4.07-10.41-8.14-12.22A10.46,10.46,0,0,0,312.7,158.17Z"
            style="fill:none;stroke:#263238;stroke-linecap:round;stroke-linejoin:round"></path>
        <path d="M313.85,169.43s3.18-.14,5,4"
            style="fill:none;stroke:#263238;stroke-linecap:round;stroke-linejoin:round"></path>
        <path d="M308.93,167.83s-.66-2.79-2.79-2.92"
            style="fill:none;stroke:#263238;stroke-linecap:round;stroke-linejoin:round"></path>
        <path
            d="M308.79,169.2s-2.1-3.52-8.69-4.27c0,0-.67.69-.28,1.33,0,0-2.67,4.45.47,6.56a5.71,5.71,0,0,0,7.19-.86A8.18,8.18,0,0,0,308.79,169.2Z"
            style="fill:#263238;stroke:#263238;stroke-linecap:round;stroke-linejoin:round"></path>
        <line x1="320.2" y1="176.91" x2="321.29" y2="180.94"
            style="fill:none;stroke:#263238;stroke-linecap:round;stroke-linejoin:round"></line>
        <path
            d="M311.58,171.19s4.48-.15,9.08,5.47c0,0-.25,1-1.07,1,0,0-2.42,4.88-6.31,3.46-4.82-1.76-3.87-5.77-3.47-7.13A9,9,0,0,1,311.58,171.19Z"
            style="fill:#263238;stroke:#263238;stroke-linecap:round;stroke-linejoin:round"></path>
        <path d="M308.79,169.2a9.6,9.6,0,0,1,2.79,2"
            style="fill:none;stroke:#263238;stroke-linecap:round;stroke-linejoin:round"></path>
        <path d="M307.94,170.76s2.27-1,3,2"
            style="fill:none;stroke:#263238;stroke-linecap:round;stroke-linejoin:round"></path>
        <path
            d="M307.52,172.56a7.52,7.52,0,0,1-3.44,1.73c-1.72.18-1.09,1.54-.36,2.17a7,7,0,0,0,1.54,1"
            style="fill:none;stroke:#263238;stroke-linecap:round;stroke-linejoin:round"></path>
        <path d="M302.09,179.27s0,1.09,2.26,1.36"
            style="fill:none;stroke:#263238;stroke-linecap:round;stroke-linejoin:round"></path>
        <path
            d="M321.52,181l-.23,0s7.24-3.62,7.39-9.95-4.07-10.41-8.14-12.22a10.46,10.46,0,0,0-7.84-.6s-3.25.74-7.26,5a17.47,17.47,0,0,1,10-2.58c7.24.31,8.9,7.24,8.9,11.92s-4.07,8.9-4.07,8.9Z"
            style="fill:#263238;stroke:#263238;stroke-linecap:round;stroke-linejoin:round"></path>
        <path
            d="M282.07,150.91a46.86,46.86,0,0,0,12.36,4.68c6.56,1.33,17.36,3.11,19.92,3.11s9.12,4.34,10.23,4.68,2,.77,3.45,0,3.45-3.12,2.9-3.45-1.45.11-1.45.11.89-3.56.44-3.68a1.13,1.13,0,0,0-1.33,1v.78s-.56-3.34-1-3.34-.78.11-.78.89v1.22s-1.89-4.34-2.34-3.45.78,3,.78,3-2-2.93-2.38-2.47.82,2.8.82,2.8-2.18-1.84-3.89-1.89a14.33,14.33,0,0,0-4.23.89,34.76,34.76,0,0,1-11.46-5.12c-5.57-3.9-14-8.79-19.37-10s-7.79.12-9.12,2.67.22,11.58.22,11.58"
            style="fill:#fff"></path>
        <g style="clip-path:url(#freepik--clip-path-5--inject-1--inject-51)">
            <path
                d="M282.07,150.91a46.86,46.86,0,0,0,12.36,4.68c6.56,1.33,17.36,3.11,19.92,3.11s9.12,4.34,10.23,4.68,2,.77,3.45,0,3.45-3.12,2.9-3.45-1.45.11-1.45.11.89-3.56.44-3.68a1.13,1.13,0,0,0-1.33,1v.78s-.56-3.34-1-3.34-.78.11-.78.89v1.22s-1.89-4.34-2.34-3.45.78,3,.78,3-2-2.93-2.38-2.47.82,2.8.82,2.8-2.18-1.84-3.89-1.89a14.33,14.33,0,0,0-4.23.89,34.76,34.76,0,0,1-11.46-5.12c-5.57-3.9-14-8.79-19.37-10s-7.79.12-9.12,2.67.22,11.58.22,11.58"
                style="opacity:0.1"></path>
        </g>
        <path
            d="M282.07,150.91a46.86,46.86,0,0,0,12.36,4.68c6.56,1.33,17.36,3.11,19.92,3.11s9.12,4.34,10.23,4.68,2,.77,3.45,0,3.45-3.12,2.9-3.45-1.45.11-1.45.11.89-3.56.44-3.68a1.13,1.13,0,0,0-1.33,1v.78s-.56-3.34-1-3.34-.78.11-.78.89v1.22s-1.89-4.34-2.34-3.45.78,3,.78,3-2-2.93-2.38-2.47.82,2.8.82,2.8-2.18-1.84-3.89-1.89a14.33,14.33,0,0,0-4.23.89,34.76,34.76,0,0,1-11.46-5.12c-5.57-3.9-14-8.79-19.37-10s-7.79.12-9.12,2.67.22,11.58.22,11.58"
            style="fill:none;stroke:#263238;stroke-linecap:round;stroke-linejoin:round"></path>
        <path d="M329.48,160l-2.34,1.22a17.46,17.46,0,0,1-4.34-2.89,4.56,4.56,0,0,0-4.34-1.45"
            style="fill:none;stroke:#263238;stroke-linecap:round;stroke-linejoin:round"></path>
        <path d="M325.25,156.48a8,8,0,0,1,.11,1.78"
            style="fill:none;stroke:#263238;stroke-linecap:round;stroke-linejoin:round"></path>
        <path d="M326.81,156.92a4.81,4.81,0,0,1-.11,1.67"
            style="fill:none;stroke:#263238;stroke-linecap:round;stroke-linejoin:round"></path>
        <path d="M328.59,158.15a5,5,0,0,1-.67,1.78"
            style="fill:none;stroke:#263238;stroke-linecap:round;stroke-linejoin:round"></path>
        <path
            d="M312.84,205.09c-5.8-2.25-15,4.67-15,4.67s-4.49-8.79-10.29-8.41c-3.74.24-6.39,5.46-7.8,9.14,0,.36,0,.76,0,1.21a67.66,67.66,0,0,0,1.46,10.35,36,36,0,0,1,13.48-1.62c7,.39,14.11,4.56,17.8,7.08,1.49-1.78,3.2-3.82,4.63-5.77C317.33,216.87,317.21,206.78,312.84,205.09Z"
            style="fill:#263238;stroke:#263238;stroke-linecap:round;stroke-linejoin:round"></path>
        <path d="M281.59,206s4.68-9,5.05-15.71"
            style="fill:none;stroke:#263238;stroke-linecap:round;stroke-linejoin:round"></path>
        <path
            d="M317.23,247.35a20.75,20.75,0,0,0-.87-2.09,55.08,55.08,0,0,1-19,7.23c-10.67,2-17.19-3.07-19.19-5-.42,1.31-.84,2.67-1.23,4.14a27.67,27.67,0,0,1,7.68,2.78c3.43,2.21,9.8,12.5,11.76,11.27s4.41-12,13.72-13.47c4.91-.78,7.43-.12,8.72.67A49.73,49.73,0,0,0,317.23,247.35Z"
            style="fill:#263238;stroke:#263238;stroke-linecap:round;stroke-linejoin:round"></path>
        <path
            d="M318,249.93s-5.66-.62-19.38,3.3-25.72,11.51-26.21,15.43,4.41,9.56,6.37,12,15.68,25.23,18.13,32.09,2.45,7.59.24,12.25-3.67,9.55-1.71,10.53S303,331.62,304,324s1-3.19-1-10.78-3.18-25.23-5.39-31.11a87.86,87.86,0,0,0-4.16-9.56s3.85.34,5.88,1.72c5,3.42,13.84,4,18.37-.25C322.45,269.58,327.3,258.26,318,249.93Z"
            style="fill:#fff"></path>
        <g style="clip-path:url(#freepik--clip-path-6--inject-1--inject-51)">
            <path
                d="M318,249.93s-5.66-.62-19.38,3.3-25.72,11.51-26.21,15.43,4.41,9.56,6.37,12,15.68,25.23,18.13,32.09,2.45,7.59.24,12.25-3.67,9.55-1.71,10.53S303,331.62,304,324s1-3.19-1-10.78-3.18-25.23-5.39-31.11a87.86,87.86,0,0,0-4.16-9.56s3.85.34,5.88,1.72c5,3.42,13.84,4,18.37-.25C322.45,269.58,327.3,258.26,318,249.93Z"
                style="opacity:0.2"></path>
            <path
                d="M317.72,274.05c4-3.81,8.13-12.57,3.53-20.24a1.89,1.89,0,0,1-.91.6c-3.42,1.26-13.85,1.41-27.14,7.07s-12.15,8.19-8.76,9.89,6.86,12.73,9.05,22.9c2.08,9.67,5.06,21.15,5.1,23.94.47,2.43,0,3.8-1.45,6.8-2.2,4.65-3.67,9.55-1.71,10.53S303,331.62,304,324s1-3.19-1-10.78-3.18-25.23-5.39-31.11a87.86,87.86,0,0,0-4.16-9.56s3.85.34,5.88,1.72C304.4,277.72,313.19,278.34,317.72,274.05Z"
                style="opacity:0.2"></path>
            <line x1="294.91" y1="333.89" x2="296.03" y2="331.64"
                style="fill:none;stroke:#263238;stroke-linecap:round;stroke-linejoin:round"></line>
            <line x1="295.43" y1="335.54" x2="297.34" y2="332.58"
                style="fill:none;stroke:#263238;stroke-linecap:round;stroke-linejoin:round"></line>
            <line x1="297.71" y1="335.19" x2="299.02" y2="333.14"
                style="fill:none;stroke:#263238;stroke-linecap:round;stroke-linejoin:round"></line>
        </g>
        <path
            d="M318,249.93s-5.66-.62-19.38,3.3-25.72,11.51-26.21,15.43,4.41,9.56,6.37,12,15.68,25.23,18.13,32.09,2.45,7.59.24,12.25-3.67,9.55-1.71,10.53S303,331.62,304,324s1-3.19-1-10.78-3.18-25.23-5.39-31.11a87.86,87.86,0,0,0-4.16-9.56s3.85.34,5.88,1.72c5,3.42,13.84,4,18.37-.25C322.45,269.58,327.3,258.26,318,249.93Z"
            style="fill:none;stroke:#263238;stroke-linecap:round;stroke-linejoin:round"></path>
        <path d="M293.47,272.58s-1.93-3-4.55-3.76a54.66,54.66,0,0,1,6,0"
            style="fill:none;stroke:#263238;stroke-linecap:round;stroke-linejoin:round"></path>
    </g>
</svg>